<?xml version="1.0" encoding="iso-8859-1"?>
<!-- Generator: Adobe Illustrator 19.0.0, SVG Export Plug-In . SVG Version: 6.00 Build 0)  -->
<svg version="1.1" id="Layer_1" xmlns="http://www.w3.org/2000/svg" xmlns:xlink="http://www.w3.org/1999/xlink" x="0px" y="0px"
	 viewBox="0 0 512 512" style="enable-background:new 0 0 512 512;" xml:space="preserve">
<g>
	<g>
		<path d="M479.934,0H32.066C14.357,0,0,14.357,0,32.066v447.867C0,497.643,14.357,512,32.066,512h447.867
			C497.643,512,512,497.643,512,479.934V32.066C512,14.357,497.643,0,479.934,0z M490.667,479.934
			c0,5.928-4.805,10.733-10.733,10.733H32.066c-5.928,0-10.733-4.805-10.733-10.733V32.066c0-5.928,4.805-10.733,10.733-10.733
			h447.867c5.928,0,10.733,4.805,10.733,10.733V479.934z"/>
	</g>
</g>
<g>
	<g>
		<path d="M423.829,358.25c-10.155,7.496-22.365,11.243-36.63,11.243c-10.397,0-19.584-1.995-27.562-5.984
			c-7.978-3.989-14.568-9.309-19.766-15.957c-5.197-6.648-9.128-14.506-11.786-23.574c-2.659-9.066-3.99-18.677-3.99-28.832h145.792
			c0.243-33.847-7.01-59.658-21.76-77.429c-14.749-17.771-35.059-26.656-60.928-26.656c-13.538,0-25.629,2.6-36.266,7.798
			c-10.638,5.197-19.646,12.331-27.019,21.397c-7.374,9.067-13.056,19.645-17.046,31.734c-3.989,12.088-5.984,25.023-5.984,38.805
			c0,13.781,1.693,26.655,5.078,38.624c3.383,11.968,8.584,22.365,15.594,31.189c7.01,8.824,15.958,15.776,26.837,20.854
			c10.88,5.077,23.817,7.616,38.805,7.616c11.848,0,22.243-1.571,31.189-4.715c8.946-3.144,16.683-7.555,23.211-13.237
			c6.528-5.683,11.967-12.331,16.32-19.947c4.352-7.616,7.859-15.896,10.518-24.842h-24.299
			C440.755,340.117,433.984,350.754,423.829,358.25z M324.096,277.013c0.968-8.947,3.022-17.407,6.165-25.386
			c3.145-7.979,7.315-14.99,12.512-21.035c5.197-6.045,11.485-10.879,18.859-14.506c7.373-3.626,15.896-5.44,25.568-5.44
			s18.253,1.752,25.749,5.259c7.496,3.506,13.72,8.221,18.678,14.144c4.957,5.922,8.704,12.935,11.242,21.034
			c2.539,8.099,3.808,16.744,3.808,25.93L324.096,277.013L324.096,277.013z"/>
	</g>
</g>
<g>
	<g>
		<path d="M178.667,122.88h-27.925L48.107,384h25.387l30.827-81.963h118.954L253.376,384h25.386L178.667,122.88z M112.661,281.003
			l51.136-137.088l51.136,137.088H112.661z"/>
	</g>
</g>
<g>
</g>
<g>
</g>
<g>
</g>
<g>
</g>
<g>
</g>
<g>
</g>
<g>
</g>
<g>
</g>
<g>
</g>
<g>
</g>
<g>
</g>
<g>
</g>
<g>
</g>
<g>
</g>
<g>
</g>
</svg>
