<?xml version="1.0" encoding="iso-8859-1"?>
<!-- Generator: Adobe Illustrator 19.0.0, SVG Export Plug-In . SVG Version: 6.00 Build 0)  -->
<svg version="1.1" id="Layer_1" xmlns="http://www.w3.org/2000/svg" xmlns:xlink="http://www.w3.org/1999/xlink" x="0px" y="0px"
	 viewBox="0 0 512 512" style="enable-background:new 0 0 512 512;" xml:space="preserve">
<g>
	<g>
		<path d="M407.485,0h-20.901H240.33h-83.573h-20.893h-31.348C81.478,0,62.736,18.715,62.736,41.72v428.448
			c0,23.004,18.742,41.719,41.779,41.719h31.348V512h20.893v-0.112h250.728c23.037,0,41.779-18.715,41.779-41.719V41.72
			C449.264,18.715,430.522,0,407.485,0z M135.863,490.994h-31.348c-11.517,0-20.886-9.342-20.886-20.826V41.72
			c0-11.484,9.369-20.827,20.886-20.827h31.348V490.994z M250.777,20.893h125.36v233.363l-54.818-62.648
			c-1.983-2.267-4.85-3.568-7.862-3.568s-5.879,1.301-7.862,3.568l-54.818,62.648V20.893z M428.37,470.169
			c0,11.484-9.369,20.826-20.886,20.826H156.756V20.893h73.127v261.167c0,4.352,2.698,8.248,6.773,9.78
			c4.074,1.529,8.67,0.374,11.536-2.901l65.265-74.588l65.265,74.588c2.024,2.313,4.908,3.568,7.864,3.568
			c1.231,0,2.474-0.218,3.672-0.667c4.074-1.531,6.773-5.427,6.773-9.78V20.893h10.454c11.517,0,20.886,9.344,20.886,20.827V470.169
			z"/>
	</g>
</g>
<g>
</g>
<g>
</g>
<g>
</g>
<g>
</g>
<g>
</g>
<g>
</g>
<g>
</g>
<g>
</g>
<g>
</g>
<g>
</g>
<g>
</g>
<g>
</g>
<g>
</g>
<g>
</g>
<g>
</g>
</svg>
