<?xml version="1.0" encoding="iso-8859-1"?>
<!-- Generator: Adobe Illustrator 19.0.0, SVG Export Plug-In . SVG Version: 6.00 Build 0)  -->
<svg version="1.1" id="Layer_1" xmlns="http://www.w3.org/2000/svg" xmlns:xlink="http://www.w3.org/1999/xlink" x="0px" y="0px"
	 viewBox="0 0 512 512" style="enable-background:new 0 0 512 512;" xml:space="preserve">
<g>
	<g>
		<path d="M440.324,138.557L309.885,3.018C308.029,1.09,305.469,0,302.791,0H108.38C86.623,0,68.923,17.653,68.923,39.351v433.298
			c0,21.698,17.699,39.351,39.457,39.351h295.24c21.757,0,39.457-17.653,39.457-39.351V145.385
			C443.077,142.839,442.091,140.392,440.324,138.557z M305.231,26.581L412.31,137.846H305.231V26.581z M423.385,472.649
			c0,10.84-8.865,19.659-19.764,19.659H108.38c-10.899,0-19.764-8.818-19.764-19.659V39.351c0-10.84,8.865-19.659,19.764-19.659
			h177.159v128c0,5.438,4.409,9.846,9.846,9.846h128V472.649z"/>
	</g>
</g>
<g>
	<g>
		<path d="M238.875,209.251h-22.107l-59.547,155.057h21.789l17.029-46.961h64.834l18.087,46.961h23.375L238.875,209.251z
			 M201.962,300.635l17.029-45.482c3.596-9.802,6.38-19.672,8.354-29.615c2.398,8.391,6.065,19.109,11.001,32.153l16.183,42.944
			H201.962z"/>
	</g>
</g>
<g>
	<g>
		<rect x="316.406" y="209.255" width="19.038" height="21.893"/>
	</g>
</g>
<g>
	<g>
		<rect x="316.406" y="251.988" width="19.038" height="112.327"/>
	</g>
</g>
<g>
</g>
<g>
</g>
<g>
</g>
<g>
</g>
<g>
</g>
<g>
</g>
<g>
</g>
<g>
</g>
<g>
</g>
<g>
</g>
<g>
</g>
<g>
</g>
<g>
</g>
<g>
</g>
<g>
</g>
</svg>
