<?xml version="1.0" encoding="iso-8859-1"?>
<!-- Generator: Adobe Illustrator 19.0.0, SVG Export Plug-In . SVG Version: 6.00 Build 0)  -->
<svg version="1.1" id="Layer_1" xmlns="http://www.w3.org/2000/svg" xmlns:xlink="http://www.w3.org/1999/xlink" x="0px" y="0px"
	 viewBox="0 0 512 512" style="enable-background:new 0 0 512 512;" xml:space="preserve">
<g>
	<g>
		<path d="M479.934,0H32.066C14.357,0,0,14.357,0,32.066v447.867C0,497.643,14.356,512,32.066,512h447.869
			C497.643,512,512,497.643,512,479.934V32.066C512,14.357,497.644,0,479.934,0z M490.667,479.934
			c0,5.928-4.805,10.733-10.732,10.733H32.066c-5.927,0-10.732-4.805-10.732-10.733V32.066c0-5.928,4.805-10.733,10.732-10.733
			h447.869c5.927,0,10.732,4.805,10.732,10.733V479.934z"/>
	</g>
</g>
<g>
	<g>
		<path d="M232,122.88h-27.925L101.44,384h25.387l30.827-81.963h118.955L306.709,384h25.387L232,122.88z M165.995,281.003
			l51.136-137.088l51.136,137.088H165.995z"/>
	</g>
</g>
<g>
	<g>
		<rect x="366.187" y="122.88" width="23.936" height="32.267"/>
	</g>
</g>
<g>
	<g>
		<rect x="367.28" y="196.133" width="21.76" height="187.867"/>
	</g>
</g>
<g>
</g>
<g>
</g>
<g>
</g>
<g>
</g>
<g>
</g>
<g>
</g>
<g>
</g>
<g>
</g>
<g>
</g>
<g>
</g>
<g>
</g>
<g>
</g>
<g>
</g>
<g>
</g>
<g>
</g>
</svg>
