<?xml version="1.0" encoding="iso-8859-1"?>
<!-- Generator: Adobe Illustrator 19.0.0, SVG Export Plug-In . SVG Version: 6.00 Build 0)  -->
<svg version="1.1" id="Layer_1" xmlns="http://www.w3.org/2000/svg" xmlns:xlink="http://www.w3.org/1999/xlink" x="0px" y="0px"
	 viewBox="0 0 512 512" style="enable-background:new 0 0 512 512;" xml:space="preserve">
<g>
	<g>
		<path d="M494.478,138.557L364.038,3.018C362.183,1.09,359.623,0,356.945,0H162.534c-21.757,0-39.457,17.694-39.457,39.442v137.789
			H44.289c-16.276,0-29.519,13.239-29.519,29.513v147.744c0,16.273,13.243,29.512,29.519,29.512h78.788v88.627
			c0,21.71,17.699,39.373,39.457,39.373h295.24c21.757,0,39.457-17.653,39.457-39.351V145.385
			C497.231,142.839,496.245,140.392,494.478,138.557z M359.385,26.581l107.079,111.265H359.385V26.581z M44.289,364.308
			c-5.418,0-9.827-4.405-9.827-9.82V206.744c0-5.415,4.409-9.821,9.827-9.821h265.882c5.421,0,9.829,4.406,9.829,9.821v147.744
			c0,5.415-4.409,9.82-9.829,9.82H44.289z M477.538,472.649c0,10.84-8.865,19.659-19.764,19.659h-295.24
			c-10.899,0-19.764-8.828-19.764-19.68V384h167.401c16.279,0,29.522-13.239,29.522-29.512V206.744
			c0-16.274-13.243-29.513-29.522-29.513H142.769V39.442c0-10.891,8.865-19.75,19.764-19.75h177.159v128
			c0,5.438,4.409,9.846,9.846,9.846h128V472.649z"/>
	</g>
</g>
<g>
	<g>
		<path d="M105.154,240.347H87.097l-32.943,84.576h18.114l6.981-19.212h33.809l7.385,19.212h18.578L105.154,240.347z
			 M84.499,291.461l11.424-31.385l11.653,31.385H84.499z"/>
	</g>
</g>
<g>
	<g>
		<path d="M207.96,249.895c-3.269-4.251-7.325-7.01-12.172-8.281c-3.153-0.847-9.922-1.267-20.308-1.267h-27.405v84.576h17.078
			v-31.904h11.133c7.732,0,13.635-0.404,17.711-1.211c3.001-0.655,5.952-1.992,8.856-4.01c2.905-2.019,5.297-4.798,7.183-8.337
			c1.886-3.537,2.829-7.904,2.829-13.096C212.867,259.636,211.232,254.144,207.96,249.895z M193.336,273.174
			c-1.287,1.883-3.067,3.269-5.337,4.153c-2.27,0.883-6.769,1.326-13.499,1.326h-9.346v-24h8.249c6.154,0,10.249,0.192,12.288,0.576
			c2.772,0.502,5.058,1.75,6.868,3.751c1.807,1.999,2.71,4.539,2.71,7.616C195.268,269.095,194.623,271.288,193.336,273.174z"/>
	</g>
</g>
<g>
	<g>
		<polygon points="269.807,273.287 301.654,240.347 278.693,240.347 244.192,277.903 244.192,240.347 227.117,240.347 
			227.117,324.923 244.192,324.923 244.192,299.365 258.038,285.231 281.287,324.923 303.385,324.923 		"/>
	</g>
</g>
<g>
</g>
<g>
</g>
<g>
</g>
<g>
</g>
<g>
</g>
<g>
</g>
<g>
</g>
<g>
</g>
<g>
</g>
<g>
</g>
<g>
</g>
<g>
</g>
<g>
</g>
<g>
</g>
<g>
</g>
</svg>
