<?xml version="1.0" encoding="iso-8859-1"?>
<!-- Generator: Adobe Illustrator 19.0.0, SVG Export Plug-In . SVG Version: 6.00 Build 0)  -->
<svg version="1.1" id="Layer_1" xmlns="http://www.w3.org/2000/svg" xmlns:xlink="http://www.w3.org/1999/xlink" x="0px" y="0px"
	 viewBox="0 0 512 512" style="enable-background:new 0 0 512 512;" xml:space="preserve">
<g>
	<g>
		<path d="M479.934,0H32.066C14.357,0,0,14.357,0,32.066v447.867C0,497.643,14.357,512,32.066,512h447.867
			C497.643,512,512,497.643,512,479.934V32.066C512,14.357,497.643,0,479.934,0z M490.667,479.934
			c0,5.928-4.805,10.733-10.733,10.733H32.066c-5.928,0-10.733-4.805-10.733-10.733V32.066c0-5.928,4.805-10.733,10.733-10.733
			h447.867c5.928,0,10.733,4.805,10.733,10.733V479.934z"/>
	</g>
</g>
<g>
	<g>
		<path d="M178.667,122.88h-27.925L48.107,384h25.387l30.827-81.963h118.954L253.376,384h25.386L178.667,122.88z M112.661,281.003
			l51.136-137.088l51.136,137.088H112.661z"/>
	</g>
</g>
<g>
	<g>
		<path d="M437.973,196.139v102.272c0,10.397-1.331,19.947-3.99,28.65c-2.658,8.705-6.407,16.2-11.242,22.486
			c-4.835,6.285-10.819,11.181-17.953,14.687c-7.133,3.507-15.171,5.259-24.117,5.259c-17.165,0-29.496-4.291-36.992-12.875
			c-7.495-8.584-11.242-20.973-11.242-37.173V196.139h-21.76v123.669c0,9.912,1.15,19.04,3.445,27.382
			c2.296,8.341,6.046,15.655,11.243,21.941c5.197,6.285,12.029,11.181,20.491,14.687c8.461,3.507,18.978,5.259,31.552,5.259
			c8.221,0,15.475-1.027,21.76-3.083c6.285-2.056,11.786-4.595,16.501-7.616c4.715-3.022,8.885-6.347,12.512-9.973
			c3.626-3.627,6.891-7.133,9.792-10.518V384h21.76V196.139H437.973z"/>
	</g>
</g>
<g>
</g>
<g>
</g>
<g>
</g>
<g>
</g>
<g>
</g>
<g>
</g>
<g>
</g>
<g>
</g>
<g>
</g>
<g>
</g>
<g>
</g>
<g>
</g>
<g>
</g>
<g>
</g>
<g>
</g>
</svg>
