<?xml version="1.0" encoding="iso-8859-1"?>
<!-- Generator: Adobe Illustrator 19.0.0, SVG Export Plug-In . SVG Version: 6.00 Build 0)  -->
<svg version="1.1" id="Layer_1" xmlns="http://www.w3.org/2000/svg" xmlns:xlink="http://www.w3.org/1999/xlink" x="0px" y="0px"
	 viewBox="0 0 512 512" style="enable-background:new 0 0 512 512;" xml:space="preserve">
<g>
	<g>
		<path d="M510.681,494.384l-86.78-138.847c-1.586-2.536-4.367-4.078-7.359-4.078c-2.993,0-5.773,1.542-7.359,4.078l-86.78,138.847
			c-1.672,2.676-1.76,6.047-0.231,8.807c1.529,2.758,4.435,4.47,7.59,4.47h173.559c3.155,0,6.06-1.712,7.59-4.47
			C512.442,500.43,512.353,497.059,510.681,494.384z M345.419,490.305l71.123-113.797l71.123,113.797H345.419z"/>
	</g>
</g>
<g>
	<g>
		<path d="M416.542,403.525c-4.792,0-8.678,3.886-8.678,8.678v34.712c0,4.792,3.886,8.678,8.678,8.678s8.678-3.886,8.678-8.678
			v-34.712C425.22,407.411,421.335,403.525,416.542,403.525z"/>
	</g>
</g>
<g>
	<g>
		<path d="M425.047,471.256c-0.109-0.563-0.282-1.106-0.499-1.627c-0.217-0.521-0.478-1.019-0.782-1.498
			c-0.325-0.477-0.694-0.911-1.085-1.322c-2.017-2.017-5.033-2.951-7.832-2.364c-0.564,0.108-1.106,0.282-1.627,0.498
			c-0.52,0.218-1.019,0.477-1.497,0.782c-0.477,0.324-0.911,0.695-1.323,1.085c-0.391,0.411-0.76,0.845-1.085,1.322
			c-0.304,0.479-0.565,0.977-0.781,1.498c-0.217,0.521-0.391,1.064-0.5,1.627c-0.108,0.563-0.172,1.129-0.172,1.693
			c0,2.278,0.932,4.513,2.538,6.14c0.412,0.39,0.846,0.758,1.323,1.062c0.478,0.326,0.977,0.587,1.497,0.803
			c0.521,0.218,1.063,0.392,1.627,0.5c0.565,0.108,1.128,0.174,1.693,0.174c2.278,0,4.512-0.934,6.139-2.538
			c1.606-1.627,2.539-3.862,2.539-6.14C425.22,472.386,425.155,471.82,425.047,471.256z"/>
	</g>
</g>
<g>
	<g>
		<path d="M442.563,4.339H34.724C15.577,4.339,0,19.875,0,38.973v52.146v17.356v364.553c0,19.098,15.558,34.634,34.681,34.634
			h269.048c4.792,0,8.678-3.886,8.678-8.678c0-4.792-3.886-8.678-8.678-8.678H34.681c-9.553,0-17.325-7.75-17.325-17.278V108.475
			h442.576v242.983c0,4.792,3.886,8.678,8.678,8.678s8.678-3.886,8.678-8.678V108.475V91.119V39.021
			C477.288,19.898,461.711,4.339,442.563,4.339z M459.932,91.119H17.356V38.973c0-9.528,7.791-17.278,17.368-17.278h407.84
			c9.577,0,17.368,7.773,17.368,17.326V91.119z"/>
	</g>
</g>
<g>
	<g>
		<circle cx="60.746" cy="56.407" r="17.356"/>
	</g>
</g>
<g>
	<g>
		<circle cx="112.814" cy="56.407" r="17.356"/>
	</g>
</g>
<g>
	<g>
		<circle cx="164.881" cy="56.407" r="17.356"/>
	</g>
</g>
<g>
	<g>
		<path d="M234.305,195.254c-57.421,0-104.136,46.714-104.136,104.136c0,57.422,46.715,104.136,104.136,104.136
			c57.421,0,104.136-46.714,104.136-104.136S291.726,195.254,234.305,195.254z M234.305,386.17c-47.851,0-86.78-38.93-86.78-86.78
			c0-47.85,38.929-86.78,86.78-86.78c47.851,0,86.78,38.93,86.78,86.78S282.156,386.17,234.305,386.17z"/>
	</g>
</g>
<g>
	<g>
		<path d="M292.51,301.932c-3.39-3.39-8.883-3.39-12.273,0l-37.253,37.253v-100.54c0-4.792-3.886-8.678-8.678-8.678
			c-4.792,0-8.678,3.886-8.678,8.678v100.54l-37.253-37.252c-3.39-3.39-8.883-3.39-12.273,0c-3.389,3.388-3.389,8.883,0,12.271
			l52.068,52.068v0c0.403,0.403,0.848,0.763,1.324,1.081c0.216,0.145,0.45,0.244,0.676,0.367c0.27,0.148,0.53,0.311,0.817,0.43
			c0.29,0.12,0.592,0.19,0.891,0.277c0.244,0.071,0.476,0.166,0.728,0.216c0.561,0.112,1.13,0.171,1.7,0.171
			c0.57,0,1.139-0.06,1.7-0.171c0.252-0.05,0.485-0.145,0.729-0.216c0.299-0.087,0.601-0.156,0.89-0.276
			c0.288-0.119,0.549-0.283,0.819-0.431c0.225-0.123,0.458-0.222,0.674-0.366c0.476-0.318,0.921-0.678,1.324-1.081v0l52.068-52.068
			C295.898,310.815,295.898,305.32,292.51,301.932z"/>
	</g>
</g>
<g>
</g>
<g>
</g>
<g>
</g>
<g>
</g>
<g>
</g>
<g>
</g>
<g>
</g>
<g>
</g>
<g>
</g>
<g>
</g>
<g>
</g>
<g>
</g>
<g>
</g>
<g>
</g>
<g>
</g>
</svg>
