<?xml version="1.0" encoding="iso-8859-1"?>
<!-- Generator: Adobe Illustrator 19.0.0, SVG Export Plug-In . SVG Version: 6.00 Build 0)  -->
<svg version="1.1" id="Layer_1" xmlns="http://www.w3.org/2000/svg" xmlns:xlink="http://www.w3.org/1999/xlink" x="0px" y="0px"
	 viewBox="0 0 512 512" style="enable-background:new 0 0 512 512;" xml:space="preserve">
<g>
	<g>
		<path d="M407.864,355.797c-43.066,0-78.102,35.036-78.102,78.102c0,43.066,35.036,78.102,78.102,78.102
			c43.066,0,78.102-35.036,78.102-78.102C485.966,390.833,450.93,355.797,407.864,355.797z M407.864,494.644
			c-33.496,0-60.746-27.25-60.746-60.746s27.25-60.746,60.746-60.746c33.496,0,60.746,27.25,60.746,60.746
			S441.36,494.644,407.864,494.644z"/>
	</g>
</g>
<g>
	<g>
		<path d="M420.135,433.898l18.409-18.409c3.39-3.388,3.39-8.883,0-12.271c-3.39-3.39-8.886-3.39-12.271,0l-18.409,18.409
			l-18.408-18.409c-3.385-3.39-8.886-3.39-12.271,0c-3.39,3.388-3.39,8.883,0,12.271l18.408,18.408l-18.411,18.41
			c-3.39,3.388-3.39,8.883,0,12.271c1.695,1.695,3.915,2.542,6.135,2.542c2.22,0,4.443-0.847,6.136-2.542l18.411-18.41l18.409,18.41
			c1.693,1.695,3.915,2.542,6.135,2.542c2.22,0,4.443-0.847,6.136-2.542c3.39-3.388,3.39-8.883,0-12.271L420.135,433.898z"/>
	</g>
</g>
<g>
	<g>
		<path d="M459.919,0H52.081C32.934,0,17.356,15.536,17.356,34.634V86.78v17.356v364.553c0,19.098,15.559,34.634,34.682,34.634
			h269.047c4.792,0,8.678-3.886,8.678-8.678c0-4.792-3.886-8.678-8.678-8.678H52.038c-9.553,0-17.326-7.75-17.326-17.278V104.136
			h442.576v242.983c0,4.792,3.886,8.678,8.678,8.678c4.792,0,8.678-3.886,8.678-8.678V104.136V86.78V34.682
			C494.644,15.559,479.066,0,459.919,0z M477.288,86.78H34.712V34.634c0-9.528,7.792-17.278,17.369-17.278H459.92
			c9.576,0,17.369,7.773,17.369,17.326V86.78z"/>
	</g>
</g>
<g>
	<g>
		<circle cx="78.102" cy="52.068" r="17.356"/>
	</g>
</g>
<g>
	<g>
		<circle cx="130.17" cy="52.068" r="17.356"/>
	</g>
</g>
<g>
	<g>
		<circle cx="182.237" cy="52.068" r="17.356"/>
	</g>
</g>
<g>
	<g>
		<path d="M251.661,190.915c-57.422,0-104.136,46.714-104.136,104.136s46.714,104.136,104.136,104.136
			s104.136-46.714,104.136-104.136S309.083,190.915,251.661,190.915z M251.661,381.831c-47.85,0-86.78-38.93-86.78-86.78
			c0-47.85,38.93-86.78,86.78-86.78s86.78,38.93,86.78,86.78S299.511,381.831,251.661,381.831z"/>
	</g>
</g>
<g>
	<g>
		<path d="M309.864,297.593c-3.385-3.39-8.885-3.39-12.271,0l-37.254,37.253V234.305c0-4.792-3.886-8.678-8.678-8.678
			s-8.678,3.886-8.678,8.678v100.541l-37.254-37.253c-3.385-3.39-8.886-3.39-12.271,0c-3.39,3.388-3.39,8.883,0,12.271
			l52.063,52.062c0.404,0.405,0.85,0.768,1.328,1.087c0.215,0.144,0.447,0.242,0.671,0.364c0.272,0.149,0.533,0.313,0.822,0.432
			c0.288,0.119,0.589,0.188,0.886,0.275c0.246,0.072,0.481,0.167,0.735,0.218c0.561,0.112,1.13,0.172,1.7,0.172
			s1.139-0.06,1.7-0.171c0.254-0.051,0.49-0.146,0.736-0.218c0.297-0.087,0.596-0.156,0.885-0.275
			c0.289-0.12,0.552-0.284,0.824-0.434c0.223-0.122,0.455-0.22,0.669-0.363c0.478-0.319,0.924-0.682,1.328-1.087l52.063-52.062
			C313.254,306.477,313.254,300.981,309.864,297.593z"/>
	</g>
</g>
<g>
</g>
<g>
</g>
<g>
</g>
<g>
</g>
<g>
</g>
<g>
</g>
<g>
</g>
<g>
</g>
<g>
</g>
<g>
</g>
<g>
</g>
<g>
</g>
<g>
</g>
<g>
</g>
<g>
</g>
</svg>
