<?xml version="1.0" encoding="iso-8859-1"?>
<!-- Generator: Adobe Illustrator 19.0.0, SVG Export Plug-In . SVG Version: 6.00 Build 0)  -->
<svg version="1.1" id="Layer_1" xmlns="http://www.w3.org/2000/svg" xmlns:xlink="http://www.w3.org/1999/xlink" x="0px" y="0px"
	 viewBox="0 0 512 512" style="enable-background:new 0 0 512 512;" xml:space="preserve">
<g>
	<g>
		<circle cx="114.741" cy="132.433" r="17.652"/>
	</g>
</g>
<g>
	<g>
		<circle cx="61.784" cy="132.433" r="17.652"/>
	</g>
</g>
<g>
	<g>
		<circle cx="167.699" cy="132.433" r="17.652"/>
	</g>
</g>
<g>
	<g>
		<path d="M511.922,167.738V114.76c0-19.456-15.801-35.284-35.225-35.284H35.225C15.801,79.475,0,95.303,0,114.76v52.978v17.652
			v211.852c0,19.455,15.801,35.283,35.225,35.283h441.472c19.424,0,35.225-15.828,35.225-35.283V185.39H512v-17.652H511.922z
			 M494.27,397.242c0,9.722-7.883,17.631-17.573,17.631H35.225c-9.69,0-17.573-7.909-17.573-17.631V185.39H494.27V397.242z
			 M494.27,167.738H17.652V114.76c0-9.723,7.883-17.632,17.573-17.632h441.472c9.69,0,17.573,7.909,17.573,17.632V167.738z"/>
	</g>
</g>
<g>
	<g>
		<path d="M359.29,276.237l-44.131-44.131c-3.443-3.446-9.037-3.446-12.481,0c-3.448,3.448-3.448,9.035,0,12.483l37.889,37.89
			l-37.889,37.89c-3.448,3.448-3.448,9.035,0,12.483c1.722,1.723,3.982,2.585,6.24,2.585c2.258,0,4.519-0.862,6.24-2.585
			l44.131-44.131C362.738,285.272,362.738,279.685,359.29,276.237z"/>
	</g>
</g>
<g>
	<g>
		<path d="M162.529,282.479l37.889-37.89c3.448-3.448,3.448-9.035,0-12.483c-3.443-3.446-9.037-3.446-12.481,0l-44.131,44.131
			c-3.448,3.448-3.448,9.035,0,12.483l44.131,44.131c1.722,1.723,3.982,2.585,6.24,2.585s4.519-0.862,6.24-2.585
			c3.448-3.448,3.448-9.035,0-12.483L162.529,282.479z"/>
	</g>
</g>
<g>
</g>
<g>
</g>
<g>
</g>
<g>
</g>
<g>
</g>
<g>
</g>
<g>
</g>
<g>
</g>
<g>
</g>
<g>
</g>
<g>
</g>
<g>
</g>
<g>
</g>
<g>
</g>
<g>
</g>
</svg>
