<?xml version="1.0" encoding="iso-8859-1"?>
<!-- Generator: Adobe Illustrator 19.0.0, SVG Export Plug-In . SVG Version: 6.00 Build 0)  -->
<svg version="1.1" id="Layer_1" xmlns="http://www.w3.org/2000/svg" xmlns:xlink="http://www.w3.org/1999/xlink" x="0px" y="0px"
	 viewBox="0 0 512 512" style="enable-background:new 0 0 512 512;" xml:space="preserve">
<g>
	<g>
		<path d="M496.245,472.144l-24.856-24.857l24.856-24.855c1.648-1.648,2.573-3.883,2.573-6.213s-0.926-4.565-2.573-6.213
			l-24.855-24.855c-3.43-3.43-8.994-3.433-12.428,0l-24.855,24.853l-24.855-24.853c-3.43-3.43-8.995-3.433-12.427,0l-24.856,24.855
			c-1.649,1.648-2.575,3.883-2.575,6.213s0.926,4.565,2.573,6.213l24.856,24.855l-24.856,24.857
			c-1.648,1.648-2.573,3.883-2.573,6.213s0.926,4.565,2.575,6.213l24.856,24.855c3.43,3.433,8.995,3.433,12.427,0l24.855-24.853
			l24.855,24.853c1.716,1.716,3.966,2.575,6.214,2.575s4.498-0.858,6.214-2.575l24.855-24.855
			C499.677,481.14,499.677,475.575,496.245,472.144z M465.176,490.784l-24.855-24.853c-3.433-3.433-8.996-3.433-12.428,0
			l-24.855,24.853l-12.428-12.426l24.856-24.857c1.648-1.648,2.573-3.883,2.573-6.213s-0.926-4.565-2.573-6.213l-24.856-24.855
			l12.428-12.426l24.855,24.853c3.433,3.433,8.996,3.433,12.428,0l24.855-24.853l12.427,12.426l-24.856,24.855
			c-1.648,1.648-2.573,3.883-2.573,6.213s0.926,4.565,2.573,6.213l24.856,24.857L465.176,490.784z"/>
	</g>
</g>
<g>
	<g>
		<path d="M461.341,0H48.344C28.956,0,13.181,15.732,13.181,35.071v52.805v17.575v369.162c0,19.339,15.755,35.071,35.12,35.071
			H320.75c4.853,0,8.788-3.935,8.788-8.788c0-4.853-3.935-8.788-8.788-8.788H48.301c-9.674,0-17.544-7.848-17.544-17.496V105.452
			h448.171v246.055c0,4.853,3.935,8.788,8.788,8.788c4.853,0,8.788-3.935,8.788-8.788V105.452V87.877V35.121
			C496.503,15.756,480.729,0,461.341,0z M478.928,87.877H30.757V35.071c0-9.648,7.89-17.496,17.587-17.496h412.997
			c9.697,0,17.587,7.872,17.587,17.545V87.877z"/>
	</g>
</g>
<g>
	<g>
		<circle cx="74.695" cy="52.726" r="17.575"/>
	</g>
</g>
<g>
	<g>
		<circle cx="127.421" cy="52.726" r="17.575"/>
	</g>
</g>
<g>
	<g>
		<circle cx="180.147" cy="52.726" r="17.575"/>
	</g>
</g>
<g>
	<g>
		<path d="M250.449,193.329c-58.146,0-105.452,47.304-105.452,105.452c0,58.148,47.306,105.452,105.452,105.452
			s105.452-47.305,105.452-105.452C355.901,240.633,308.595,193.329,250.449,193.329z M250.449,386.658
			c-48.456,0-87.877-39.422-87.877-87.877c0-48.455,39.421-87.877,87.877-87.877s87.877,39.422,87.877,87.877
			C338.325,347.235,298.904,386.658,250.449,386.658z"/>
	</g>
</g>
<g>
	<g>
		<path d="M309.389,301.355c-3.433-3.433-8.996-3.433-12.428,0l-37.724,37.723V237.267c0-4.853-3.935-8.788-8.788-8.788
			s-8.788,3.935-8.788,8.788v101.812l-37.724-37.723c-3.433-3.433-8.996-3.433-12.428,0c-3.432,3.43-3.432,8.996,0,12.426
			l52.726,52.726c0,0,0,0,0,0c0.408,0.408,0.858,0.773,1.34,1.094c0.219,0.146,0.456,0.247,0.684,0.372
			c0.273,0.15,0.537,0.315,0.827,0.435c0.294,0.122,0.6,0.192,0.903,0.28c0.247,0.072,0.482,0.168,0.738,0.219
			c0.568,0.113,1.145,0.174,1.722,0.174s1.153-0.061,1.722-0.174c0.255-0.051,0.492-0.146,0.739-0.219
			c0.302-0.088,0.608-0.158,0.902-0.28c0.291-0.121,0.555-0.286,0.83-0.437c0.228-0.124,0.464-0.224,0.682-0.37
			c0.482-0.322,0.932-0.687,1.34-1.094c0,0,0,0,0,0l52.726-52.726C312.82,310.351,312.82,304.786,309.389,301.355z"/>
	</g>
</g>
<g>
</g>
<g>
</g>
<g>
</g>
<g>
</g>
<g>
</g>
<g>
</g>
<g>
</g>
<g>
</g>
<g>
</g>
<g>
</g>
<g>
</g>
<g>
</g>
<g>
</g>
<g>
</g>
<g>
</g>
</svg>
