<?xml version="1.0" encoding="iso-8859-1"?>
<!-- Generator: Adobe Illustrator 19.0.0, SVG Export Plug-In . SVG Version: 6.00 Build 0)  -->
<svg version="1.1" id="Layer_1" xmlns="http://www.w3.org/2000/svg" xmlns:xlink="http://www.w3.org/1999/xlink" x="0px" y="0px"
	 viewBox="0 0 512 512" style="enable-background:new 0 0 512 512;" xml:space="preserve">
<g>
	<g>
		<path d="M410.483,353.103c-43.808,0-79.448,35.64-79.448,79.448S366.675,512,410.483,512c43.808,0,79.448-35.64,79.448-79.448
			S454.291,353.103,410.483,353.103z M410.483,494.345c-34.073,0-61.793-27.72-61.793-61.793c0-34.073,27.72-61.793,61.793-61.793
			c34.073,0,61.793,27.72,61.793,61.793C472.276,466.625,444.556,494.345,410.483,494.345z"/>
	</g>
</g>
<g>
	<g>
		<path d="M441.862,398.724c-4.054-2.705-9.537-1.608-12.241,2.448l-30.414,45.621l-19.138-12.758
			c-4.054-2.705-9.537-1.608-12.241,2.448c-2.705,4.056-1.608,9.537,2.448,12.241l26.483,17.655
			c1.504,1.004,3.205,1.483,4.888,1.483c2.854,0,5.653-1.379,7.353-3.931l35.31-52.966
			C447.015,406.91,445.918,401.429,441.862,398.724z"/>
	</g>
</g>
<g>
	<g>
		<path d="M463.435,0H48.565C29.088,0,13.241,15.804,13.241,35.231v53.045v17.655v370.838c0,19.427,15.828,35.231,35.28,35.231
			h273.685c4.875,0,8.828-3.953,8.828-8.828c0-4.875-3.953-8.828-8.828-8.828H48.521c-9.718,0-17.625-7.884-17.625-17.576V105.931
			h450.207v247.172c0,4.875,3.953,8.828,8.828,8.828s8.828-3.953,8.828-8.828V105.931V88.276V35.28
			C498.759,15.828,482.912,0,463.435,0z M481.103,88.276H30.897V35.231c0-9.692,7.927-17.576,17.668-17.576h414.871
			c9.741,0,17.668,7.907,17.668,17.625V88.276z"/>
	</g>
</g>
<g>
	<g>
		<circle cx="75.035" cy="52.966" r="17.655"/>
	</g>
</g>
<g>
	<g>
		<circle cx="128" cy="52.966" r="17.655"/>
	</g>
</g>
<g>
	<g>
		<circle cx="180.966" cy="52.966" r="17.655"/>
	</g>
</g>
<g>
	<g>
		<path d="M251.586,194.207c-58.412,0-105.931,47.519-105.931,105.931c0,58.412,47.519,105.931,105.931,105.931
			s105.931-47.519,105.931-105.931C357.517,241.726,309.998,194.207,251.586,194.207z M251.586,388.414
			c-48.675,0-88.276-39.601-88.276-88.276s39.601-88.276,88.276-88.276s88.276,39.601,88.276,88.276
			C339.862,348.813,300.261,388.414,251.586,388.414z"/>
	</g>
</g>
<g>
	<g>
		<path d="M310.793,302.724c-3.444-3.448-9.039-3.448-12.483,0l-37.897,37.895V238.345c0-4.875-3.953-8.828-8.828-8.828
			c-4.875,0-8.828,3.953-8.828,8.828v102.274l-37.897-37.895c-3.444-3.448-9.039-3.448-12.483,0c-3.448,3.446-3.448,9.037,0,12.483
			l52.96,52.96c0.41,0.412,0.865,0.781,1.351,1.106c0.218,0.146,0.455,0.246,0.682,0.371c0.277,0.151,0.543,0.318,0.836,0.44
			c0.293,0.121,0.599,0.191,0.901,0.28c0.25,0.073,0.489,0.17,0.748,0.222c0.57,0.114,1.148,0.174,1.728,0.174
			c0.58,0,1.158-0.061,1.728-0.174c0.26-0.051,0.499-0.148,0.749-0.222c0.302-0.088,0.607-0.158,0.9-0.279
			c0.294-0.122,0.56-0.289,0.838-0.441c0.226-0.124,0.462-0.224,0.68-0.369c0.486-0.325,0.941-0.694,1.351-1.106l52.96-52.96
			C314.242,311.761,314.242,306.17,310.793,302.724z"/>
	</g>
</g>
<g>
</g>
<g>
</g>
<g>
</g>
<g>
</g>
<g>
</g>
<g>
</g>
<g>
</g>
<g>
</g>
<g>
</g>
<g>
</g>
<g>
</g>
<g>
</g>
<g>
</g>
<g>
</g>
<g>
</g>
</svg>
