<?xml version="1.0" encoding="iso-8859-1"?>
<!-- Generator: Adobe Illustrator 19.0.0, SVG Export Plug-In . SVG Version: 6.00 Build 0)  -->
<svg version="1.1" id="Layer_1" xmlns="http://www.w3.org/2000/svg" xmlns:xlink="http://www.w3.org/1999/xlink" x="0px" y="0px"
	 viewBox="0 0 512 512" style="enable-background:new 0 0 512 512;" xml:space="preserve">
<g>
	<g>
		<path d="M492.941,422.218c-1.03-3.17-3.77-5.479-7.068-5.958l-41.479-6.029l-18.549-37.586c-1.475-2.989-4.519-4.881-7.852-4.881
			s-6.377,1.892-7.852,4.881l-18.55,37.586l-41.478,6.029c-3.299,0.479-6.038,2.788-7.069,5.958s-0.171,6.651,2.216,8.977
			l30.014,29.257l-7.086,41.313c-0.563,3.284,0.787,6.604,3.483,8.564c2.696,1.956,6.271,2.219,9.221,0.665l37.1-19.503l37.1,19.503
			c1.281,0.676,2.68,1.007,4.073,1.007c1.816,0,3.622-0.564,5.148-1.672c2.697-1.96,4.047-5.28,3.483-8.564l-7.086-41.312
			l30.014-29.257C493.112,428.869,493.971,425.388,492.941,422.218z M445.19,451.125c-2.064,2.012-3.006,4.911-2.518,7.749
			l4.865,28.362l-25.471-13.389c-1.275-0.671-2.675-1.007-4.075-1.007s-2.799,0.336-4.075,1.007l-25.471,13.389l4.865-28.362
			c0.487-2.839-0.454-5.738-2.518-7.749l-20.606-20.086l28.476-4.139c2.852-0.413,5.318-2.204,6.593-4.789l12.736-25.805
			l12.735,25.805c1.275,2.585,3.741,4.376,6.593,4.789l28.477,4.139L445.19,451.125z"/>
	</g>
</g>
<g>
	<g>
		<path d="M461.761,0H50.239C30.92,0,15.202,15.676,15.202,34.946v52.617v17.513v367.844c0,19.27,15.699,34.946,34.994,34.946
			h271.476c4.836,0,8.756-3.921,8.756-8.756c0-4.836-3.921-8.756-8.756-8.756H50.196c-9.639,0-17.482-7.82-17.482-17.434V105.076
			h446.571v245.176c0,4.836,3.921,8.756,8.756,8.756s8.756-3.921,8.756-8.756V105.076V87.563V34.995
			C496.798,15.7,481.08,0,461.761,0z M479.286,87.563H32.714V34.946c0-9.614,7.862-17.434,17.524-17.434h411.523
			c9.663,0,17.524,7.844,17.524,17.483V87.563z"/>
	</g>
</g>
<g>
	<g>
		<circle cx="76.496" cy="52.538" r="17.513"/>
	</g>
</g>
<g>
	<g>
		<circle cx="129.034" cy="52.538" r="17.513"/>
	</g>
</g>
<g>
	<g>
		<circle cx="181.571" cy="52.538" r="17.513"/>
	</g>
</g>
<g>
	<g>
		<path d="M251.622,192.639c-57.939,0-105.076,47.136-105.076,105.076c0,57.94,47.137,105.076,105.076,105.076
			s105.076-47.136,105.076-105.076C356.697,239.774,309.561,192.639,251.622,192.639z M251.622,385.277
			c-48.283,0-87.563-39.281-87.563-87.563c0-48.282,39.28-87.563,87.563-87.563c48.283,0,87.563,39.281,87.563,87.563
			C339.185,345.996,299.905,385.277,251.622,385.277z"/>
	</g>
</g>
<g>
	<g>
		<path d="M310.352,300.28c-3.42-3.42-8.964-3.42-12.384,0l-37.589,37.589V236.42c0-4.836-3.921-8.756-8.756-8.756
			c-4.836,0-8.756,3.921-8.756,8.756v101.448l-37.589-37.589c-3.42-3.42-8.964-3.42-12.384,0c-3.419,3.418-3.419,8.964,0,12.382
			l52.538,52.538l0,0c0.406,0.406,0.855,0.77,1.335,1.091c0.218,0.146,0.454,0.246,0.682,0.37c0.273,0.149,0.535,0.314,0.824,0.434
			c0.293,0.121,0.598,0.191,0.9,0.279c0.246,0.072,0.48,0.167,0.735,0.218c0.566,0.113,1.14,0.173,1.715,0.173
			c0.575,0,1.149-0.06,1.715-0.173c0.255-0.051,0.49-0.146,0.736-0.218c0.301-0.088,0.606-0.158,0.898-0.279
			c0.29-0.12,0.553-0.285,0.827-0.435c0.227-0.124,0.462-0.224,0.68-0.369c0.48-0.321,0.929-0.684,1.335-1.091c0,0,0,0,0,0
			l52.538-52.538C313.771,309.243,313.771,303.698,310.352,300.28z"/>
	</g>
</g>
<g>
</g>
<g>
</g>
<g>
</g>
<g>
</g>
<g>
</g>
<g>
</g>
<g>
</g>
<g>
</g>
<g>
</g>
<g>
</g>
<g>
</g>
<g>
</g>
<g>
</g>
<g>
</g>
<g>
</g>
</svg>
