<?xml version="1.0" encoding="iso-8859-1"?>
<!-- Generator: Adobe Illustrator 19.0.0, SVG Export Plug-In . SVG Version: 6.00 Build 0)  -->
<svg version="1.1" id="Layer_1" xmlns="http://www.w3.org/2000/svg" xmlns:xlink="http://www.w3.org/1999/xlink" x="0px" y="0px"
	 viewBox="0 0 512 512" style="enable-background:new 0 0 512 512;" xml:space="preserve">
<g>
	<g>
		<path d="M416.542,355.797c-43.066,0-78.102,35.036-78.102,78.102c0,43.066,35.036,78.102,78.102,78.102
			c43.066,0,78.102-35.036,78.102-78.102C494.644,390.833,459.608,355.797,416.542,355.797z M416.542,494.644
			c-33.496,0-60.746-27.25-60.746-60.746s27.25-60.746,60.746-60.746s60.746,27.25,60.746,60.746S450.038,494.644,416.542,494.644z"
			/>
	</g>
</g>
<g>
	<g>
		<path d="M416.542,381.831c-19.14,0-34.712,15.572-34.712,34.712c0,4.792,3.886,8.678,8.678,8.678s8.678-3.886,8.678-8.678
			c0-9.57,7.786-17.356,17.356-17.356c9.57,0,17.356,7.786,17.356,17.356c0,9.57-7.786,17.356-17.356,17.356
			c-4.792,0-8.678,3.886-8.678,8.678v8.678c0,4.792,3.886,8.678,8.678,8.678s8.678-3.886,8.678-8.678v-1.098
			c14.956-3.864,26.034-17.47,26.034-33.614C451.254,397.402,435.682,381.831,416.542,381.831z"/>
	</g>
</g>
<g>
	<g>
		<path d="M422.682,471.148c-1.627-1.606-3.862-2.538-6.14-2.538s-4.513,0.932-6.14,2.538c-1.606,1.627-2.538,3.862-2.538,6.14
			s0.932,4.513,2.538,6.14c1.606,1.604,3.862,2.538,6.14,2.538c0.564,0,1.127-0.044,1.693-0.174
			c0.564-0.108,1.106-0.282,1.627-0.477c0.519-0.24,1.019-0.5,1.496-0.803c0.477-0.326,0.911-0.695,1.324-1.085
			c0.39-0.392,0.758-0.847,1.062-1.324c0.326-0.477,0.587-0.977,0.803-1.498c0.218-0.519,0.392-1.062,0.5-1.627
			c0.108-0.564,0.173-1.127,0.173-1.691C425.22,475.011,424.286,472.775,422.682,471.148z"/>
	</g>
</g>
<g>
	<g>
		<path d="M459.919,0H52.081C32.934,0,17.356,15.536,17.356,34.634V86.78v17.356v364.553c0,19.098,15.559,34.634,34.682,34.634
			h269.047c4.792,0,8.678-3.886,8.678-8.678c0-4.792-3.886-8.678-8.678-8.678H52.038c-9.553,0-17.326-7.75-17.326-17.278V104.136
			h442.576v242.983c0,4.792,3.886,8.678,8.678,8.678c4.792,0,8.678-3.886,8.678-8.678V104.136V86.78V34.682
			C494.644,15.559,479.066,0,459.919,0z M477.288,86.78H34.712V34.634c0-9.528,7.792-17.278,17.369-17.278H459.92
			c9.576,0,17.369,7.773,17.369,17.326V86.78z"/>
	</g>
</g>
<g>
	<g>
		<circle cx="78.102" cy="52.068" r="17.356"/>
	</g>
</g>
<g>
	<g>
		<circle cx="130.17" cy="52.068" r="17.356"/>
	</g>
</g>
<g>
	<g>
		<circle cx="182.237" cy="52.068" r="17.356"/>
	</g>
</g>
<g>
	<g>
		<path d="M251.661,190.915c-57.422,0-104.136,46.714-104.136,104.136s46.714,104.136,104.136,104.136
			s104.136-46.714,104.136-104.136S309.083,190.915,251.661,190.915z M251.661,381.831c-47.85,0-86.78-38.93-86.78-86.78
			c0-47.85,38.93-86.78,86.78-86.78s86.78,38.93,86.78,86.78S299.511,381.831,251.661,381.831z"/>
	</g>
</g>
<g>
	<g>
		<path d="M309.864,297.593c-3.385-3.39-8.885-3.39-12.271,0l-37.254,37.253V234.305c0-4.792-3.886-8.678-8.678-8.678
			s-8.678,3.886-8.678,8.678v100.541l-37.254-37.253c-3.385-3.39-8.886-3.39-12.271,0c-3.39,3.388-3.39,8.883,0,12.271
			l52.063,52.062c0.404,0.405,0.85,0.768,1.328,1.087c0.215,0.144,0.447,0.242,0.671,0.364c0.272,0.149,0.533,0.313,0.822,0.432
			c0.288,0.119,0.589,0.188,0.886,0.275c0.246,0.072,0.481,0.167,0.735,0.218c0.561,0.112,1.13,0.172,1.7,0.172
			s1.139-0.06,1.7-0.171c0.254-0.051,0.49-0.146,0.736-0.218c0.297-0.087,0.596-0.156,0.885-0.275
			c0.289-0.12,0.552-0.284,0.824-0.434c0.223-0.122,0.455-0.22,0.669-0.363c0.478-0.319,0.924-0.682,1.328-1.087l52.063-52.062
			C313.254,306.477,313.254,300.981,309.864,297.593z"/>
	</g>
</g>
<g>
</g>
<g>
</g>
<g>
</g>
<g>
</g>
<g>
</g>
<g>
</g>
<g>
</g>
<g>
</g>
<g>
</g>
<g>
</g>
<g>
</g>
<g>
</g>
<g>
</g>
<g>
</g>
<g>
</g>
</svg>
