<?xml version="1.0" encoding="iso-8859-1"?>
<!-- Generator: Adobe Illustrator 19.0.0, SVG Export Plug-In . SVG Version: 6.00 Build 0)  -->
<svg version="1.1" id="Layer_1" xmlns="http://www.w3.org/2000/svg" xmlns:xlink="http://www.w3.org/1999/xlink" x="0px" y="0px"
	 viewBox="0 0 512 512" style="enable-background:new 0 0 512 512;" xml:space="preserve">
<g>
	<g>
		<path d="M456.779,0H55.221C33.075,0,15.059,17.975,15.059,40.071v60.321v20.078v351.458c0,22.096,18.016,40.071,40.162,40.071
			h401.559c22.146,0,40.162-17.975,40.162-40.071V120.471v-20.078V40.071C496.941,17.975,478.925,0,456.779,0z M476.863,471.929
			c0,11.025-9.01,19.993-20.083,19.993H55.221c-11.074,0-20.083-8.968-20.083-19.993V120.471h441.725V471.929z M476.863,100.392
			H35.137V40.071c0-11.025,9.01-19.993,20.083-19.993h401.559c11.073,0,20.083,8.968,20.083,19.993V100.392z"/>
	</g>
</g>
<g>
	<g>
		<circle cx="85.333" cy="60.235" r="20.078"/>
	</g>
</g>
<g>
	<g>
		<circle cx="145.569" cy="60.235" r="20.078"/>
	</g>
</g>
<g>
	<g>
		<circle cx="205.804" cy="60.235" r="20.078"/>
	</g>
</g>
<g>
</g>
<g>
</g>
<g>
</g>
<g>
</g>
<g>
</g>
<g>
</g>
<g>
</g>
<g>
</g>
<g>
</g>
<g>
</g>
<g>
</g>
<g>
</g>
<g>
</g>
<g>
</g>
<g>
</g>
</svg>
