<?xml version="1.0" encoding="iso-8859-1"?>
<!-- Generator: Adobe Illustrator 19.0.0, SVG Export Plug-In . SVG Version: 6.00 Build 0)  -->
<svg version="1.1" id="Layer_1" xmlns="http://www.w3.org/2000/svg" xmlns:xlink="http://www.w3.org/1999/xlink" x="0px" y="0px"
	 viewBox="0 0 512 512" style="enable-background:new 0 0 512 512;" xml:space="preserve">
<g>
	<g>
		<path d="M456.779,0H55.221C33.075,0,15.059,17.975,15.059,40.071v60.321v20.078v351.458c0,22.096,18.016,40.071,40.162,40.071
			h401.559c22.146,0,40.162-17.975,40.162-40.071V120.471v-20.078V40.071C496.941,17.975,478.925,0,456.779,0z M476.863,471.929
			c0,11.025-9.01,19.993-20.083,19.993H55.221c-11.074,0-20.083-8.968-20.083-19.993V120.471h441.725V471.929z M476.863,100.392
			H35.137V40.071c0-11.025,9.01-19.993,20.083-19.993h401.559c11.073,0,20.083,8.968,20.083,19.993V100.392z"/>
	</g>
</g>
<g>
	<g>
		<circle cx="85.333" cy="60.235" r="20.078"/>
	</g>
</g>
<g>
	<g>
		<circle cx="145.569" cy="60.235" r="20.078"/>
	</g>
</g>
<g>
	<g>
		<circle cx="205.804" cy="60.235" r="20.078"/>
	</g>
</g>
<g>
	<g>
		<rect x="250.127" y="246.889" width="22.109" height="22.109"/>
	</g>
</g>
<g>
	<g>
		<path d="M407.201,290.881c-3.486-2.874-5.805-6.774-6.955-11.7c-1.152-4.925-1.762-13.857-1.835-26.797
			c-0.07-12.943-0.557-22.252-1.456-27.932c-0.898-5.679-2.859-10.39-5.878-14.127c-3.019-3.74-6.829-6.4-11.43-7.981
			c-3.165-1.149-8.27-1.724-15.315-1.724h-6.038v16.931h3.343c6.829,0,11.412,0.952,13.749,2.857
			c2.337,1.904,3.757,5.268,4.262,10.084c0.359,2.731,0.537,11.108,0.537,25.128c0,15.458,1.692,26.439,5.07,32.947
			c3.378,6.505,9.203,11.735,17.471,15.691c-6.327,2.657-11.217,6.38-14.668,11.161s-5.75,11.161-6.902,19.142
			c-0.647,4.816-0.971,16.211-0.971,34.186c0,9.417-1.222,15.475-3.664,18.171c-2.445,2.696-7.406,4.043-14.883,4.043h-3.343v16.934
			h6.038c6.185,0,10.643-0.396,13.373-1.187c4.026-1.149,7.334-2.821,9.921-5.015c2.59-2.194,4.764-5.105,6.526-8.737
			c1.762-3.629,2.967-8.501,3.612-14.612c0.361-3.81,0.577-11.719,0.647-23.725c0.073-12.007,0.683-20.472,1.835-25.396
			c1.149-4.925,3.469-8.825,6.955-11.701c3.486-2.876,7.999-4.387,13.535-4.53v-17.579
			C415.199,295.268,410.687,293.758,407.201,290.881z"/>
	</g>
</g>
<g>
	<g>
		<path d="M134.25,293.148c3.127-4.172,5.338-10.102,6.634-17.795c0.79-4.962,1.184-16.858,1.184-35.697
			c0-9.347,1.223-15.367,3.667-18.063c2.445-2.695,7.406-4.044,14.883-4.044h3.343v-16.931h-6.039
			c-6.184,0-10.642,0.358-13.372,1.077c-4.026,1.152-7.334,2.824-9.921,5.015c-2.59,2.194-4.763,5.122-6.526,8.789
			c-1.762,3.667-2.967,8.521-3.612,14.559c-0.361,3.809-0.578,11.718-0.648,23.725c-0.073,12.007-0.683,20.49-1.835,25.452
			c-1.149,4.959-3.469,8.86-6.955,11.7c-3.489,2.839-7.999,4.332-13.536,4.475v17.579c5.537,0.143,10.047,1.654,13.536,4.53
			c3.486,2.876,5.805,6.794,6.955,11.753c1.152,4.962,1.762,13.912,1.835,26.855c0.07,12.941,0.557,22.249,1.456,27.929
			c0.898,5.679,2.856,10.373,5.878,14.076c3.019,3.702,6.829,6.38,11.43,8.034c3.165,1.149,8.27,1.727,15.315,1.727h6.039V390.96
			h-3.343c-6.829,0-11.412-0.969-13.749-2.911c-2.336-1.94-3.792-5.356-4.37-10.245c-0.286-2.661-0.432-11.001-0.432-25.02
			c0-15.455-1.779-26.582-5.336-33.376c-3.559-6.794-9.294-11.846-17.202-15.151C126.216,301.019,131.122,297.316,134.25,293.148z"
			/>
	</g>
</g>
<g>
	<g>
		<path d="M250.127,339.303v22.109h11c-0.216,6.543-1.295,11.558-3.235,15.043c-1.943,3.487-4.962,6.129-9.058,7.927l5.391,8.304
			c6.255-2.733,10.82-6.596,13.696-11.593c2.876-4.997,4.314-11.558,4.314-19.682v-22.109H250.127z"/>
	</g>
</g>
<g>
</g>
<g>
</g>
<g>
</g>
<g>
</g>
<g>
</g>
<g>
</g>
<g>
</g>
<g>
</g>
<g>
</g>
<g>
</g>
<g>
</g>
<g>
</g>
<g>
</g>
<g>
</g>
<g>
</g>
</svg>
