<?xml version="1.0" encoding="iso-8859-1"?>
<!-- Generator: Adobe Illustrator 19.0.0, SVG Export Plug-In . SVG Version: 6.00 Build 0)  -->
<svg version="1.1" id="Layer_1" xmlns="http://www.w3.org/2000/svg" xmlns:xlink="http://www.w3.org/1999/xlink" x="0px" y="0px"
	 viewBox="0 0 512 512" style="enable-background:new 0 0 512 512;" xml:space="preserve">
<g>
	<g>
		<path d="M502.154,0H9.846C4.409,0,0,4.409,0,9.846v98.462v393.846C0,507.591,4.409,512,9.846,512h492.308
			c5.438,0,9.846-4.409,9.846-9.846V108.308V9.846C512,4.409,507.591,0,502.154,0z M147.692,492.308h-128V118.154h128V492.308z
			 M492.308,492.308H167.385V118.154h324.923V492.308z M492.308,98.462H19.692V19.692h472.615V98.462z"/>
	</g>
</g>
<g>
	<g>
		<circle cx="59.077" cy="59.077" r="19.692"/>
	</g>
</g>
<g>
	<g>
		<circle cx="137.846" cy="59.077" r="19.692"/>
	</g>
</g>
<g>
	<g>
		<circle cx="216.615" cy="59.077" r="19.692"/>
	</g>
</g>
<g>
	<g>
		<path d="M295.385,167.385h-78.769c-5.438,0-9.846,4.409-9.846,9.846v98.462c0,5.438,4.409,9.846,9.846,9.846h78.769
			c5.438,0,9.846-4.409,9.846-9.846v-98.462C305.231,171.793,300.822,167.385,295.385,167.385z M285.538,265.846h-59.077v-78.769
			h59.077V265.846z"/>
	</g>
</g>
<g>
	<g>
		<path d="M295.385,324.923h-78.769c-5.438,0-9.846,4.409-9.846,9.846v98.462c0,5.438,4.409,9.846,9.846,9.846h78.769
			c5.438,0,9.846-4.409,9.846-9.846v-98.462C305.231,329.332,300.822,324.923,295.385,324.923z M285.538,423.385h-59.077v-78.769
			h59.077V423.385z"/>
	</g>
</g>
<g>
	<g>
		<path d="M443.077,167.385h-78.769c-5.438,0-9.846,4.409-9.846,9.846v98.462c0,5.438,4.409,9.846,9.846,9.846h78.769
			c5.438,0,9.846-4.409,9.846-9.846v-98.462C452.923,171.793,448.514,167.385,443.077,167.385z M433.231,265.846h-59.077v-78.769
			h59.077V265.846z"/>
	</g>
</g>
<g>
	<g>
		<path d="M443.077,324.923h-78.769c-5.438,0-9.846,4.409-9.846,9.846v98.462c0,5.438,4.409,9.846,9.846,9.846h78.769
			c5.438,0,9.846-4.409,9.846-9.846v-98.462C452.923,329.332,448.514,324.923,443.077,324.923z M433.231,423.385h-59.077v-78.769
			h59.077V423.385z"/>
	</g>
</g>
<g>
	<g>
		<rect x="49.231" y="147.692" width="68.923" height="19.692"/>
	</g>
</g>
<g>
	<g>
		<rect x="49.231" y="196.923" width="68.923" height="19.692"/>
	</g>
</g>
<g>
	<g>
		<rect x="49.231" y="246.154" width="68.923" height="19.692"/>
	</g>
</g>
<g>
	<g>
		<rect x="49.231" y="295.385" width="68.923" height="19.692"/>
	</g>
</g>
<g>
	<g>
		<rect x="49.231" y="344.615" width="68.923" height="19.692"/>
	</g>
</g>
<g>
	<g>
		<rect x="49.231" y="393.846" width="68.923" height="19.692"/>
	</g>
</g>
<g>
	<g>
		<rect x="49.231" y="443.077" width="68.923" height="19.692"/>
	</g>
</g>
<g>
</g>
<g>
</g>
<g>
</g>
<g>
</g>
<g>
</g>
<g>
</g>
<g>
</g>
<g>
</g>
<g>
</g>
<g>
</g>
<g>
</g>
<g>
</g>
<g>
</g>
<g>
</g>
<g>
</g>
</svg>
