<?xml version="1.0" encoding="iso-8859-1"?>
<!-- Generator: Adobe Illustrator 19.0.0, SVG Export Plug-In . SVG Version: 6.00 Build 0)  -->
<svg version="1.1" id="Layer_1" xmlns="http://www.w3.org/2000/svg" xmlns:xlink="http://www.w3.org/1999/xlink" x="0px" y="0px"
	 viewBox="0 0 512 512" style="enable-background:new 0 0 512 512;" xml:space="preserve">
<g>
	<g>
		<path d="M498.759,432.552H375.172c-4.875,0-8.828,3.953-8.828,8.828v35.31c0,4.875,3.953,8.828,8.828,8.828h123.586
			c4.875,0,8.828-3.953,8.828-8.828v-35.31C507.586,436.504,503.634,432.552,498.759,432.552z M489.931,467.862H384v-17.655h105.931
			V467.862z"/>
	</g>
</g>
<g>
	<g>
		<path d="M454.609,0H39.736C20.26,0,4.414,15.804,4.414,35.231v53.045v17.655v370.838C4.414,496.196,20.24,512,39.693,512h273.687
			c4.875,0,8.828-3.953,8.828-8.828c0-4.875-3.953-8.828-8.828-8.828H39.693c-9.718,0-17.624-7.884-17.624-17.576V105.931h450.207
			v247.172c0,4.875,3.953,8.828,8.828,8.828c4.875,0,8.828-3.953,8.828-8.828V105.931V88.276V35.28
			C489.931,15.828,474.085,0,454.609,0z M472.276,88.276H22.069V35.231c0-9.692,7.926-17.576,17.667-17.576h414.873
			c9.741,0,17.667,7.907,17.667,17.625V88.276z"/>
	</g>
</g>
<g>
	<g>
		<circle cx="66.207" cy="52.966" r="17.655"/>
	</g>
</g>
<g>
	<g>
		<circle cx="119.172" cy="52.966" r="17.655"/>
	</g>
</g>
<g>
	<g>
		<circle cx="172.138" cy="52.966" r="17.655"/>
	</g>
</g>
<g>
	<g>
		<path d="M242.759,194.207c-58.411,0-105.931,47.519-105.931,105.931c0,58.412,47.52,105.931,105.931,105.931
			S348.69,358.55,348.69,300.138C348.69,241.726,301.169,194.207,242.759,194.207z M242.759,388.414
			c-48.676,0-88.276-39.601-88.276-88.276s39.6-88.276,88.276-88.276c48.676,0,88.276,39.601,88.276,88.276
			C331.035,348.813,291.434,388.414,242.759,388.414z"/>
	</g>
</g>
<g>
	<g>
		<path d="M301.967,302.724c-3.448-3.448-9.037-3.448-12.485,0l-37.896,37.895V238.345c0-4.875-3.953-8.828-8.828-8.828
			c-4.875,0-8.828,3.953-8.828,8.828v102.274l-37.896-37.895c-3.448-3.448-9.037-3.448-12.485,0c-3.447,3.446-3.447,9.037,0,12.483
			l52.966,52.966c0,0,0,0,0,0c0.41,0.41,0.862,0.776,1.346,1.099c0.22,0.147,0.458,0.248,0.687,0.373
			c0.275,0.151,0.539,0.316,0.831,0.437c0.295,0.122,0.603,0.193,0.907,0.282c0.248,0.073,0.485,0.169,0.741,0.22
			c0.571,0.114,1.15,0.175,1.729,0.175s1.159-0.061,1.73-0.174c0.256-0.051,0.494-0.147,0.742-0.22
			c0.304-0.089,0.611-0.159,0.906-0.281c0.293-0.121,0.558-0.288,0.834-0.439c0.229-0.125,0.466-0.226,0.685-0.372
			c0.484-0.323,0.936-0.69,1.346-1.099c0,0,0,0,0,0l52.966-52.966C305.414,311.761,305.414,306.17,301.967,302.724z"/>
	</g>
</g>
<g>
</g>
<g>
</g>
<g>
</g>
<g>
</g>
<g>
</g>
<g>
</g>
<g>
</g>
<g>
</g>
<g>
</g>
<g>
</g>
<g>
</g>
<g>
</g>
<g>
</g>
<g>
</g>
<g>
</g>
</svg>
