<?xml version="1.0" encoding="iso-8859-1"?>
<!-- Generator: Adobe Illustrator 19.0.0, SVG Export Plug-In . SVG Version: 6.00 Build 0)  -->
<svg version="1.1" id="Layer_1" xmlns="http://www.w3.org/2000/svg" xmlns:xlink="http://www.w3.org/1999/xlink" x="0px" y="0px"
	 viewBox="0 0 512 512" style="enable-background:new 0 0 512 512;" xml:space="preserve">
<g>
	<g>
		<circle cx="114.741" cy="132.433" r="17.652"/>
	</g>
</g>
<g>
	<g>
		<circle cx="61.784" cy="132.433" r="17.652"/>
	</g>
</g>
<g>
	<g>
		<circle cx="167.699" cy="132.433" r="17.652"/>
	</g>
</g>
<g>
	<g>
		<path d="M511.922,167.738V114.76c0-19.456-15.801-35.284-35.225-35.284H35.225C15.801,79.475,0,95.303,0,114.76v52.978v17.652
			v211.852c0,19.455,15.801,35.283,35.225,35.283h441.472c19.424,0,35.225-15.828,35.225-35.283V185.39H512v-17.652H511.922z
			 M494.27,397.242c0,9.722-7.883,17.631-17.573,17.631H35.225c-9.69,0-17.573-7.909-17.573-17.631V185.39H494.27V397.242z
			 M494.27,167.738H17.652V114.76c0-9.723,7.883-17.632,17.573-17.632h441.472c9.69,0,17.573,7.909,17.573,17.632V167.738z"/>
	</g>
</g>
<g>
	<g>
		<path d="M430.778,339.044L333.689,206.65c-1.844-2.516-4.896-3.866-7.982-3.565c-3.103,0.306-5.816,2.226-7.135,5.052
			l-57.595,123.418l-106.305-65.419c-3.885-2.392-8.951-1.427-11.688,2.222l-52.958,70.61c-2.924,3.899-2.133,9.432,1.765,12.357
			c3.903,2.925,9.434,2.134,12.358-1.766l48.126-64.169l107.885,66.391c2.148,1.321,4.756,1.658,7.161,0.937
			c2.411-0.723,4.4-2.441,5.465-4.722l55.481-118.888l88.276,120.375c1.73,2.358,4.409,3.608,7.124,3.608
			c1.812-0.001,3.64-0.557,5.213-1.71C432.809,348.498,433.661,342.974,430.778,339.044z"/>
	</g>
</g>
<g>
</g>
<g>
</g>
<g>
</g>
<g>
</g>
<g>
</g>
<g>
</g>
<g>
</g>
<g>
</g>
<g>
</g>
<g>
</g>
<g>
</g>
<g>
</g>
<g>
</g>
<g>
</g>
<g>
</g>
</svg>
