<?xml version="1.0" encoding="iso-8859-1"?>
<!-- Generator: Adobe Illustrator 19.0.0, SVG Export Plug-In . SVG Version: 6.00 Build 0)  -->
<svg version="1.1" id="Layer_1" xmlns="http://www.w3.org/2000/svg" xmlns:xlink="http://www.w3.org/1999/xlink" x="0px" y="0px"
	 viewBox="0 0 512 512" style="enable-background:new 0 0 512 512;" xml:space="preserve">
<g>
	<g>
		<circle cx="61.784" cy="132.433" r="17.652"/>
	</g>
</g>
<g>
	<g>
		<circle cx="114.741" cy="132.433" r="17.652"/>
	</g>
</g>
<g>
	<g>
		<circle cx="167.698" cy="132.433" r="17.652"/>
	</g>
</g>
<g>
	<g>
		<path d="M511.921,167.738V114.76c0-19.456-15.801-35.284-35.225-35.284H35.225C15.801,79.475,0,95.304,0,114.76v52.978v17.652
			v211.851c0,19.455,15.801,35.283,35.225,35.283h441.471c19.424,0,35.225-15.828,35.225-35.283V185.39H512v-17.652H511.921z
			 M494.269,397.241c0,9.722-7.884,17.631-17.573,17.631H35.225c-9.689,0-17.573-7.909-17.573-17.631V185.39h476.617V397.241z
			 M494.269,167.738H17.652V114.76c0-9.723,7.884-17.632,17.573-17.632h441.471c9.689,0,17.573,7.909,17.573,17.632V167.738z"/>
	</g>
</g>
<g>
	<g>
		<path d="M273.613,220.695H61.784c-4.874,0-8.826,3.952-8.826,8.826v141.22c0,4.874,3.952,8.826,8.826,8.826h211.83
			c4.874,0,8.826-3.952,8.826-8.826v-141.22C282.439,224.647,278.487,220.695,273.613,220.695z M264.787,361.915H70.61V238.348
			h194.177V361.915z"/>
	</g>
</g>
<g>
	<g>
		<path d="M450.138,220.695H326.571c-4.874,0-8.826,3.952-8.826,8.826v141.22c0,4.874,3.952,8.826,8.826,8.826h123.567
			c4.874,0,8.826-3.952,8.826-8.826v-141.22C458.964,224.647,455.012,220.695,450.138,220.695z M441.312,361.915H335.397V238.348
			h105.915V361.915z"/>
	</g>
</g>
<g>
</g>
<g>
</g>
<g>
</g>
<g>
</g>
<g>
</g>
<g>
</g>
<g>
</g>
<g>
</g>
<g>
</g>
<g>
</g>
<g>
</g>
<g>
</g>
<g>
</g>
<g>
</g>
<g>
</g>
</svg>
