<?xml version="1.0" encoding="iso-8859-1"?>
<!-- Generator: Adobe Illustrator 19.0.0, SVG Export Plug-In . SVG Version: 6.00 Build 0)  -->
<svg version="1.1" id="Layer_1" xmlns="http://www.w3.org/2000/svg" xmlns:xlink="http://www.w3.org/1999/xlink" x="0px" y="0px"
	 viewBox="0 0 512 512" style="enable-background:new 0 0 512 512;" xml:space="preserve">
<g>
	<g>
		<path d="M456.779,0H55.221C33.075,0,15.059,17.975,15.059,40.071v60.321v20.078v351.458c0,22.096,18.016,40.071,40.162,40.071
			h401.559c22.146,0,40.162-17.975,40.162-40.071V120.471v-20.078V40.071C496.941,17.975,478.925,0,456.779,0z M476.863,471.929
			c0,11.025-9.01,19.993-20.083,19.993H55.221c-11.074,0-20.083-8.968-20.083-19.993V120.471h441.725V471.929z M476.863,100.392
			H35.137V40.071c0-11.025,9.01-19.993,20.083-19.993h401.559c11.073,0,20.083,8.968,20.083,19.993V100.392z"/>
	</g>
</g>
<g>
	<g>
		<circle cx="85.333" cy="60.235" r="20.078"/>
	</g>
</g>
<g>
	<g>
		<circle cx="145.569" cy="60.235" r="20.078"/>
	</g>
</g>
<g>
	<g>
		<circle cx="205.804" cy="60.235" r="20.078"/>
	</g>
</g>
<g>
	<g>
		<path d="M402.385,293.007l-70.275-50.196c-4.516-3.224-10.783-2.179-14.005,2.333c-3.223,4.512-2.178,10.782,2.333,14.005
			l58.838,42.027l-58.838,42.027c-4.511,3.223-5.556,9.493-2.333,14.005c1.96,2.743,5.045,4.205,8.178,4.205
			c2.02,0,4.058-0.608,5.827-1.871l70.275-50.196c2.637-1.885,4.203-4.926,4.203-8.169
			C406.588,297.934,405.022,294.892,402.385,293.007z"/>
	</g>
</g>
<g>
	<g>
		
			<rect x="172.863" y="291.138" transform="matrix(0.2747 -0.9615 0.9615 0.2747 -103.9253 464.578)" width="166.245" height="20.078"/>
	</g>
</g>
<g>
	<g>
		<path d="M191.561,343.203l-58.838-42.027l58.838-42.027c4.511-3.223,5.556-9.493,2.333-14.005s-9.491-5.558-14.005-2.333
			l-70.275,50.196c-2.637,1.885-4.203,4.927-4.203,8.169c0,3.243,1.566,6.284,4.203,8.169l70.275,50.196
			c1.77,1.263,3.808,1.871,5.827,1.871c3.132,0,6.218-1.462,8.178-4.205C197.118,352.696,196.072,346.427,191.561,343.203z"/>
	</g>
</g>
<g>
</g>
<g>
</g>
<g>
</g>
<g>
</g>
<g>
</g>
<g>
</g>
<g>
</g>
<g>
</g>
<g>
</g>
<g>
</g>
<g>
</g>
<g>
</g>
<g>
</g>
<g>
</g>
<g>
</g>
</svg>
