<?xml version="1.0" encoding="iso-8859-1"?>
<!-- Generator: Adobe Illustrator 19.0.0, SVG Export Plug-In . SVG Version: 6.00 Build 0)  -->
<svg version="1.1" id="Layer_1" xmlns="http://www.w3.org/2000/svg" xmlns:xlink="http://www.w3.org/1999/xlink" x="0px" y="0px"
	 viewBox="0 0 512 512" style="enable-background:new 0 0 512 512;" xml:space="preserve">
<g>
	<g>
		<circle cx="114.741" cy="132.433" r="17.652"/>
	</g>
</g>
<g>
	<g>
		<circle cx="61.784" cy="132.433" r="17.652"/>
	</g>
</g>
<g>
	<g>
		<circle cx="167.699" cy="132.433" r="17.652"/>
	</g>
</g>
<g>
	<g>
		<path d="M511.922,167.738V114.76c0-19.456-15.801-35.284-35.225-35.284H35.225C15.801,79.475,0,95.303,0,114.76v52.978v17.652
			v211.852c0,19.455,15.801,35.283,35.225,35.283h441.472c19.424,0,35.225-15.828,35.225-35.283V185.39H512v-17.652H511.922z
			 M494.27,397.242c0,9.722-7.883,17.631-17.573,17.631H35.225c-9.69,0-17.573-7.909-17.573-17.631V185.39H494.27V397.242z
			 M494.27,167.738H17.652V114.76c0-9.723,7.883-17.632,17.573-17.632h441.472c9.69,0,17.573,7.909,17.573,17.632V167.738z"/>
	</g>
</g>
<g>
	<g>
		<rect x="97.089" y="308.957" width="17.652" height="79.436"/>
	</g>
</g>
<g>
	<g>
		<rect x="141.22" y="203.043" width="17.652" height="185.351"/>
	</g>
</g>
<g>
	<g>
		<rect x="185.351" y="220.695" width="17.652" height="167.699"/>
	</g>
</g>
<g>
	<g>
		<rect x="229.482" y="273.652" width="17.653" height="114.741"/>
	</g>
</g>
<g>
	<g>
		<rect x="273.614" y="308.957" width="17.653" height="79.436"/>
	</g>
</g>
<g>
	<g>
		<rect x="317.745" y="220.695" width="17.653" height="167.699"/>
	</g>
</g>
<g>
	<g>
		<rect x="361.876" y="308.957" width="17.652" height="79.436"/>
	</g>
</g>
<g>
	<g>
		<rect x="406.007" y="264.826" width="17.652" height="123.567"/>
	</g>
</g>
<g>
</g>
<g>
</g>
<g>
</g>
<g>
</g>
<g>
</g>
<g>
</g>
<g>
</g>
<g>
</g>
<g>
</g>
<g>
</g>
<g>
</g>
<g>
</g>
<g>
</g>
<g>
</g>
<g>
</g>
</svg>
