<?xml version="1.0" encoding="iso-8859-1"?>
<!-- Generator: Adobe Illustrator 19.0.0, SVG Export Plug-In . SVG Version: 6.00 Build 0)  -->
<svg version="1.1" id="Layer_1" xmlns="http://www.w3.org/2000/svg" xmlns:xlink="http://www.w3.org/1999/xlink" x="0px" y="0px"
	 viewBox="0 0 512 512" style="enable-background:new 0 0 512 512;" xml:space="preserve">
<g>
	<g>
		<path d="M374.154,49.231H68.923c-5.438,0-9.846,4.409-9.846,9.846v59.077c0,5.438,4.409,9.846,9.846,9.846h305.231
			c5.438,0,9.846-4.409,9.846-9.846V59.077C384,53.639,379.591,49.231,374.154,49.231z M364.308,108.308H78.769V68.923h285.538
			V108.308z"/>
	</g>
</g>
<g>
	<g>
		<path d="M374.154,374.154H68.923c-5.438,0-9.846,4.409-9.846,9.846v59.077c0,5.438,4.409,9.846,9.846,9.846h305.231
			c5.438,0,9.846-4.409,9.846-9.846V384C384,378.563,379.591,374.154,374.154,374.154z M364.308,433.231H78.769v-39.385h285.538
			V433.231z"/>
	</g>
</g>
<g>
	<g>
		<rect x="59.077" y="157.538" width="167.385" height="19.692"/>
	</g>
</g>
<g>
	<g>
		<rect x="216.615" y="265.846" width="167.385" height="19.692"/>
	</g>
</g>
<g>
	<g>
		<rect x="59.077" y="216.615" width="167.385" height="19.692"/>
	</g>
</g>
<g>
	<g>
		<rect x="216.615" y="324.923" width="167.385" height="19.692"/>
	</g>
</g>
<g>
	<g>
		<path d="M374.154,157.538H265.846c-5.438,0-9.846,4.409-9.846,9.846v59.077c0,5.438,4.409,9.846,9.846,9.846h108.308
			c5.438,0,9.846-4.409,9.846-9.846v-59.077C384,161.947,379.591,157.538,374.154,157.538z M364.308,216.615h-88.615v-39.385h88.615
			V216.615z"/>
	</g>
</g>
<g>
	<g>
		<path d="M177.231,265.846H68.923c-5.438,0-9.846,4.409-9.846,9.846v59.077c0,5.438,4.409,9.846,9.846,9.846h108.308
			c5.438,0,9.846-4.409,9.846-9.846v-59.077C187.077,270.255,182.668,265.846,177.231,265.846z M167.385,324.923H78.769v-39.385
			h88.615V324.923z"/>
	</g>
</g>
<g>
	<g>
		<path d="M472.558,187.077h-39.327V39.351C433.231,17.653,415.571,0,393.864,0H49.213C27.506,0,9.846,17.653,9.846,39.351v433.298
			c0,21.698,17.66,39.351,39.367,39.351h344.651c7.532,0,14.551-2.163,20.54-5.845c1.536,3.439,4.971,5.845,8.981,5.845h49.173
			c16.32,0,29.596-13.243,29.596-29.521V216.599C502.154,200.32,488.877,187.077,472.558,187.077z M413.538,196.923v275.726
			c0,10.84-8.826,19.659-19.674,19.659H49.213c-10.849,0-19.674-8.818-19.674-19.659V39.351c0-10.84,8.826-19.659,19.674-19.659
			h344.651c10.849,0,19.674,8.818,19.674,19.659V196.923z M482.462,482.479c0,5.511-4.35,9.828-9.904,9.828h-39.327v-19.659v-265.88
			h39.327c5.461,0,9.904,4.41,9.904,9.829V482.479z"/>
	</g>
</g>
<g>
</g>
<g>
</g>
<g>
</g>
<g>
</g>
<g>
</g>
<g>
</g>
<g>
</g>
<g>
</g>
<g>
</g>
<g>
</g>
<g>
</g>
<g>
</g>
<g>
</g>
<g>
</g>
<g>
</g>
</svg>
