<?xml version="1.0" encoding="iso-8859-1"?>
<!-- Generator: Adobe Illustrator 19.0.0, SVG Export Plug-In . SVG Version: 6.00 Build 0)  -->
<svg version="1.1" id="Layer_1" xmlns="http://www.w3.org/2000/svg" xmlns:xlink="http://www.w3.org/1999/xlink" x="0px" y="0px"
	 viewBox="0 0 512 512" style="enable-background:new 0 0 512 512;" xml:space="preserve">
<g>
	<g>
		<path d="M502.154,0H9.846C4.409,0,0,4.409,0,9.846v98.462v393.846C0,507.591,4.409,512,9.846,512h492.308
			c5.438,0,9.846-4.409,9.846-9.846V108.308V9.846C512,4.409,507.591,0,502.154,0z M492.308,492.308H19.692V118.154h472.615V492.308
			z M492.308,98.462H19.692V19.692h472.615V98.462z"/>
	</g>
</g>
<g>
	<g>
		<circle cx="59.077" cy="59.077" r="19.692"/>
	</g>
</g>
<g>
	<g>
		<circle cx="137.846" cy="59.077" r="19.692"/>
	</g>
</g>
<g>
	<g>
		<circle cx="216.615" cy="59.077" r="19.692"/>
	</g>
</g>
<g>
	<g>
		<path d="M452.923,147.692H59.077c-5.438,0-9.846,4.409-9.846,9.846v137.846c0,5.438,4.409,9.846,9.846,9.846h393.846
			c5.438,0,9.846-4.409,9.846-9.846V157.538C462.769,152.101,458.361,147.692,452.923,147.692z M443.077,285.538H68.923V167.385
			h374.154V285.538z"/>
	</g>
</g>
<g>
	<g>
		<path d="M137.846,344.615H59.077c-5.438,0-9.846,4.409-9.846,9.846v98.462c0,5.438,4.409,9.846,9.846,9.846h78.769
			c5.438,0,9.846-4.409,9.846-9.846v-98.462C147.692,349.024,143.284,344.615,137.846,344.615z M128,443.077H68.923v-78.769H128
			V443.077z"/>
	</g>
</g>
<g>
	<g>
		<rect x="187.077" y="344.615" width="265.846" height="19.692"/>
	</g>
</g>
<g>
	<g>
		<rect x="187.077" y="393.846" width="265.846" height="19.692"/>
	</g>
</g>
<g>
	<g>
		<rect x="187.077" y="443.077" width="265.846" height="19.692"/>
	</g>
</g>
<g>
</g>
<g>
</g>
<g>
</g>
<g>
</g>
<g>
</g>
<g>
</g>
<g>
</g>
<g>
</g>
<g>
</g>
<g>
</g>
<g>
</g>
<g>
</g>
<g>
</g>
<g>
</g>
<g>
</g>
</svg>
