<?xml version="1.0" encoding="iso-8859-1"?>
<!-- Generator: Adobe Illustrator 19.0.0, SVG Export Plug-In . SVG Version: 6.00 Build 0)  -->
<svg version="1.1" id="Layer_1" xmlns="http://www.w3.org/2000/svg" xmlns:xlink="http://www.w3.org/1999/xlink" x="0px" y="0px"
	 viewBox="0 0 512 512" style="enable-background:new 0 0 512 512;" xml:space="preserve">
<g>
	<g>
		<circle cx="61.784" cy="132.433" r="17.652"/>
	</g>
</g>
<g>
	<g>
		<circle cx="114.741" cy="132.433" r="17.652"/>
	</g>
</g>
<g>
	<g>
		<circle cx="167.698" cy="132.433" r="17.652"/>
	</g>
</g>
<g>
	<g>
		<path d="M511.921,167.738V114.76c0-19.456-15.801-35.284-35.225-35.284H35.225C15.801,79.475,0,95.304,0,114.76v52.978v17.652
			v211.851c0,19.455,15.801,35.283,35.225,35.283h441.471c19.424,0,35.225-15.828,35.225-35.283V185.39H512v-17.652H511.921z
			 M494.269,397.241c0,9.722-7.884,17.631-17.573,17.631H35.225c-9.689,0-17.573-7.909-17.573-17.631V185.39h476.617V397.241z
			 M494.269,167.738H17.652V114.76c0-9.723,7.884-17.632,17.573-17.632h441.471c9.689,0,17.573,7.909,17.573,17.632V167.738z"/>
	</g>
</g>
<g>
	<g>
		<path d="M158.872,211.869H52.957c-4.874,0-8.826,3.952-8.826,8.826v141.22c0,4.874,3.952,8.826,8.826,8.826h105.915
			c4.874,0,8.826-3.952,8.826-8.826v-141.22C167.698,215.821,163.746,211.869,158.872,211.869z M150.046,353.089H61.784V229.521
			h88.262V353.089z"/>
	</g>
</g>
<g>
	<g>
		<path d="M308.918,211.869H203.003c-4.874,0-8.826,3.952-8.826,8.826v141.22c0,4.874,3.952,8.826,8.826,8.826h105.915
			c4.874,0,8.826-3.952,8.826-8.826v-141.22C317.744,215.821,313.792,211.869,308.918,211.869z M300.092,353.089H211.83V229.521
			h88.262V353.089z"/>
	</g>
</g>
<g>
	<g>
		<path d="M458.964,211.869H353.049c-4.874,0-8.826,3.952-8.826,8.826v141.22c0,4.874,3.952,8.826,8.826,8.826h105.915
			c4.874,0,8.826-3.952,8.826-8.826v-141.22C467.79,215.821,463.838,211.869,458.964,211.869z M450.138,353.089h-88.262V229.521
			h88.262V353.089z"/>
	</g>
</g>
<g>
</g>
<g>
</g>
<g>
</g>
<g>
</g>
<g>
</g>
<g>
</g>
<g>
</g>
<g>
</g>
<g>
</g>
<g>
</g>
<g>
</g>
<g>
</g>
<g>
</g>
<g>
</g>
<g>
</g>
</svg>
