<?xml version="1.0" encoding="iso-8859-1"?>
<!-- Generator: Adobe Illustrator 19.0.0, SVG Export Plug-In . SVG Version: 6.00 Build 0)  -->
<svg version="1.1" id="Layer_1" xmlns="http://www.w3.org/2000/svg" xmlns:xlink="http://www.w3.org/1999/xlink" x="0px" y="0px"
	 viewBox="0 0 512 512" style="enable-background:new 0 0 512 512;" xml:space="preserve">
<g>
	<g>
		<path d="M502.154,0H9.846C4.409,0,0,4.409,0,9.846v98.462v393.846C0,507.591,4.409,512,9.846,512h492.308
			c5.438,0,9.846-4.409,9.846-9.846V108.308V9.846C512,4.409,507.591,0,502.154,0z M492.308,492.308H19.692V118.154h472.615V492.308
			z M492.308,98.462H19.692V19.692h472.615V98.462z"/>
	</g>
</g>
<g>
	<g>
		<circle cx="59.077" cy="59.077" r="19.692"/>
	</g>
</g>
<g>
	<g>
		<circle cx="137.846" cy="59.077" r="19.692"/>
	</g>
</g>
<g>
	<g>
		<circle cx="216.615" cy="59.077" r="19.692"/>
	</g>
</g>
<g>
	<g>
		<path d="M196.923,167.385H59.077c-5.438,0-9.846,4.409-9.846,9.846v137.846c0,5.438,4.409,9.846,9.846,9.846h137.846
			c5.438,0,9.846-4.409,9.846-9.846V177.231C206.769,171.793,202.361,167.385,196.923,167.385z M187.077,305.231H68.923V187.077
			h118.154V305.231z"/>
	</g>
</g>
<g>
	<g>
		<rect x="59.077" y="374.154" width="393.846" height="19.692"/>
	</g>
</g>
<g>
	<g>
		<rect x="245.883" y="305.231" width="207.04" height="19.692"/>
	</g>
</g>
<g>
	<g>
		<rect x="245.883" y="236.308" width="207.04" height="19.692"/>
	</g>
</g>
<g>
	<g>
		<rect x="245.883" y="167.385" width="207.04" height="19.692"/>
	</g>
</g>
<g>
	<g>
		<rect x="59.077" y="443.077" width="393.846" height="19.692"/>
	</g>
</g>
<g>
</g>
<g>
</g>
<g>
</g>
<g>
</g>
<g>
</g>
<g>
</g>
<g>
</g>
<g>
</g>
<g>
</g>
<g>
</g>
<g>
</g>
<g>
</g>
<g>
</g>
<g>
</g>
<g>
</g>
</svg>
