<?xml version="1.0" encoding="iso-8859-1"?>
<!-- Generator: Adobe Illustrator 19.0.0, SVG Export Plug-In . SVG Version: 6.00 Build 0)  -->
<svg version="1.1" id="Layer_1" xmlns="http://www.w3.org/2000/svg" xmlns:xlink="http://www.w3.org/1999/xlink" x="0px" y="0px"
	 viewBox="0 0 512 512" style="enable-background:new 0 0 512 512;" xml:space="preserve">
<g>
	<g>
		<circle cx="114.741" cy="132.433" r="17.652"/>
	</g>
</g>
<g>
	<g>
		<circle cx="61.784" cy="132.433" r="17.652"/>
	</g>
</g>
<g>
	<g>
		<circle cx="167.698" cy="132.433" r="17.652"/>
	</g>
</g>
<g>
	<g>
		<path d="M511.921,167.738V114.76c0-19.456-15.801-35.284-35.225-35.284H35.225C15.801,79.475,0,95.304,0,114.76v52.978v17.652
			v211.851c0,19.455,15.801,35.283,35.225,35.283h441.471c19.424,0,35.225-15.828,35.225-35.283V185.39H512v-17.652H511.921z
			 M494.269,397.241c0,9.722-7.884,17.631-17.573,17.631H35.225c-9.689,0-17.573-7.909-17.573-17.631V185.39h476.617V397.241z
			 M494.269,167.738H17.652V114.76c0-9.723,7.884-17.632,17.573-17.632h441.471c9.689,0,17.573,7.909,17.573,17.632V167.738z"/>
	</g>
</g>
<g>
	<g>
		<path d="M141.22,229.521c-34.068,0-61.784,27.715-61.784,61.784c0,34.068,27.715,61.784,61.784,61.784
			c34.068,0,61.784-27.716,61.784-61.784C203.003,257.237,175.288,229.521,141.22,229.521z M141.22,335.436
			c-24.333,0-44.131-19.798-44.131-44.131s19.798-44.131,44.131-44.131s44.131,19.798,44.131,44.131S165.553,335.436,141.22,335.436
			z"/>
	</g>
</g>
<g>
	<g>
		<path d="M370.702,229.521c-34.068,0-61.784,27.715-61.784,61.784c0,34.068,27.716,61.784,61.784,61.784
			c34.068,0,61.784-27.716,61.784-61.784C432.485,257.237,404.77,229.521,370.702,229.521z M370.702,335.436
			c-24.333,0-44.131-19.798-44.131-44.131s19.798-44.131,44.131-44.131c24.333,0,44.131,19.798,44.131,44.131
			S395.035,335.436,370.702,335.436z"/>
	</g>
</g>
<g>
</g>
<g>
</g>
<g>
</g>
<g>
</g>
<g>
</g>
<g>
</g>
<g>
</g>
<g>
</g>
<g>
</g>
<g>
</g>
<g>
</g>
<g>
</g>
<g>
</g>
<g>
</g>
<g>
</g>
</svg>
