<?xml version="1.0" encoding="iso-8859-1"?>
<!-- Generator: Adobe Illustrator 19.0.0, SVG Export Plug-In . SVG Version: 6.00 Build 0)  -->
<svg version="1.1" id="Layer_1" xmlns="http://www.w3.org/2000/svg" xmlns:xlink="http://www.w3.org/1999/xlink" x="0px" y="0px"
	 viewBox="0 0 512 512" style="enable-background:new 0 0 512 512;" xml:space="preserve">
<g>
	<g>
		<path d="M456.779,0H55.221C33.075,0,15.059,17.975,15.059,40.071v60.321v20.078v351.458c0,22.096,18.016,40.071,40.162,40.071
			h401.559c22.146,0,40.162-17.975,40.162-40.071V120.471v-20.078V40.071C496.941,17.975,478.925,0,456.779,0z M476.863,471.929
			c0,11.025-9.01,19.993-20.083,19.993H55.221c-11.074,0-20.083-8.968-20.083-19.993V120.471h441.725V471.929z M476.863,100.392
			H35.137V40.071c0-11.025,9.01-19.993,20.083-19.993h401.559c11.073,0,20.083,8.968,20.083,19.993V100.392z"/>
	</g>
</g>
<g>
	<g>
		<circle cx="85.333" cy="60.235" r="20.078"/>
	</g>
</g>
<g>
	<g>
		<circle cx="145.569" cy="60.235" r="20.078"/>
	</g>
</g>
<g>
	<g>
		<circle cx="205.804" cy="60.235" r="20.078"/>
	</g>
</g>
<g>
	<g>
		<path d="M344.711,290.881c-3.487-2.874-5.805-6.774-6.956-11.7c-1.15-4.925-1.761-13.857-1.833-26.797
			c-0.072-12.943-0.557-22.252-1.456-27.932c-0.899-5.679-2.858-10.39-5.877-14.127c-3.02-3.74-6.83-6.4-11.431-7.981
			c-3.163-1.149-8.268-1.724-15.314-1.724h-6.039v16.931h3.343c6.83,0,11.413,0.952,13.75,2.857
			c2.337,1.904,3.757,5.268,4.26,10.084c0.359,2.731,0.539,11.108,0.539,25.128c0,15.458,1.69,26.439,5.069,32.947
			c3.379,6.505,9.202,11.735,17.47,15.691c-6.327,2.657-11.216,6.38-14.667,11.161c-3.451,4.781-5.752,11.161-6.902,19.142
			c-0.647,4.816-0.971,16.211-0.971,34.186c0,9.417-1.222,15.475-3.667,18.171c-2.445,2.696-7.405,4.043-14.882,4.043h-3.343v16.934
			h6.039c6.183,0,10.64-0.396,13.372-1.187c4.026-1.149,7.333-2.821,9.922-5.015c2.588-2.194,4.763-5.105,6.524-8.737
			c1.761-3.629,2.966-8.501,3.613-14.612c0.36-3.81,0.575-11.719,0.647-23.725c0.072-12.007,0.683-20.472,1.833-25.396
			c1.15-4.925,3.469-8.825,6.956-11.701c3.487-2.876,7.998-4.387,13.534-4.53v-17.579
			C352.709,295.268,348.198,293.758,344.711,290.881z"/>
	</g>
</g>
<g>
	<g>
		<path d="M194.485,293.148c3.128-4.172,5.338-10.102,6.632-17.795c0.791-4.962,1.186-16.858,1.186-35.697
			c0-9.347,1.222-15.367,3.667-18.063c2.445-2.695,7.405-4.044,14.882-4.044h3.343v-16.931h-6.039
			c-6.183,0-10.641,0.358-13.373,1.077c-4.026,1.152-7.333,2.824-9.922,5.015c-2.588,2.194-4.763,5.122-6.524,8.789
			c-1.761,3.667-2.966,8.521-3.613,14.559c-0.36,3.809-0.575,11.718-0.647,23.725c-0.072,12.007-0.683,20.49-1.833,25.452
			c-1.15,4.959-3.469,8.86-6.956,11.7c-3.487,2.839-7.998,4.332-13.534,4.475v17.579c5.536,0.143,10.047,1.654,13.534,4.53
			c3.487,2.876,5.805,6.794,6.956,11.753c1.15,4.962,1.761,13.912,1.833,26.855c0.072,12.941,0.557,22.249,1.456,27.929
			c0.899,5.679,2.858,10.373,5.877,14.076c3.02,3.702,6.83,6.38,11.431,8.034c3.163,1.149,8.268,1.727,15.314,1.727h6.039V390.96
			h-3.343c-6.83,0-11.413-0.969-13.75-2.911c-2.337-1.94-3.793-5.356-4.368-10.245c-0.287-2.661-0.431-11.001-0.431-25.02
			c0-15.455-1.779-26.582-5.338-33.376s-9.292-11.846-17.201-15.151C186.451,301.019,191.358,297.316,194.485,293.148z"/>
	</g>
</g>
<g>
</g>
<g>
</g>
<g>
</g>
<g>
</g>
<g>
</g>
<g>
</g>
<g>
</g>
<g>
</g>
<g>
</g>
<g>
</g>
<g>
</g>
<g>
</g>
<g>
</g>
<g>
</g>
<g>
</g>
</svg>
