<?xml version="1.0" encoding="iso-8859-1"?>
<!-- Generator: Adobe Illustrator 19.0.0, SVG Export Plug-In . SVG Version: 6.00 Build 0)  -->
<svg version="1.1" id="Layer_1" xmlns="http://www.w3.org/2000/svg" xmlns:xlink="http://www.w3.org/1999/xlink" x="0px" y="0px"
	 viewBox="0 0 512 512" style="enable-background:new 0 0 512 512;" xml:space="preserve">
<g>
	<g>
		<path d="M476.769,79.448H35.231C15.804,79.448,0,95.279,0,114.738v282.525c0,19.458,15.804,35.289,35.231,35.289H476.77
			c19.427,0,35.23-15.831,35.23-35.289V114.738C512,95.279,496.196,79.448,476.769,79.448z M494.345,397.263
			c0,9.723-7.885,17.634-17.576,17.634H35.231c-9.691,0-17.576-7.911-17.576-17.634V114.738c0-9.724,7.885-17.635,17.576-17.635
			H476.77c9.69,0,17.575,7.911,17.575,17.635V397.263z"/>
	</g>
</g>
<g>
	<g>
		<circle cx="335.448" cy="132.414" r="17.655"/>
	</g>
</g>
<g>
	<g>
		<path d="M450.207,167.724H61.793c-4.875,0-8.828,3.953-8.828,8.828v203.034c0,4.875,3.953,8.828,8.828,8.828h388.414
			c4.875,0,8.828-3.953,8.828-8.828V176.552C459.034,171.677,455.082,167.724,450.207,167.724z M441.379,370.759H70.621V185.379
			h370.759V370.759z"/>
	</g>
</g>
<g>
	<g>
		<circle cx="388.414" cy="132.414" r="17.655"/>
	</g>
</g>
<g>
	<g>
		<circle cx="441.379" cy="132.414" r="17.655"/>
	</g>
</g>
<g>
</g>
<g>
</g>
<g>
</g>
<g>
</g>
<g>
</g>
<g>
</g>
<g>
</g>
<g>
</g>
<g>
</g>
<g>
</g>
<g>
</g>
<g>
</g>
<g>
</g>
<g>
</g>
<g>
</g>
</svg>
