<?xml version="1.0" encoding="iso-8859-1"?>
<!-- Generator: Adobe Illustrator 19.0.0, SVG Export Plug-In . SVG Version: 6.00 Build 0)  -->
<svg version="1.1" id="Layer_1" xmlns="http://www.w3.org/2000/svg" xmlns:xlink="http://www.w3.org/1999/xlink" x="0px" y="0px"
	 viewBox="0 0 512 512" style="enable-background:new 0 0 512 512;" xml:space="preserve">
<g>
	<g>
		<path d="M489.931,414.897h-35.31v-35.31c0-4.875-3.953-8.828-8.828-8.828h-35.31c-4.875,0-8.828,3.953-8.828,8.828v35.31h-35.31
			c-4.875,0-8.828,3.953-8.828,8.828v35.31c0,4.875,3.953,8.828,8.828,8.828h35.31v35.31c0,4.875,3.953,8.828,8.828,8.828h35.31
			c4.875,0,8.828-3.953,8.828-8.828v-35.31h35.31c4.875,0,8.828-3.953,8.828-8.828v-35.31
			C498.759,418.849,494.806,414.897,489.931,414.897z M481.103,450.207h-35.31c-4.875,0-8.828,3.953-8.828,8.828v35.31H419.31
			v-35.31c0-4.875-3.953-8.828-8.828-8.828h-35.31v-17.655h35.31c4.875,0,8.828-3.953,8.828-8.828v-35.31h17.655v35.31
			c0,4.875,3.953,8.828,8.828,8.828h35.31V450.207z"/>
	</g>
</g>
<g>
	<g>
		<path d="M463.436,0H48.564C29.087,0,13.241,15.804,13.241,35.231v53.045v17.655v370.838C13.241,496.196,29.068,512,48.52,512
			h273.687c4.875,0,8.828-3.953,8.828-8.828c0-4.875-3.953-8.828-8.828-8.828H48.52c-9.718,0-17.624-7.884-17.624-17.576V105.931
			h450.207v247.172c0,4.875,3.953,8.828,8.828,8.828s8.828-3.953,8.828-8.828V105.931V88.276V35.28
			C498.759,15.828,482.913,0,463.436,0z M481.103,88.276H30.897V35.231c0-9.692,7.926-17.576,17.667-17.576h414.873
			c9.741,0,17.667,7.907,17.667,17.625V88.276z"/>
	</g>
</g>
<g>
	<g>
		<circle cx="75.035" cy="52.966" r="17.655"/>
	</g>
</g>
<g>
	<g>
		<circle cx="128" cy="52.966" r="17.655"/>
	</g>
</g>
<g>
	<g>
		<circle cx="180.966" cy="52.966" r="17.655"/>
	</g>
</g>
<g>
	<g>
		<path d="M251.586,194.207c-58.411,0-105.931,47.519-105.931,105.931c0,58.412,47.52,105.931,105.931,105.931
			s105.931-47.519,105.931-105.931C357.517,241.726,309.997,194.207,251.586,194.207z M251.586,388.414
			c-48.676,0-88.276-39.601-88.276-88.276s39.6-88.276,88.276-88.276s88.276,39.601,88.276,88.276
			C339.862,348.813,300.262,388.414,251.586,388.414z"/>
	</g>
</g>
<g>
	<g>
		<path d="M310.794,302.724c-3.448-3.448-9.037-3.448-12.485,0l-37.896,37.895V238.345c0-4.875-3.953-8.828-8.828-8.828
			c-4.875,0-8.828,3.953-8.828,8.828v102.274l-37.896-37.895c-3.448-3.448-9.037-3.448-12.485,0c-3.447,3.446-3.447,9.037,0,12.483
			l52.966,52.966l0,0c0.41,0.41,0.862,0.776,1.346,1.099c0.22,0.147,0.458,0.248,0.688,0.373c0.275,0.151,0.539,0.316,0.831,0.437
			c0.295,0.122,0.603,0.193,0.907,0.282c0.248,0.073,0.484,0.169,0.741,0.22c0.571,0.114,1.149,0.175,1.729,0.175
			c0.58,0,1.159-0.061,1.729-0.174c0.257-0.051,0.494-0.147,0.742-0.22c0.304-0.089,0.611-0.159,0.906-0.281
			c0.293-0.121,0.558-0.288,0.834-0.439c0.229-0.125,0.466-0.226,0.685-0.372c0.484-0.323,0.936-0.69,1.346-1.099c0,0,0,0,0,0
			l52.966-52.966C314.241,311.761,314.241,306.17,310.794,302.724z"/>
	</g>
</g>
<g>
</g>
<g>
</g>
<g>
</g>
<g>
</g>
<g>
</g>
<g>
</g>
<g>
</g>
<g>
</g>
<g>
</g>
<g>
</g>
<g>
</g>
<g>
</g>
<g>
</g>
<g>
</g>
<g>
</g>
</svg>
