<?xml version="1.0" encoding="iso-8859-1"?>
<!-- Generator: Adobe Illustrator 19.0.0, SVG Export Plug-In . SVG Version: 6.00 Build 0)  -->
<svg version="1.1" id="Layer_1" xmlns="http://www.w3.org/2000/svg" xmlns:xlink="http://www.w3.org/1999/xlink" x="0px" y="0px"
	 viewBox="0 0 512 512" style="enable-background:new 0 0 512 512;" xml:space="preserve">
<g>
	<g>
		<path d="M456.779,0H55.221C33.075,0,15.059,17.975,15.059,40.071v60.321v20.078v351.458c0,22.096,18.016,40.071,40.162,40.071
			h401.559c22.146,0,40.162-17.975,40.162-40.071V120.471v-20.078V40.071C496.941,17.975,478.925,0,456.779,0z M476.863,471.929
			c0,11.025-9.01,19.993-20.083,19.993H55.221c-11.074,0-20.083-8.968-20.083-19.993V120.471h441.725V471.929z M476.863,100.392
			H35.137V40.071c0-11.025,9.01-19.993,20.083-19.993h401.559c11.073,0,20.083,8.968,20.083,19.993V100.392z"/>
	</g>
</g>
<g>
	<g>
		<circle cx="85.333" cy="60.235" r="20.078"/>
	</g>
</g>
<g>
	<g>
		<circle cx="145.569" cy="60.235" r="20.078"/>
	</g>
</g>
<g>
	<g>
		<circle cx="205.804" cy="60.235" r="20.078"/>
	</g>
</g>
<g>
	<g>
		<path d="M404.821,293.007l-70.275-50.196c-4.516-3.224-10.782-2.179-14.005,2.333c-3.223,4.512-2.178,10.782,2.333,14.005
			l58.838,42.027l-58.838,42.027c-4.511,3.223-5.556,9.493-2.333,14.005c1.96,2.743,5.045,4.205,8.178,4.205
			c2.02,0,4.058-0.608,5.827-1.871l70.275-50.196c2.637-1.885,4.203-4.926,4.203-8.169S407.458,294.892,404.821,293.007z"/>
	</g>
</g>
<g>
	<g>
		<path d="M193.998,343.203l-58.838-42.027l58.838-42.027c4.511-3.223,5.556-9.493,2.333-14.005s-9.491-5.558-14.005-2.333
			l-70.274,50.196c-2.637,1.885-4.203,4.926-4.203,8.169s1.566,6.284,4.203,8.169l70.274,50.196c1.77,1.263,3.808,1.871,5.827,1.871
			c3.132,0,6.218-1.462,8.178-4.205C199.554,352.696,198.509,346.427,193.998,343.203z"/>
	</g>
</g>
<g>
	<g>
		<path d="M267.078,370.778c-0.826-2-1.98-3.742-3.458-5.22c-1.478-1.479-3.22-2.653-5.22-3.524c-2-0.871-4.133-1.305-6.395-1.305
			s-4.394,0.434-6.395,1.305c-2.001,0.871-3.72,2.045-5.155,3.524c-1.436,1.478-2.567,3.22-3.393,5.22
			c-0.826,2.001-1.24,4.134-1.24,6.395c0,2.349,0.413,4.502,1.24,6.46c0.826,1.958,1.958,3.677,3.393,5.155
			c1.436,1.479,3.154,2.633,5.155,3.458c2.001,0.826,4.133,1.24,6.395,1.24s4.395-0.414,6.395-1.24c2-0.826,3.742-1.98,5.22-3.458
			c1.478-1.478,2.633-3.197,3.458-5.155c0.826-1.958,1.24-4.111,1.24-6.46C268.318,374.912,267.904,372.779,267.078,370.778z"/>
	</g>
</g>
<g>
	<g>
		<path d="M301.337,227.217c-2.437-5.221-5.785-9.657-10.049-13.312c-4.264-3.654-9.331-6.483-15.204-8.483
			c-5.873-2-12.245-3.001-19.12-3.001c-5.22,0-10.071,0.499-14.552,1.501c-4.481,1.001-8.657,2.372-12.529,4.111
			c-3.872,1.74-7.439,3.742-10.702,6.004c-3.263,2.261-6.243,4.656-8.94,7.178l6.134,9.788c1.218,2,2.915,3.002,5.09,3.002
			c1.044,0,2.371-0.653,3.981-1.958c1.61-1.305,3.72-2.741,6.33-4.307c2.61-1.566,5.808-3.002,9.592-4.307
			c3.785-1.305,8.331-1.958,13.638-1.958c3.915,0,7.592,0.565,11.028,1.697c3.436,1.132,6.418,2.764,8.94,4.895
			c2.522,2.131,4.525,4.721,6.003,7.765c1.478,3.044,2.219,6.437,2.219,10.18c0,5.221-0.979,9.746-2.936,13.573
			c-1.958,3.827-4.437,7.243-7.439,10.245s-6.222,5.743-9.658,8.222c-3.436,2.48-6.656,4.96-9.658,7.439
			c-3.002,2.48-5.481,5.132-7.439,7.961c-1.958,2.829-2.936,6.069-2.936,9.723v1.436l1.566,21.665h15.922l2.349-19.968
			c0.349-2.871,1.631-5.481,3.85-7.83c2.219-2.349,4.872-4.699,7.961-7.048s6.418-4.851,9.984-7.504
			c3.566-2.653,6.852-5.785,9.853-9.396c3.002-3.612,5.481-7.808,7.439-12.594c1.958-4.786,2.936-10.483,2.936-17.097
			C304.991,238.31,303.774,232.438,301.337,227.217z"/>
	</g>
</g>
<g>
</g>
<g>
</g>
<g>
</g>
<g>
</g>
<g>
</g>
<g>
</g>
<g>
</g>
<g>
</g>
<g>
</g>
<g>
</g>
<g>
</g>
<g>
</g>
<g>
</g>
<g>
</g>
<g>
</g>
</svg>
