<?xml version="1.0" encoding="iso-8859-1"?>
<!-- Generator: Adobe Illustrator 19.0.0, SVG Export Plug-In . SVG Version: 6.00 Build 0)  -->
<svg version="1.1" id="Layer_1" xmlns="http://www.w3.org/2000/svg" xmlns:xlink="http://www.w3.org/1999/xlink" x="0px" y="0px"
	 viewBox="0 0 512 512" style="enable-background:new 0 0 512 512;" xml:space="preserve">
<g>
	<g>
		<path d="M411.429,0H100.571c-0.37,0-0.721,0.066-1.079,0.109c-0.205,0.024-0.411,0.023-0.614,0.062
			c-0.661,0.124-1.298,0.309-1.901,0.567c-0.035,0.015-0.067,0.04-0.102,0.055c-0.57,0.253-1.104,0.566-1.605,0.925
			c-0.049,0.035-0.107,0.053-0.156,0.09c-0.122,0.091-0.211,0.213-0.327,0.309c-0.349,0.287-0.679,0.59-0.982,0.926
			c-0.162,0.18-0.311,0.363-0.458,0.555c-0.261,0.339-0.492,0.696-0.704,1.072c-0.114,0.201-0.23,0.396-0.328,0.605
			c-0.198,0.422-0.349,0.865-0.482,1.32c-0.054,0.184-0.127,0.358-0.169,0.546c-0.145,0.646-0.236,1.313-0.236,2.003v411.429
			c0,4.038,2.648,7.597,6.516,8.758l274.286,82.286c0.863,0.258,1.747,0.385,2.626,0.385c1.944,0,3.863-0.619,5.459-1.808
			c2.319-1.724,3.685-4.444,3.685-7.335v-73.143h27.429c5.049,0,9.143-4.094,9.143-9.143V9.143C420.571,4.094,416.478,0,411.429,0z
			 M365.714,490.569l-256-76.8V21.431l256,76.8V490.569z M402.286,411.429H384v-320c0-4.038-2.648-7.597-6.516-8.758L162.868,18.286
			h239.418V411.429z"/>
	</g>
</g>
<g>
	<g>
		<path d="M269.714,182.857c-11.837,0-23.074,4.099-32,11.483c-8.926-7.384-20.163-11.483-32-11.483
			c-27.728,0-50.286,22.558-50.286,50.286c0,15.861,18.986,40.327,34.913,58.059c10.245,11.407,35.373,37.941,47.373,37.941
			s37.127-26.534,47.373-37.941C301.014,273.47,320,249.003,320,233.143C320,205.415,297.442,182.857,269.714,182.857z
			 M237.714,310.406c-14.56-7.644-64-61.845-64-77.263c0-17.645,14.355-32,32-32c9.705,0,18.779,4.334,24.893,11.89
			c1.736,2.145,4.347,3.392,7.107,3.392c2.76,0,5.372-1.247,7.107-3.392c6.114-7.556,15.187-11.89,24.893-11.89
			c17.645,0,32,14.355,32,32C301.714,248.561,252.275,302.762,237.714,310.406z"/>
	</g>
</g>
<g>
</g>
<g>
</g>
<g>
</g>
<g>
</g>
<g>
</g>
<g>
</g>
<g>
</g>
<g>
</g>
<g>
</g>
<g>
</g>
<g>
</g>
<g>
</g>
<g>
</g>
<g>
</g>
<g>
</g>
</svg>
