<?xml version="1.0" encoding="iso-8859-1"?>
<!-- Generator: Adobe Illustrator 19.0.0, SVG Export Plug-In . SVG Version: 6.00 Build 0)  -->
<svg version="1.1" id="Layer_1" xmlns="http://www.w3.org/2000/svg" xmlns:xlink="http://www.w3.org/1999/xlink" x="0px" y="0px"
	 viewBox="0 0 512 512" style="enable-background:new 0 0 512 512;" xml:space="preserve">
<g>
	<g>
		<path d="M407.518,0H104.482C81.439,0,62.694,18.719,62.694,41.73v428.542c0,23.009,18.745,41.728,41.788,41.728h303.036
			c23.043,0,41.788-18.719,41.788-41.728V41.73C449.306,18.719,430.561,0,407.518,0z M428.408,470.272
			c0,11.486-9.372,20.83-20.89,20.83H104.482c-11.518,0-20.89-9.344-20.89-20.83V41.73c0-11.486,9.372-20.832,20.89-20.832h303.036
			c11.518,0,20.89,9.346,20.89,20.832V470.272z"/>
	</g>
</g>
<g>
	<g>
		<path d="M323.918,261.224c0-40.332-32.811-73.143-73.143-73.143c-40.332,0-73.143,32.811-73.143,73.143
			c0,19.934,8.024,38.022,21.001,51.227c-0.033,0.34-0.103,0.669-0.103,1.018v156.735c0,4.226,2.546,8.036,6.451,9.653
			c3.895,1.615,8.398,0.724,11.385-2.264l34.408-34.408l34.408,34.408c1.997,1.999,4.671,3.06,7.39,3.06
			c1.344,0,2.704-0.26,3.995-0.796c3.906-1.617,6.451-5.427,6.451-9.653V313.469c0-0.348-0.069-0.677-0.103-1.018
			C315.894,299.246,323.918,281.158,323.918,261.224z M282.122,444.978l-23.959-23.959c-4.076-4.079-10.699-4.079-14.775,0
			l-23.959,23.959V327.296c9.506,4.528,20.134,7.071,31.347,7.071s21.84-2.543,31.347-7.071V444.978z M250.776,313.469
			c-28.809,0-52.245-23.438-52.245-52.245s23.436-52.245,52.245-52.245c28.809,0,52.245,23.438,52.245,52.245
			S279.584,313.469,250.776,313.469z"/>
	</g>
</g>
<g>
	<g>
		<rect x="125.388" y="135.837" width="261.224" height="20.898"/>
	</g>
</g>
<g>
	<g>
		<rect x="156.735" y="94.041" width="198.531" height="20.898"/>
	</g>
</g>
<g>
</g>
<g>
</g>
<g>
</g>
<g>
</g>
<g>
</g>
<g>
</g>
<g>
</g>
<g>
</g>
<g>
</g>
<g>
</g>
<g>
</g>
<g>
</g>
<g>
</g>
<g>
</g>
<g>
</g>
</svg>
