<?xml version="1.0" encoding="iso-8859-1"?>
<!-- Generator: Adobe Illustrator 19.0.0, SVG Export Plug-In . SVG Version: 6.00 Build 0)  -->
<svg version="1.1" id="Layer_1" xmlns="http://www.w3.org/2000/svg" xmlns:xlink="http://www.w3.org/1999/xlink" x="0px" y="0px"
	 viewBox="0 0 512 512" style="enable-background:new 0 0 512 512;" xml:space="preserve">
<g>
	<g>
		<path d="M440.324,138.557L309.885,3.018C308.029,1.09,305.469,0,302.791,0H108.38C86.623,0,68.923,17.653,68.923,39.351v433.298
			c0,21.698,17.699,39.351,39.457,39.351h295.24c21.757,0,39.457-17.653,39.457-39.351V145.385
			C443.077,142.839,442.091,140.392,440.324,138.557z M305.231,26.581L412.31,137.846H305.231V26.581z M423.385,472.649
			c0,10.84-8.865,19.659-19.764,19.659H108.38c-10.899,0-19.764-8.818-19.764-19.659V39.351c0-10.84,8.865-19.659,19.764-19.659
			h177.159v128c0,5.438,4.409,9.846,9.846,9.846h128V472.649z"/>
	</g>
</g>
<g>
	<g>
		<path d="M244.211,332.943v21.681h0h10.789c-0.211,6.418-1.27,11.335-3.173,14.757c-1.905,3.419-4.867,6.011-8.886,7.774
			l5.29,8.143c6.134-2.678,10.612-6.469,13.433-11.37c2.821-4.901,4.231-11.335,4.231-19.303v-21.681H244.211z"/>
	</g>
</g>
<g>
	<g>
		<path d="M150.255,287.672c3.067-4.088,5.236-9.907,6.506-17.452c0.775-4.864,1.162-16.534,1.162-35.008
			c0-9.167,1.199-15.072,3.596-17.718c2.398-2.644,7.265-3.965,14.597-3.965h3.278v-16.606h-5.922
			c-6.065,0-10.437,0.352-13.115,1.058c-3.951,1.127-7.193,2.767-9.733,4.918c-2.538,2.149-4.669,5.024-6.397,8.62
			c-1.728,3.597-2.91,8.354-3.544,14.277c-0.352,3.739-0.564,11.495-0.633,23.272c-0.072,11.773-0.672,20.095-1.799,24.96
			c-1.127,4.867-3.402,8.692-6.821,11.476c-3.422,2.786-7.845,4.248-13.275,4.391v17.238c5.43,0.143,9.853,1.622,13.275,4.443
			c3.419,2.821,5.694,6.663,6.821,11.53c1.127,4.864,1.728,13.644,1.799,26.336c0.069,12.692,0.546,21.824,1.428,27.395
			c0.881,5.57,2.801,10.171,5.762,13.802c2.964,3.633,6.701,6.26,11.213,7.879c3.104,1.13,8.108,1.694,15.02,1.694h5.922v-16.605
			h-3.278c-6.698,0-11.195-0.953-13.487-2.856c-2.292-1.905-3.72-5.253-4.284-10.048c-0.28-2.609-0.423-10.788-0.423-24.539
			c0-15.16-1.745-26.072-5.236-32.736s-9.113-11.616-16.869-14.861C142.376,295.394,147.187,291.764,150.255,287.672z"/>
	</g>
</g>
<g>
	<g>
		<path d="M378.572,285.453c-3.419-2.821-5.694-6.647-6.823-11.476c-1.127-4.832-1.725-13.593-1.797-26.284
			c-0.072-12.692-0.546-21.824-1.428-27.394c-0.881-5.571-2.803-10.189-5.764-13.857c-2.961-3.665-6.698-6.274-11.213-7.827
			c-3.102-1.127-8.108-1.691-15.017-1.691h-5.922v16.606h3.279c6.698,0,11.192,0.935,13.484,2.803
			c2.292,1.868,3.685,5.164,4.177,9.888c0.354,2.68,0.529,10.894,0.529,24.645c0,15.16,1.657,25.932,4.972,32.313
			c3.313,6.38,9.024,11.51,17.135,15.39c-6.206,2.609-11.001,6.257-14.385,10.946c-3.385,4.689-5.642,10.946-6.769,18.774
			c-0.635,4.723-0.953,15.902-0.953,33.529c0,9.238-1.199,15.178-3.596,17.824c-2.398,2.644-7.262,3.966-14.594,3.966h-3.279v16.605
			h5.922c6.063,0,10.434-0.389,13.115-1.164c3.948-1.127,7.193-2.767,9.731-4.918c2.538-2.149,4.672-5.007,6.4-8.566
			c1.728-3.562,2.908-8.339,3.542-14.333c0.352-3.737,0.564-11.493,0.635-23.269c0.072-11.776,0.67-20.079,1.797-24.908
			c1.13-4.829,3.405-8.654,6.823-11.476c3.42-2.821,7.845-4.3,13.273-4.443v-17.239
			C386.417,289.752,381.992,288.273,378.572,285.453z"/>
	</g>
</g>
<g>
	<g>
		<rect x="244.209" y="242.289" width="21.684" height="21.681"/>
	</g>
</g>
<g>
</g>
<g>
</g>
<g>
</g>
<g>
</g>
<g>
</g>
<g>
</g>
<g>
</g>
<g>
</g>
<g>
</g>
<g>
</g>
<g>
</g>
<g>
</g>
<g>
</g>
<g>
</g>
<g>
</g>
</svg>
