<?xml version="1.0" encoding="iso-8859-1"?>
<!-- Generator: Adobe Illustrator 19.0.0, SVG Export Plug-In . SVG Version: 6.00 Build 0)  -->
<svg version="1.1" id="Layer_1" xmlns="http://www.w3.org/2000/svg" xmlns:xlink="http://www.w3.org/1999/xlink" x="0px" y="0px"
	 viewBox="0 0 512 512" style="enable-background:new 0 0 512 512;" xml:space="preserve">
<g>
	<g>
		<path d="M494.478,138.557L364.038,3.018C362.183,1.09,359.623,0,356.945,0H162.534c-21.757,0-39.457,17.694-39.457,39.442v137.789
			H44.289c-16.276,0-29.519,13.239-29.519,29.513v147.744c0,16.273,13.243,29.512,29.519,29.512h78.788v88.627
			c0,21.71,17.699,39.373,39.457,39.373h295.24c21.757,0,39.457-17.653,39.457-39.351V145.385
			C497.231,142.839,496.245,140.392,494.478,138.557z M359.385,26.581l107.079,111.265H359.385V26.581z M44.289,364.308
			c-5.418,0-9.827-4.405-9.827-9.82V206.744c0-5.415,4.409-9.821,9.827-9.821h265.882c5.421,0,9.829,4.406,9.829,9.821v147.744
			c0,5.415-4.409,9.82-9.829,9.82H44.289z M477.538,472.649c0,10.84-8.865,19.659-19.764,19.659h-295.24
			c-10.899,0-19.764-8.828-19.764-19.68V384h167.401c16.279,0,29.522-13.239,29.522-29.512V206.744
			c0-16.274-13.243-29.513-29.522-29.513H142.769V39.442c0-10.891,8.865-19.75,19.764-19.75h177.159v128
			c0,5.438,4.409,9.846,9.846,9.846h128V472.649z"/>
	</g>
</g>
<g>
	<g>
		<path d="M287.951,286.819c-2.25-3.636-5.364-6.501-9.344-8.598c-3.983-2.095-10.127-4.123-18.434-6.085
			c-8.308-1.962-13.538-3.847-15.692-5.654c-1.691-1.423-2.538-3.137-2.538-5.135c0-2.193,0.903-3.944,2.713-5.251
			c2.806-2.038,6.69-3.057,11.653-3.057c4.807,0,8.414,0.953,10.818,2.855c2.403,1.903,3.97,5.029,4.701,9.376l17.076-0.751
			c-0.268-7.769-3.087-13.981-8.45-18.633c-5.367-4.655-13.356-6.981-23.973-6.981c-6.499,0-12.047,0.979-16.642,2.942
			c-4.599,1.962-8.116,4.817-10.558,8.566c-2.444,3.751-3.665,7.781-3.665,12.089c0,6.69,2.597,12.364,7.789,17.019
			c3.692,3.306,10.117,6.095,19.269,8.364c7.117,1.77,11.676,3.001,13.674,3.692c2.925,1.039,4.972,2.26,6.144,3.663
			c1.174,1.406,1.76,3.106,1.76,5.108c0,3.114-1.394,5.836-4.182,8.162c-2.789,2.326-6.934,3.49-12.433,3.49
			c-5.192,0-9.317-1.307-12.374-3.924c-3.057-2.614-5.088-6.71-6.087-12.288l-16.615,1.615c1.115,9.462,4.539,16.665,10.269,21.607
			c5.731,4.94,13.942,7.412,24.635,7.412c7.345,0,13.48-1.029,18.403-3.087c4.923-2.055,8.731-5.201,11.424-9.433
			c2.693-4.229,4.04-8.768,4.04-13.615C291.328,294.942,290.204,290.452,287.951,286.819z"/>
	</g>
</g>
<g>
	<g>
		<path d="M209.145,286.819c-2.25-3.636-5.367-6.501-9.347-8.598c-3.98-2.095-10.124-4.123-18.432-6.085
			c-8.308-1.962-13.538-3.847-15.692-5.654c-1.694-1.423-2.54-3.137-2.54-5.135c0-2.193,0.906-3.944,2.713-5.251
			c2.809-2.038,6.693-3.057,11.653-3.057c4.81,0,8.414,0.953,10.818,2.855c2.403,1.903,3.97,5.029,4.702,9.376l17.078-0.751
			c-0.271-7.769-3.087-13.981-8.453-18.633c-5.366-4.655-13.356-6.981-23.97-6.981c-6.501,0-12.049,0.979-16.645,2.942
			c-4.596,1.962-8.115,4.817-10.558,8.566c-2.442,3.751-3.662,7.781-3.662,12.089c0,6.69,2.594,12.364,7.788,17.019
			c3.692,3.306,10.115,6.095,19.269,8.364c7.114,1.77,11.672,3.001,13.671,3.692c2.924,1.039,4.972,2.26,6.147,3.663
			c1.171,1.406,1.757,3.106,1.757,5.108c-0.001,3.114-1.394,5.836-4.183,8.162c-2.789,2.326-6.931,3.49-12.433,3.49
			c-5.191,0-9.317-1.307-12.374-3.924c-3.058-2.614-5.086-6.71-6.088-12.288l-16.615,1.615c1.118,9.462,4.539,16.665,10.27,21.607
			c5.73,4.94,13.942,7.412,24.635,7.412c7.348,0,13.482-1.029,18.405-3.087c4.923-2.055,8.731-5.201,11.422-9.433
			c2.693-4.229,4.039-8.768,4.039-13.615C212.519,294.942,211.394,290.452,209.145,286.819z"/>
	</g>
</g>
<g>
	<g>
		<path d="M116.867,293.826c-1.425,6.193-3.771,10.733-7.04,13.615c-3.269,2.885-7.173,4.328-11.712,4.328
			c-6.154,0-11.153-2.27-14.998-6.806c-3.848-4.539-5.77-12.156-5.77-22.848c0-10.075,1.952-17.364,5.856-21.863
			c3.904-4.502,8.989-6.753,15.259-6.753c4.539,0,8.394,1.27,11.567,3.808c3.173,2.54,5.26,6.001,6.26,10.385l16.903-4.04
			c-1.922-6.769-4.807-11.96-8.652-15.576c-6.461-6.114-14.865-9.172-25.211-9.172c-11.847,0-21.406,3.894-28.675,11.683
			c-7.269,7.789-10.904,18.72-10.904,32.798c0,13.307,3.616,23.798,10.848,31.471c7.23,7.673,16.46,11.51,27.692,11.51
			c9.076,0,16.566-2.24,22.472-6.722c5.903-4.48,10.124-11.335,12.662-20.566L116.867,293.826z"/>
	</g>
</g>
<g>
</g>
<g>
</g>
<g>
</g>
<g>
</g>
<g>
</g>
<g>
</g>
<g>
</g>
<g>
</g>
<g>
</g>
<g>
</g>
<g>
</g>
<g>
</g>
<g>
</g>
<g>
</g>
<g>
</g>
</svg>
