<?xml version="1.0" encoding="iso-8859-1"?>
<!-- Generator: Adobe Illustrator 19.0.0, SVG Export Plug-In . SVG Version: 6.00 Build 0)  -->
<svg version="1.1" id="Layer_1" xmlns="http://www.w3.org/2000/svg" xmlns:xlink="http://www.w3.org/1999/xlink" x="0px" y="0px"
	 viewBox="0 0 512 512" style="enable-background:new 0 0 512 512;" xml:space="preserve">
<g>
	<g>
		<path d="M479.934,0H32.067C14.357,0,0,14.357,0,32.066v447.867C0,497.643,14.357,512,32.067,512h447.867
			C497.643,512,512,497.643,512,479.934V32.066C512,14.357,497.643,0,479.934,0z M490.667,479.934
			c0,5.928-4.805,10.733-10.733,10.733H32.067c-5.928,0-10.733-4.805-10.733-10.733V32.066c0-5.928,4.805-10.733,10.733-10.733
			h447.867c5.928,0,10.733,4.805,10.733,10.733V479.934z"/>
	</g>
</g>
<g>
	<g>
		<polygon points="459.093,218.24 415.574,358.4 379.093,218.24 357.654,218.24 319.253,359.68 276.373,218.24 257.173,218.24 
			307.733,384 330.773,384 367.574,244.8 368.214,244.8 404.373,384 424.854,384 478.613,218.24 		"/>
	</g>
</g>
<g>
	<g>
		<path d="M233.654,243.36c-1.174-9.066-3.201-18.027-6.08-26.88c-2.88-8.853-6.774-17.28-11.68-25.28
			c-4.906-8-11.2-14.773-18.88-20.32c-5.333-3.841-10.826-6.934-16.48-9.28c-5.653-2.347-11.466-4.107-17.44-5.28
			c-5.973-1.174-12.053-1.921-18.24-2.24c-6.187-0.32-12.48-0.48-18.88-0.48h-78.72V384h78.72c7.68,0,15.253-0.373,22.72-1.12
			c7.467-0.747,14.667-2.133,21.6-4.16c6.933-2.027,13.547-4.854,19.84-8.48c6.293-3.627,12.107-8.427,17.44-14.4
			c5.333-5.76,9.76-12.107,13.28-19.04c3.519-6.934,6.346-14.187,8.48-21.76c2.133-7.573,3.68-15.307,4.64-23.2
			c0.96-7.893,1.44-15.68,1.44-23.36C235.413,260.8,234.827,252.426,233.654,243.36z M211.893,293.12
			c-1.173,8.534-3.2,16.693-6.08,24.481c-2.88,7.786-6.773,14.986-11.68,21.6c-4.907,6.613-11.2,11.84-18.88,15.68
			c-8.96,4.693-17.76,7.626-26.4,8.799c-8.64,1.174-17.867,1.761-27.68,1.761h-52.16V172.16h52.16c9.6,0,19.093,0.533,28.48,1.6
			c9.387,1.067,17.494,3.413,24.32,7.04c8.107,4.266,14.72,9.653,19.84,16.16c5.121,6.506,9.174,13.653,12.16,21.439
			c2.987,7.787,5.014,16,6.08,24.64s1.6,17.121,1.6,25.44C213.654,276.373,213.066,284.587,211.893,293.12z"/>
	</g>
</g>
<g>
</g>
<g>
</g>
<g>
</g>
<g>
</g>
<g>
</g>
<g>
</g>
<g>
</g>
<g>
</g>
<g>
</g>
<g>
</g>
<g>
</g>
<g>
</g>
<g>
</g>
<g>
</g>
<g>
</g>
</svg>
