<?xml version="1.0" encoding="iso-8859-1"?>
<!-- Generator: Adobe Illustrator 19.0.0, SVG Export Plug-In . SVG Version: 6.00 Build 0)  -->
<svg version="1.1" id="Layer_1" xmlns="http://www.w3.org/2000/svg" xmlns:xlink="http://www.w3.org/1999/xlink" x="0px" y="0px"
	 viewBox="0 0 512 512" style="enable-background:new 0 0 512 512;" xml:space="preserve">
<g>
	<g>
		<path d="M383.552,128.448l-52.245-52.245c-4.082-4.079-10.696-4.079-14.778,0c-4.08,4.082-4.08,10.696,0,14.778l44.857,44.856
			l-44.857,44.856c-4.08,4.082-4.08,10.696,0,14.778c2.041,2.04,4.714,3.06,7.389,3.06s5.348-1.02,7.389-3.06l52.245-52.245
			C387.633,139.144,387.633,132.529,383.552,128.448z"/>
	</g>
</g>
<g>
	<g>
		<path d="M150.613,135.837l44.857-44.856c4.08-4.082,4.08-10.696,0-14.778c-4.082-4.079-10.696-4.079-14.778,0l-52.245,52.245
			c-4.08,4.082-4.08,10.696,0,14.778l52.245,52.245c2.041,2.04,4.714,3.06,7.389,3.06c2.675,0,5.348-1.02,7.389-3.06
			c4.08-4.082,4.08-10.696,0-14.778L150.613,135.837z"/>
	</g>
</g>
<g>
	<g>
		<path d="M407.518,0H104.482C81.44,0,62.694,18.719,62.694,41.73v428.542c0,23.009,18.746,41.728,41.788,41.728h303.036
			c23.042,0,41.788-18.719,41.788-41.728V41.73C449.306,18.719,430.56,0,407.518,0z M428.408,470.272
			c0,11.486-9.371,20.83-20.89,20.83H104.482c-11.519,0-20.89-9.344-20.89-20.83V41.73c0-11.486,9.371-20.832,20.89-20.832h303.036
			c11.519,0,20.89,9.346,20.89,20.832V470.272z"/>
	</g>
</g>
<g>
</g>
<g>
</g>
<g>
</g>
<g>
</g>
<g>
</g>
<g>
</g>
<g>
</g>
<g>
</g>
<g>
</g>
<g>
</g>
<g>
</g>
<g>
</g>
<g>
</g>
<g>
</g>
<g>
</g>
</svg>
