<?xml version="1.0" encoding="iso-8859-1"?>
<!-- Generator: Adobe Illustrator 19.0.0, SVG Export Plug-In . SVG Version: 6.00 Build 0)  -->
<svg version="1.1" id="Layer_1" xmlns="http://www.w3.org/2000/svg" xmlns:xlink="http://www.w3.org/1999/xlink" x="0px" y="0px"
	 viewBox="0 0 512 512" style="enable-background:new 0 0 512 512;" xml:space="preserve">
<g>
	<g>
		<path d="M407.518,0H104.48C81.439,0,62.694,18.719,62.694,41.73v428.542c0,23.009,18.745,41.728,41.786,41.728h303.038
			c23.043,0,41.788-18.719,41.788-41.728V41.73C449.306,18.719,430.561,0,407.518,0z M104.48,491.102
			c-11.518,0-20.888-9.344-20.888-20.83V194.046l96.788,105.587c1.98,2.16,4.773,3.388,7.701,3.388h0.02
			c2.939-0.006,5.735-1.247,7.712-3.42l39.192-43.11l45.291,126.82l-127.39,107.791H104.48z M428.408,470.272
			c0,11.486-9.372,20.83-20.89,20.83H185.26l114.061-96.513c3.324-2.813,4.554-7.392,3.089-11.491l-51.476-144.131l43.731-48.103
			l133.742,76.425V470.272z M428.408,243.219L297.755,168.56c-4.253-2.431-9.62-1.578-12.916,2.043l-96.791,106.469L83.592,163.12
			V41.73c0-11.486,9.37-20.832,20.888-20.832h303.038c11.518,0,20.89,9.346,20.89,20.832V243.219z"/>
	</g>
</g>
<g>
</g>
<g>
</g>
<g>
</g>
<g>
</g>
<g>
</g>
<g>
</g>
<g>
</g>
<g>
</g>
<g>
</g>
<g>
</g>
<g>
</g>
<g>
</g>
<g>
</g>
<g>
</g>
<g>
</g>
</svg>
