<?xml version="1.0" encoding="iso-8859-1"?>
<!-- Generator: Adobe Illustrator 19.0.0, SVG Export Plug-In . SVG Version: 6.00 Build 0)  -->
<svg version="1.1" id="Layer_1" xmlns="http://www.w3.org/2000/svg" xmlns:xlink="http://www.w3.org/1999/xlink" x="0px" y="0px"
	 viewBox="0 0 512 512" style="enable-background:new 0 0 512 512;" xml:space="preserve">
<g>
	<g>
		<path d="M407.518,0H104.482C81.439,0,62.694,18.719,62.694,41.73v229.944v20.898v177.7c0,23.009,18.745,41.728,41.788,41.728
			h303.036c23.043,0,41.788-18.719,41.788-41.728v-177.7v-20.898V41.73C449.306,18.719,430.561,0,407.518,0z M428.408,271.673
			h-31.347v20.898h31.347v177.7c0,11.486-9.372,20.83-20.89,20.83H104.482c-11.518,0-20.89-9.344-20.89-20.83v-177.7h41.796v-20.898
			H83.592V41.73c0-11.486,9.372-20.832,20.89-20.832h303.036c11.518,0,20.89,9.346,20.89,20.832V271.673z"/>
	</g>
</g>
<g>
	<g>
		<rect x="114.939" y="73.143" width="156.735" height="20.898"/>
	</g>
</g>
<g>
	<g>
		<rect x="114.939" y="125.388" width="83.592" height="20.898"/>
	</g>
</g>
<g>
	<g>
		<rect x="313.469" y="271.673" width="62.694" height="20.898"/>
	</g>
</g>
<g>
	<g>
		<rect x="146.286" y="271.673" width="62.694" height="20.898"/>
	</g>
</g>
<g>
	<g>
		<rect x="229.878" y="271.673" width="62.694" height="20.898"/>
	</g>
</g>
<g>
</g>
<g>
</g>
<g>
</g>
<g>
</g>
<g>
</g>
<g>
</g>
<g>
</g>
<g>
</g>
<g>
</g>
<g>
</g>
<g>
</g>
<g>
</g>
<g>
</g>
<g>
</g>
<g>
</g>
</svg>
