<?xml version="1.0" encoding="iso-8859-1"?>
<!-- Generator: Adobe Illustrator 19.0.0, SVG Export Plug-In . SVG Version: 6.00 Build 0)  -->
<svg version="1.1" id="Layer_1" xmlns="http://www.w3.org/2000/svg" xmlns:xlink="http://www.w3.org/1999/xlink" x="0px" y="0px"
	 viewBox="0 0 512 512" style="enable-background:new 0 0 512 512;" xml:space="preserve">
<g>
	<g>
		<path d="M393.482,341.333c-47.053,0-85.333,38.28-85.333,85.333S346.428,512,393.482,512c47.053,0,85.333-38.28,85.333-85.333
			S440.535,341.333,393.482,341.333z M393.482,493.037c-36.597,0-66.37-29.773-66.37-66.37c0-36.597,29.773-66.37,66.37-66.37
			c36.597,0,66.37,29.773,66.37,66.37C459.852,463.264,430.079,493.037,393.482,493.037z"/>
	</g>
</g>
<g>
	<g>
		<path d="M393.482,369.778c-20.912,0-37.926,17.014-37.926,37.926c0,5.236,4.245,9.481,9.482,9.481s9.481-4.245,9.481-9.481
			c0-10.456,8.507-18.963,18.963-18.963c10.456,0,18.963,8.507,18.963,18.963c0,10.456-8.507,18.963-18.963,18.963
			c-5.236,0-9.482,4.245-9.482,9.481v9.482c0,5.236,4.245,9.481,9.482,9.481s9.481-4.245,9.481-9.481v-1.199
			c16.34-4.222,28.444-19.088,28.444-36.727C431.407,386.792,414.394,369.778,393.482,369.778z"/>
	</g>
</g>
<g>
	<g>
		<path d="M402.773,472.224c-0.118-0.616-0.308-1.208-0.546-1.778c-0.236-0.569-0.521-1.113-0.852-1.634
			c-0.357-0.523-0.759-0.998-1.185-1.447c-2.206-2.204-5.477-3.225-8.558-2.583c-0.616,0.118-1.208,0.285-1.778,0.544
			c-0.569,0.238-1.113,0.523-1.634,0.854c-0.523,0.354-1.021,0.759-1.447,1.185c-0.426,0.449-0.831,0.923-1.185,1.447
			c-0.331,0.521-0.616,1.065-0.854,1.634c-0.236,0.569-0.426,1.162-0.544,1.778c-0.118,0.616-0.189,1.234-0.189,1.849
			c0,0.616,0.072,1.231,0.19,1.85c0.118,0.616,0.308,1.208,0.544,1.778c0.238,0.567,0.523,1.113,0.854,1.634
			c0.354,0.521,0.759,1.019,1.185,1.447c1.755,1.752,4.194,2.773,6.708,2.773c2.512,0,4.954-1.021,6.708-2.773
			c0.426-0.428,0.829-0.926,1.185-1.447c0.331-0.521,0.616-1.067,0.852-1.634c0.238-0.569,0.428-1.162,0.546-1.778
			c0.118-0.618,0.19-1.234,0.19-1.849C402.963,473.458,402.891,472.84,402.773,472.224z"/>
	</g>
</g>
<g>
	<g>
		<path d="M428.477,128.81L296.479,2.627C294.715,0.942,292.368,0,289.928,0H42.667c-5.236,0-9.482,4.245-9.482,9.482v493.037
			c0,5.236,4.245,9.482,9.482,9.482h256c5.236,0,9.481-4.245,9.481-9.482c0-5.236-4.245-9.481-9.481-9.481H52.148V18.963h227.556
			v123.259c0,5.236,4.245,9.481,9.482,9.481h123.259v161.185c0,5.236,4.245,9.481,9.481,9.481s9.482-4.245,9.482-9.481V135.664
			C431.407,133.076,430.349,130.6,428.477,128.81z M298.667,132.741V30.952l106.479,101.789H298.667z"/>
	</g>
</g>
<g>
	<g>
		<path d="M313.544,267.167l-123.259-85.333c-2.903-2.007-6.674-2.236-9.796-0.602c-3.123,1.637-5.081,4.873-5.081,8.398v170.667
			c0,3.525,1.958,6.761,5.081,8.398c1.384,0.724,2.893,1.083,4.4,1.083c1.893,0,3.782-0.567,5.396-1.685l123.259-85.333
			c2.56-1.771,4.086-4.685,4.086-7.796C317.63,271.852,316.104,268.938,313.544,267.167z M194.37,342.201V207.725l97.12,67.238
			L194.37,342.201z"/>
	</g>
</g>
<g>
</g>
<g>
</g>
<g>
</g>
<g>
</g>
<g>
</g>
<g>
</g>
<g>
</g>
<g>
</g>
<g>
</g>
<g>
</g>
<g>
</g>
<g>
</g>
<g>
</g>
<g>
</g>
<g>
</g>
</svg>
