<?xml version="1.0" encoding="iso-8859-1"?>
<!-- Generator: Adobe Illustrator 19.0.0, SVG Export Plug-In . SVG Version: 6.00 Build 0)  -->
<svg version="1.1" id="Layer_1" xmlns="http://www.w3.org/2000/svg" xmlns:xlink="http://www.w3.org/1999/xlink" x="0px" y="0px"
	 viewBox="0 0 512 512" style="enable-background:new 0 0 512 512;" xml:space="preserve">
<g>
	<g>
		<path d="M384,73.846H128c-5.438,0-9.846,4.409-9.846,9.846c0,5.438,4.409,9.846,9.846,9.846h256c5.438,0,9.846-4.409,9.846-9.846
			C393.846,78.255,389.438,73.846,384,73.846z"/>
	</g>
</g>
<g>
	<g>
		<path d="M403.692,142.769H108.308c-5.438,0-9.846,4.409-9.846,9.846c0,5.438,4.409,9.846,9.846,9.846h295.385
			c5.438,0,9.846-4.409,9.846-9.846C413.538,147.178,409.13,142.769,403.692,142.769z"/>
	</g>
</g>
<g>
	<g>
		<path d="M423.385,211.692H88.615c-5.438,0-9.846,4.409-9.846,9.846s4.409,9.846,9.846,9.846h334.769
			c5.438,0,9.846-4.409,9.846-9.846S428.822,211.692,423.385,211.692z"/>
	</g>
</g>
<g>
	<g>
		<path d="M443.077,280.615H68.923c-5.438,0-9.846,4.409-9.846,9.846c0,5.438,4.409,9.846,9.846,9.846h374.154
			c5.438,0,9.846-4.409,9.846-9.846C452.923,285.024,448.514,280.615,443.077,280.615z"/>
	</g>
</g>
<g>
	<g>
		<path d="M511.779,377.027c-0.002-0.01,0-0.02-0.003-0.031L433.007,12.688c-0.978-4.531-4.986-7.765-9.623-7.765H88.615
			c-4.637,0-8.644,3.234-9.623,7.766L0.224,376.996c-0.002,0.01-0.001,0.02-0.003,0.031C0.08,377.689,0,378.373,0,379.077v118.154
			c0,5.438,4.409,9.846,9.846,9.846h492.308c5.438,0,9.846-4.409,9.846-9.846V379.077C512,378.373,511.92,377.689,511.779,377.027z
			 M96.56,24.615h318.88l74.512,344.615H22.048L96.56,24.615z M492.308,487.385H19.692v-19.692h472.615V487.385z M492.308,448
			H19.692v-19.692h472.615V448z M492.308,408.615H19.692v-19.692h472.615V408.615z"/>
	</g>
</g>
<g>
</g>
<g>
</g>
<g>
</g>
<g>
</g>
<g>
</g>
<g>
</g>
<g>
</g>
<g>
</g>
<g>
</g>
<g>
</g>
<g>
</g>
<g>
</g>
<g>
</g>
<g>
</g>
<g>
</g>
</svg>
