<?xml version="1.0" encoding="iso-8859-1"?>
<!-- Generator: Adobe Illustrator 19.0.0, SVG Export Plug-In . SVG Version: 6.00 Build 0)  -->
<svg version="1.1" id="Layer_1" xmlns="http://www.w3.org/2000/svg" xmlns:xlink="http://www.w3.org/1999/xlink" x="0px" y="0px"
	 viewBox="0 0 512 512" style="enable-background:new 0 0 512 512;" xml:space="preserve">
<g>
	<g>
		<path d="M438.857,0H73.143c-5.77,0-10.449,4.679-10.449,10.449v491.102c0,5.77,4.679,10.449,10.449,10.449h219.429
			c0.699,0,1.391-0.071,2.067-0.208c0.429-0.087,0.831-0.24,1.239-0.378c0.236-0.079,0.483-0.125,0.712-0.221
			c0.443-0.185,0.849-0.43,1.258-0.671c0.176-0.104,0.367-0.179,0.538-0.292c0.558-0.375,1.078-0.801,1.552-1.273
			c0.007-0.006,0.015-0.012,0.022-0.018l146.286-146.286c0.481-0.481,0.913-1.011,1.293-1.578c0.098-0.145,0.159-0.31,0.249-0.459
			c0.26-0.432,0.517-0.866,0.713-1.336c0.088-0.211,0.129-0.438,0.203-0.653c0.146-0.427,0.304-0.848,0.394-1.297
			c0.136-0.675,0.208-1.367,0.208-2.066V10.449C449.306,4.679,444.628,0,438.857,0z M303.02,476.324v-110.61h110.611L303.02,476.324
			z M428.408,344.816H292.571c-5.77,0-10.449,4.679-10.449,10.449v135.837H83.592V20.898h344.816V344.816z"/>
	</g>
</g>
<g>
	<g>
		<path d="M231.441,185.316c11.994-13.033,19.334-30.412,19.334-49.48c0-40.332-32.811-73.143-73.143-73.143
			c-40.332,0-73.143,32.811-73.143,73.143s32.811,73.143,73.143,73.143c13.71,0,26.547-3.8,37.526-10.39l73.974,73.973
			l14.778-14.777L231.441,185.316z M177.633,188.082c-28.809,0-52.245-23.438-52.245-52.245s23.436-52.245,52.245-52.245
			c28.809,0,52.245,23.438,52.245,52.245S206.441,188.082,177.633,188.082z"/>
	</g>
</g>
<g>
</g>
<g>
</g>
<g>
</g>
<g>
</g>
<g>
</g>
<g>
</g>
<g>
</g>
<g>
</g>
<g>
</g>
<g>
</g>
<g>
</g>
<g>
</g>
<g>
</g>
<g>
</g>
<g>
</g>
</svg>
