<?xml version="1.0" encoding="iso-8859-1"?>
<!-- Generator: Adobe Illustrator 19.0.0, SVG Export Plug-In . SVG Version: 6.00 Build 0)  -->
<svg version="1.1" id="Layer_1" xmlns="http://www.w3.org/2000/svg" xmlns:xlink="http://www.w3.org/1999/xlink" x="0px" y="0px"
	 viewBox="0 0 512 512" style="enable-background:new 0 0 512 512;" xml:space="preserve">
<g>
	<g>
		<path d="M399.57,297.219l-68.923-49.231c-4.428-3.162-10.577-2.137-13.736,2.288c-3.161,4.426-2.136,10.575,2.289,13.736
			l57.707,41.219L319.2,346.45c-4.424,3.161-5.45,9.31-2.289,13.736c1.922,2.69,4.948,4.124,8.02,4.124
			c1.981,0,3.98-0.596,5.715-1.835l68.923-49.231c2.587-1.849,4.123-4.832,4.123-8.012S402.156,299.067,399.57,297.219z"/>
	</g>
</g>
<g>
	<g>
		
			<rect x="174.459" y="295.382" transform="matrix(0.2747 -0.9615 0.9615 0.2747 -107.8224 467.5143)" width="163.048" height="19.692"/>
	</g>
</g>
<g>
	<g>
		<path d="M192.801,346.45l-57.707-41.219l57.707-41.219c4.424-3.161,5.45-9.31,2.289-13.736c-3.162-4.426-9.309-5.451-13.736-2.289
			l-68.923,49.231c-2.587,1.849-4.123,4.832-4.123,8.012s1.536,6.163,4.123,8.012l68.923,49.231
			c1.736,1.239,3.734,1.835,5.715,1.835c3.072,0,6.098-1.434,8.02-4.124C198.25,355.76,197.225,349.611,192.801,346.45z"/>
	</g>
</g>
<g>
	<g>
		<path d="M440.326,138.557L309.886,3.018C308.029,1.09,305.468,0,302.791,0h-194.41C86.624,0,68.923,17.653,68.923,39.351v433.298
			c0,21.698,17.701,39.351,39.458,39.351h295.238c21.757,0,39.458-17.653,39.458-39.351V145.385
			C443.077,142.839,442.09,140.392,440.326,138.557z M305.231,26.581L412.31,137.846H305.231V26.581z M423.385,472.649
			c0,10.84-8.867,19.659-19.766,19.659H108.381c-10.899,0-19.766-8.818-19.766-19.659V39.351c0-10.84,8.867-19.659,19.766-19.659
			h177.157v128c0,5.438,4.409,9.846,9.846,9.846h128V472.649z"/>
	</g>
</g>
<g>
</g>
<g>
</g>
<g>
</g>
<g>
</g>
<g>
</g>
<g>
</g>
<g>
</g>
<g>
</g>
<g>
</g>
<g>
</g>
<g>
</g>
<g>
</g>
<g>
</g>
<g>
</g>
<g>
</g>
</svg>
