<?xml version="1.0" encoding="iso-8859-1"?>
<!-- Generator: Adobe Illustrator 19.0.0, SVG Export Plug-In . SVG Version: 6.00 Build 0)  -->
<svg version="1.1" id="Layer_1" xmlns="http://www.w3.org/2000/svg" xmlns:xlink="http://www.w3.org/1999/xlink" x="0px" y="0px"
	 viewBox="0 0 512 512" style="enable-background:new 0 0 512 512;" xml:space="preserve">
<g>
	<g>
		<path d="M461.815,419.963l-66.37-66.37c-3.699-3.704-9.708-3.704-13.407,0c-3.704,3.701-3.704,9.706,0,13.407l50.183,50.185
			H322.37c-5.236,0-9.481,4.245-9.481,9.482s4.245,9.481,9.481,9.481h109.85l-50.183,50.185c-3.704,3.701-3.704,9.706,0,13.407
			c1.849,1.852,4.278,2.778,6.704,2.778c2.426,0,4.854-0.926,6.704-2.778l66.37-66.37
			C465.518,429.669,465.518,423.664,461.815,419.963z"/>
	</g>
</g>
<g>
	<g>
		<path d="M442.699,128.81L310.701,2.627C308.938,0.942,306.59,0,304.151,0H56.889c-5.236,0-9.482,4.245-9.482,9.482v493.037
			c0,5.236,4.245,9.482,9.482,9.482h256c5.236,0,9.481-4.245,9.481-9.482c0-5.236-4.245-9.481-9.481-9.481H66.37V18.963h227.556
			v123.259c0,5.236,4.245,9.481,9.482,9.481h123.259v161.185c0,5.236,4.245,9.481,9.481,9.481s9.482-4.245,9.482-9.481V135.664
			C445.63,133.076,444.572,130.6,442.699,128.81z M312.889,132.741V30.952l106.479,101.789H312.889z"/>
	</g>
</g>
<g>
	<g>
		<path d="M327.766,267.167l-123.259-85.333c-2.9-2.007-6.671-2.236-9.796-0.602c-3.123,1.637-5.081,4.873-5.081,8.398v170.667
			c0,3.525,1.958,6.761,5.081,8.398c1.384,0.724,2.893,1.083,4.4,1.083c1.893,0,3.782-0.567,5.396-1.685l123.259-85.333
			c2.56-1.771,4.086-4.685,4.086-7.796C331.852,271.852,330.326,268.938,327.766,267.167z M208.593,342.201V207.725l97.12,67.238
			L208.593,342.201z"/>
	</g>
</g>
<g>
</g>
<g>
</g>
<g>
</g>
<g>
</g>
<g>
</g>
<g>
</g>
<g>
</g>
<g>
</g>
<g>
</g>
<g>
</g>
<g>
</g>
<g>
</g>
<g>
</g>
<g>
</g>
<g>
</g>
</svg>
