<?xml version="1.0" encoding="iso-8859-1"?>
<!-- Generator: Adobe Illustrator 19.0.0, SVG Export Plug-In . SVG Version: 6.00 Build 0)  -->
<svg version="1.1" id="Layer_1" xmlns="http://www.w3.org/2000/svg" xmlns:xlink="http://www.w3.org/1999/xlink" x="0px" y="0px"
	 viewBox="0 0 512 512" style="enable-background:new 0 0 512 512;" xml:space="preserve">
<g>
	<g>
		<path d="M438.857,0H73.143c-5.77,0-10.449,4.679-10.449,10.449v491.102c0,5.77,4.679,10.449,10.449,10.449h219.429
			c0.699,0,1.392-0.071,2.066-0.208c0.43-0.087,0.832-0.24,1.24-0.378c0.236-0.079,0.482-0.125,0.712-0.221
			c0.443-0.185,0.85-0.43,1.259-0.671c0.176-0.104,0.366-0.179,0.537-0.292c0.557-0.375,1.078-0.801,1.552-1.273
			c0.006-0.006,0.015-0.012,0.022-0.018l146.286-146.286c0.481-0.481,0.913-1.011,1.293-1.578c0.097-0.145,0.159-0.31,0.25-0.459
			c0.259-0.432,0.517-0.866,0.712-1.336c0.088-0.211,0.13-0.438,0.204-0.653c0.146-0.427,0.304-0.848,0.394-1.297
			c0.137-0.675,0.208-1.367,0.208-2.066V10.449C449.306,4.679,444.628,0,438.857,0z M303.02,476.324v-110.61h110.611L303.02,476.324
			z M428.408,344.816H292.571c-5.77,0-10.449,4.679-10.449,10.449v135.837H83.592V20.898h344.816V344.816z"/>
	</g>
</g>
<g>
	<g>
		<path d="M250.776,135.837H125.388c-5.77,0-10.449,4.679-10.449,10.449v94.041c0,5.77,4.679,10.449,10.449,10.449h125.388
			c5.77,0,10.449-4.679,10.449-10.449v-94.041C261.225,140.515,256.546,135.837,250.776,135.837z M240.327,229.878h-104.49v-73.143
			h104.49V229.878z"/>
	</g>
</g>
<g>
	<g>
		<path d="M229.089,102.889c-5.826-17.792-22.321-29.746-41.051-29.746c-18.918,0-35.464,12.109-41.173,30.129
			c-1.742,5.501,1.306,11.374,6.806,13.117c1.051,0.332,2.112,0.49,3.158,0.49c4.434,0,8.549-2.844,9.959-7.296
			c2.944-9.296,11.485-15.542,21.25-15.542c9.668,0,18.184,6.168,21.189,15.351c1.799,5.485,7.707,8.467,13.181,6.678
			C227.893,114.276,230.885,108.374,229.089,102.889z"/>
	</g>
</g>
<g>
</g>
<g>
</g>
<g>
</g>
<g>
</g>
<g>
</g>
<g>
</g>
<g>
</g>
<g>
</g>
<g>
</g>
<g>
</g>
<g>
</g>
<g>
</g>
<g>
</g>
<g>
</g>
<g>
</g>
</svg>
