<?xml version="1.0" encoding="iso-8859-1"?>
<!-- Generator: Adobe Illustrator 19.0.0, SVG Export Plug-In . SVG Version: 6.00 Build 0)  -->
<svg version="1.1" id="Layer_1" xmlns="http://www.w3.org/2000/svg" xmlns:xlink="http://www.w3.org/1999/xlink" x="0px" y="0px"
	 viewBox="0 0 512 512" style="enable-background:new 0 0 512 512;" xml:space="preserve">
<g>
	<g>
		<path d="M407.518,0H104.482C81.439,0,62.694,18.719,62.694,41.73v428.542c0,23.009,18.745,41.728,41.788,41.728h303.036
			c23.043,0,41.788-18.719,41.788-41.728V41.73C449.306,18.719,430.561,0,407.518,0z M428.408,470.272
			c0,11.486-9.372,20.83-20.89,20.83H104.482c-11.518,0-20.89-9.344-20.89-20.83V265.917l77.474-68.866l48.196,202.43
			c0.964,4.044,4.232,7.134,8.324,7.866c0.617,0.11,1.232,0.163,1.844,0.163c3.452,0,6.732-1.714,8.691-4.653l74.214-111.32
			L335.745,350c1.663,2.912,4.622,4.848,7.957,5.205c3.321,0.366,6.638-0.907,8.883-3.399l75.824-84.249V470.272z M428.408,236.316
			l-81.691,90.768l-34.625-60.594c-1.796-3.144-5.092-5.134-8.712-5.259c-3.615-0.117-7.046,1.634-9.054,4.647L224.038,371.31
			L177.35,175.213c-0.852-3.576-3.521-6.441-7.026-7.546c-3.505-1.106-7.337-0.287-10.082,2.156l-76.65,68.134V41.73
			c0-11.486,9.372-20.832,20.89-20.832h303.036c11.518,0,20.89,9.346,20.89,20.832V236.316z"/>
	</g>
</g>
<g>
</g>
<g>
</g>
<g>
</g>
<g>
</g>
<g>
</g>
<g>
</g>
<g>
</g>
<g>
</g>
<g>
</g>
<g>
</g>
<g>
</g>
<g>
</g>
<g>
</g>
<g>
</g>
<g>
</g>
</svg>
