<?xml version="1.0" encoding="iso-8859-1"?>
<!-- Generator: Adobe Illustrator 19.0.0, SVG Export Plug-In . SVG Version: 6.00 Build 0)  -->
<svg version="1.1" id="Layer_1" xmlns="http://www.w3.org/2000/svg" xmlns:xlink="http://www.w3.org/1999/xlink" x="0px" y="0px"
	 viewBox="0 0 512 512" style="enable-background:new 0 0 512 512;" xml:space="preserve">
<g>
	<g>
		<path d="M438.857,0H73.143c-5.77,0-10.449,4.679-10.449,10.449v491.102c0,5.77,4.679,10.449,10.449,10.449h219.429
			c0.7,0,1.392-0.071,2.068-0.209c0.42-0.084,0.812-0.235,1.212-0.367c0.246-0.082,0.502-0.13,0.74-0.23
			c0.428-0.18,0.821-0.418,1.218-0.65c0.189-0.111,0.394-0.191,0.577-0.314c0.49-0.329,0.937-0.712,1.363-1.117
			c0.066-0.062,0.146-0.107,0.211-0.172l146.286-146.286c0.065-0.065,0.11-0.144,0.173-0.211c0.405-0.426,0.788-0.874,1.117-1.364
			c0.122-0.181,0.202-0.385,0.312-0.574c0.233-0.398,0.473-0.792,0.652-1.222c0.098-0.235,0.146-0.487,0.227-0.73
			c0.135-0.403,0.286-0.799,0.371-1.222c0.136-0.676,0.208-1.367,0.208-2.067V10.449C449.306,4.679,444.628,0,438.857,0z
			 M303.02,476.325V365.714h110.611L303.02,476.325z M428.408,344.816H292.571c-5.77,0-10.449,4.679-10.449,10.449v135.837H83.592
			V20.898h344.816V344.816z"/>
	</g>
</g>
<g>
	<g>
		<polygon points="256.371,87.547 241.595,72.77 189.61,124.755 137.89,73.034 123.114,87.811 174.834,139.531 123.114,191.251 
			137.89,206.028 189.61,154.309 241.33,206.028 256.107,191.251 204.387,139.531 		"/>
	</g>
</g>
<g>
</g>
<g>
</g>
<g>
</g>
<g>
</g>
<g>
</g>
<g>
</g>
<g>
</g>
<g>
</g>
<g>
</g>
<g>
</g>
<g>
</g>
<g>
</g>
<g>
</g>
<g>
</g>
<g>
</g>
</svg>
