<?xml version="1.0" encoding="iso-8859-1"?>
<!-- Generator: Adobe Illustrator 19.0.0, SVG Export Plug-In . SVG Version: 6.00 Build 0)  -->
<svg version="1.1" id="Layer_1" xmlns="http://www.w3.org/2000/svg" xmlns:xlink="http://www.w3.org/1999/xlink" x="0px" y="0px"
	 viewBox="0 0 512 512" style="enable-background:new 0 0 512 512;" xml:space="preserve">
<g>
	<g>
		<path d="M401.959,297.219l-68.923-49.231c-4.426-3.16-10.575-2.137-13.736,2.288c-3.161,4.426-2.137,10.575,2.289,13.736
			l57.707,41.219l-57.707,41.219c-4.426,3.161-5.45,9.31-2.289,13.736c1.921,2.69,4.947,4.124,8.019,4.124
			c1.981,0,3.981-0.596,5.716-1.835l68.923-49.231c2.587-1.849,4.123-4.832,4.123-8.012
			C406.082,302.05,404.546,299.067,401.959,297.219z"/>
	</g>
</g>
<g>
	<g>
		<path d="M195.19,346.45l-57.707-41.219l57.707-41.219c4.426-3.161,5.45-9.31,2.289-13.736c-3.159-4.426-9.31-5.451-13.736-2.289
			l-68.923,49.231c-2.587,1.849-4.123,4.832-4.123,8.012s1.536,6.163,4.123,8.012l68.923,49.231
			c1.736,1.239,3.736,1.835,5.716,1.835c3.07,0,6.099-1.434,8.019-4.124C200.64,355.76,199.616,349.611,195.19,346.45z"/>
	</g>
</g>
<g>
	<g>
		<path d="M266.866,373.494c-0.81-1.961-1.942-3.67-3.393-5.12c-1.45-1.45-3.158-2.602-5.12-3.456
			c-1.962-0.855-4.054-1.28-6.272-1.28c-2.218,0-4.31,0.426-6.272,1.28c-1.962,0.854-3.648,2.006-5.056,3.456
			c-1.408,1.45-2.518,3.158-3.328,5.12c-0.81,1.962-1.216,4.054-1.216,6.272c0,2.304,0.406,4.416,1.216,6.336
			c0.81,1.92,1.919,3.606,3.328,5.056c1.408,1.45,3.094,2.582,5.056,3.392c1.962,0.81,4.054,1.216,6.272,1.216
			c2.218,0,4.31-0.406,6.272-1.216c1.962-0.81,3.67-1.942,5.12-3.392c1.45-1.45,2.582-3.136,3.393-5.056
			c0.81-1.92,1.216-4.032,1.216-6.336C268.081,377.548,267.675,375.456,266.866,373.494z"/>
	</g>
</g>
<g>
	<g>
		<path d="M300.465,232.694c-2.39-5.12-5.674-9.472-9.856-13.056c-4.182-3.584-9.152-6.358-14.912-8.32
			c-5.759-1.962-12.01-2.944-18.752-2.944c-5.12,0-9.878,0.49-14.272,1.472c-4.394,0.982-8.49,2.326-12.288,4.032
			c-3.798,1.706-7.296,3.67-10.496,5.888c-3.2,2.218-6.122,4.566-8.768,7.04l6.016,9.6c1.194,1.962,2.858,2.944,4.992,2.944
			c1.024,0,2.326-0.64,3.904-1.92c1.578-1.28,3.648-2.688,6.208-4.224c2.56-1.536,5.697-2.944,9.408-4.224
			c3.712-1.28,8.17-1.92,13.376-1.92c3.84,0,7.446,0.554,10.816,1.664c3.37,1.111,6.294,2.71,8.768,4.801
			c2.474,2.09,4.438,4.63,5.888,7.616c1.45,2.986,2.176,6.314,2.176,9.984c0,5.12-0.96,9.558-2.88,13.312s-4.352,7.104-7.296,10.048
			c-2.943,2.944-6.102,5.632-9.472,8.064c-3.37,2.432-6.528,4.864-9.472,7.296c-2.944,2.432-5.376,5.034-7.296,7.808
			c-1.92,2.774-2.88,5.952-2.88,9.536v1.408l1.536,21.248h15.616l2.304-19.584c0.343-2.816,1.6-5.375,3.776-7.68
			c2.176-2.304,4.778-4.608,7.808-6.912c3.03-2.304,6.294-4.758,9.792-7.36c3.498-2.602,6.72-5.674,9.664-9.216
			c2.944-3.542,5.376-7.658,7.296-12.352c1.919-4.694,2.88-10.282,2.88-16.768C304.049,243.574,302.855,237.814,300.465,232.694z"/>
	</g>
</g>
<g>
	<g>
		<path d="M440.324,138.557L309.885,3.018C308.029,1.09,305.469,0,302.791,0H108.38C86.623,0,68.923,17.653,68.923,39.351v433.298
			c0,21.698,17.699,39.351,39.457,39.351h295.24c21.757,0,39.457-17.653,39.457-39.351V145.385
			C443.077,142.839,442.091,140.392,440.324,138.557z M305.231,26.581L412.31,137.846H305.231V26.581z M423.385,472.649
			c0,10.84-8.865,19.659-19.764,19.659H108.38c-10.899,0-19.764-8.818-19.764-19.659V39.351c0-10.84,8.865-19.659,19.764-19.659
			h177.159v128c0,5.438,4.409,9.846,9.846,9.846h128V472.649z"/>
	</g>
</g>
<g>
</g>
<g>
</g>
<g>
</g>
<g>
</g>
<g>
</g>
<g>
</g>
<g>
</g>
<g>
</g>
<g>
</g>
<g>
</g>
<g>
</g>
<g>
</g>
<g>
</g>
<g>
</g>
<g>
</g>
</svg>
