<?xml version="1.0" encoding="iso-8859-1"?>
<!-- Generator: Adobe Illustrator 19.0.0, SVG Export Plug-In . SVG Version: 6.00 Build 0)  -->
<svg version="1.1" id="Layer_1" xmlns="http://www.w3.org/2000/svg" xmlns:xlink="http://www.w3.org/1999/xlink" x="0px" y="0px"
	 viewBox="0 0 512 512" style="enable-background:new 0 0 512 512;" xml:space="preserve">
<g>
	<g>
		<path d="M501.078,497.493l-94.815-151.704c-1.733-2.771-4.771-4.456-8.041-4.456c-3.27,0-6.308,1.685-8.041,4.456l-94.815,151.704
			c-1.826,2.924-1.924,6.606-0.252,9.623c1.671,3.014,4.846,4.884,8.293,4.884h189.63c3.447,0,6.622-1.87,8.293-4.884
			C503.001,504.1,502.904,500.417,501.078,497.493z M320.514,493.037l77.708-124.333l77.708,124.333H320.514z"/>
	</g>
</g>
<g>
	<g>
		<path d="M398.222,398.222c-5.236,0-9.482,4.245-9.482,9.482v37.926c0,5.236,4.245,9.481,9.482,9.481s9.481-4.245,9.481-9.481
			v-37.926C407.704,402.468,403.458,398.222,398.222,398.222z"/>
	</g>
</g>
<g>
	<g>
		<path d="M407.514,472.224c-0.119-0.616-0.308-1.208-0.545-1.778c-0.237-0.569-0.522-1.113-0.854-1.634
			c-0.355-0.523-0.758-0.998-1.185-1.447c-2.204-2.204-5.475-3.201-8.557-2.583c-0.616,0.118-1.208,0.285-1.778,0.544
			c-0.568,0.238-1.113,0.523-1.635,0.854c-0.521,0.354-0.995,0.759-1.446,1.185c-0.427,0.449-0.83,0.923-1.185,1.447
			c-0.332,0.521-0.617,1.065-0.853,1.634c-0.237,0.569-0.427,1.162-0.546,1.778c-0.118,0.616-0.188,1.234-0.188,1.849
			c0,0.616,0.071,1.231,0.189,1.85c0.119,0.616,0.309,1.208,0.546,1.778c0.236,0.567,0.521,1.113,0.853,1.634
			c0.355,0.521,0.758,1.019,1.185,1.447c0.45,0.426,0.925,0.829,1.446,1.185c0.522,0.331,1.067,0.616,1.635,0.852
			c0.569,0.238,1.162,0.428,1.778,0.546c0.617,0.118,1.232,0.189,1.849,0.189c0.616,0,1.233-0.072,1.848-0.19
			c0.617-0.118,1.21-0.308,1.778-0.546c0.569-0.236,1.115-0.521,1.635-0.852c0.522-0.357,0.995-0.759,1.446-1.185
			c0.427-0.428,0.83-0.926,1.185-1.447c0.332-0.521,0.617-1.067,0.854-1.634c0.237-0.569,0.426-1.162,0.545-1.778
			c0.142-0.618,0.19-1.233,0.19-1.849C407.704,473.458,407.656,472.84,407.514,472.224z"/>
	</g>
</g>
<g>
	<g>
		<path d="M404.774,128.81L272.777,2.627C271.012,0.942,268.666,0,266.225,0H18.963c-5.236,0-9.481,4.245-9.481,9.482v493.037
			c0,5.236,4.245,9.482,9.481,9.482h256c5.236,0,9.482-4.245,9.482-9.482c0-5.236-4.245-9.481-9.482-9.481H28.444V18.963H256
			v123.259c0,5.236,4.245,9.481,9.482,9.481h123.259v161.185c0,5.236,4.245,9.481,9.482,9.481s9.481-4.245,9.481-9.481V135.664
			C407.704,133.076,406.645,130.6,404.774,128.81z M274.963,132.741V30.952l106.479,101.789H274.963z"/>
	</g>
</g>
<g>
	<g>
		<path d="M289.842,267.167l-123.259-85.333c-2.898-2.007-6.675-2.241-9.797-0.602c-3.124,1.637-5.081,4.873-5.081,8.398v170.667
			c0,3.525,1.957,6.761,5.081,8.398c1.383,0.725,2.893,1.083,4.399,1.083c1.895,0,3.782-0.567,5.398-1.685l123.259-85.333
			c2.558-1.771,4.084-4.685,4.084-7.796C293.926,271.852,292.399,268.938,289.842,267.167z M170.667,342.201V207.725l97.12,67.238
			L170.667,342.201z"/>
	</g>
</g>
<g>
</g>
<g>
</g>
<g>
</g>
<g>
</g>
<g>
</g>
<g>
</g>
<g>
</g>
<g>
</g>
<g>
</g>
<g>
</g>
<g>
</g>
<g>
</g>
<g>
</g>
<g>
</g>
<g>
</g>
</svg>
