<?xml version="1.0" encoding="iso-8859-1"?>
<!-- Generator: Adobe Illustrator 19.0.0, SVG Export Plug-In . SVG Version: 6.00 Build 0)  -->
<svg version="1.1" id="Layer_1" xmlns="http://www.w3.org/2000/svg" xmlns:xlink="http://www.w3.org/1999/xlink" x="0px" y="0px"
	 viewBox="0 0 512 512" style="enable-background:new 0 0 512 512;" xml:space="preserve">
<g>
	<g>
		<path d="M407.518,0H104.482C81.44,0,62.694,18.719,62.694,41.73v428.542c0,23.009,18.746,41.728,41.788,41.728h303.036
			c23.042,0,41.788-18.719,41.788-41.728V41.73C449.306,18.719,430.56,0,407.518,0z M428.408,470.272
			c0,11.486-9.371,20.83-20.89,20.83H104.482c-11.519,0-20.89-9.344-20.89-20.83V41.73c0-11.486,9.371-20.832,20.89-20.832h303.036
			c11.519,0,20.89,9.346,20.89,20.832V470.272z"/>
	</g>
</g>
<g>
	<g>
		<path d="M397.061,73.143H125.388c-5.77,0-10.449,4.679-10.449,10.449v167.184c0,5.77,4.679,10.449,10.449,10.449h271.673
			c5.77,0,10.449-4.679,10.449-10.449V83.592C407.51,77.821,402.832,73.143,397.061,73.143z M386.612,240.327H135.837v-25.43
			l41.796-25.079l46.869,28.122c3.369,2.019,7.583,1.982,10.914-0.099l79.827-49.891l71.37,17.842V240.327z M386.612,164.25
			l-70.608-17.652c-2.753-0.686-5.667-0.227-8.073,1.276l-78.165,48.853l-46.758-28.055c-3.309-1.985-7.444-1.985-10.753,0
			l-36.42,21.852V94.041h250.776V164.25z"/>
	</g>
</g>
<g>
	<g>
		<path d="M219.429,104.49c-17.284,0-31.347,14.063-31.347,31.347s14.063,31.347,31.347,31.347
			c17.284,0,31.347-14.063,31.347-31.347S236.713,104.49,219.429,104.49z M219.429,146.286c-5.762,0-10.449-4.687-10.449-10.449
			s4.687-10.449,10.449-10.449c5.762,0,10.449,4.687,10.449,10.449S225.19,146.286,219.429,146.286z"/>
	</g>
</g>
<g>
</g>
<g>
</g>
<g>
</g>
<g>
</g>
<g>
</g>
<g>
</g>
<g>
</g>
<g>
</g>
<g>
</g>
<g>
</g>
<g>
</g>
<g>
</g>
<g>
</g>
<g>
</g>
<g>
</g>
</svg>
