<?xml version="1.0" encoding="iso-8859-1"?>
<!-- Generator: Adobe Illustrator 19.0.0, SVG Export Plug-In . SVG Version: 6.00 Build 0)  -->
<svg version="1.1" id="Layer_1" xmlns="http://www.w3.org/2000/svg" xmlns:xlink="http://www.w3.org/1999/xlink" x="0px" y="0px"
	 viewBox="0 0 512 512" style="enable-background:new 0 0 512 512;" xml:space="preserve">
<g>
	<g>
		<path d="M501.551,130.612h-10.449V36.571c0-5.77-4.679-10.449-10.449-10.449H313.469c-5.77,0-10.449,4.679-10.449,10.449v52.245
			H62.694c-5.77,0-10.449,4.679-10.449,10.449v31.347H10.449C4.679,130.612,0,135.291,0,141.061v334.367
			c0,5.77,4.679,10.449,10.449,10.449h491.102c5.77,0,10.449-4.679,10.449-10.449V141.061
			C512,135.291,507.321,130.612,501.551,130.612z M73.143,109.714h240.326c5.77,0,10.449-4.679,10.449-10.449V47.02h146.286v83.592
			H73.143V109.714z M491.102,464.98H20.898V151.51h41.796h417.959h10.449V464.98z"/>
	</g>
</g>
<g>
	<g>
		<path d="M385.86,220.761c-1.589-3.96-5.428-6.557-9.696-6.557H135.837c-4.268,0-8.107,2.597-9.696,6.557
			c-1.592,3.962-0.61,8.492,2.475,11.443l120.163,114.939c2.02,1.932,4.62,2.898,7.222,2.898s5.201-0.966,7.222-2.898
			l120.163-114.939C386.469,229.254,387.451,224.723,385.86,220.761z M256,325.133l-94.122-90.03h188.245L256,325.133z"/>
	</g>
</g>
<g>
	<g>
		<rect x="114.939" y="370.939" width="282.122" height="20.898"/>
	</g>
</g>
<g>
</g>
<g>
</g>
<g>
</g>
<g>
</g>
<g>
</g>
<g>
</g>
<g>
</g>
<g>
</g>
<g>
</g>
<g>
</g>
<g>
</g>
<g>
</g>
<g>
</g>
<g>
</g>
<g>
</g>
</svg>
