<?xml version="1.0" encoding="iso-8859-1"?>
<!-- Generator: Adobe Illustrator 19.0.0, SVG Export Plug-In . SVG Version: 6.00 Build 0)  -->
<svg version="1.1" id="Layer_1" xmlns="http://www.w3.org/2000/svg" xmlns:xlink="http://www.w3.org/1999/xlink" x="0px" y="0px"
	 viewBox="0 0 512 512" style="enable-background:new 0 0 512 512;" xml:space="preserve">
<g>
	<g>
		<path d="M501.551,130.612h-10.449V36.571c0-5.77-4.679-10.449-10.449-10.449H313.469c-5.77,0-10.449,4.679-10.449,10.449v52.245
			H62.694c-5.77,0-10.449,4.679-10.449,10.449v31.347H10.449C4.679,130.612,0,135.291,0,141.061v334.367
			c0,5.77,4.679,10.449,10.449,10.449h491.102c5.77,0,10.449-4.679,10.449-10.449V141.061
			C512,135.291,507.321,130.612,501.551,130.612z M73.143,109.714h240.326c5.77,0,10.449-4.679,10.449-10.449V47.02h146.286v83.592
			H73.143V109.714z M491.102,464.98H20.898v-24.014l367.403-132.892c1.276-0.208,2.459-0.652,3.534-1.278l99.267-35.904V464.98z
			 M188.082,358.27V193.306h188.082v96.935L188.082,358.27z M491.102,248.667l-94.041,34.015v-99.825
			c0-5.77-4.679-10.449-10.449-10.449h-208.98c-5.77,0-10.449,4.679-10.449,10.449v182.972L20.898,418.741V151.51h41.796h417.959
			h10.449V248.667z"/>
	</g>
</g>
<g>
	<g>
		<rect x="240.327" y="203.755" width="83.592" height="20.898"/>
	</g>
</g>
<g>
	<g>
		<rect x="240.327" y="245.551" width="83.592" height="20.898"/>
	</g>
</g>
<g>
</g>
<g>
</g>
<g>
</g>
<g>
</g>
<g>
</g>
<g>
</g>
<g>
</g>
<g>
</g>
<g>
</g>
<g>
</g>
<g>
</g>
<g>
</g>
<g>
</g>
<g>
</g>
<g>
</g>
</svg>
