<?xml version="1.0" encoding="iso-8859-1"?>
<!-- Generator: Adobe Illustrator 19.0.0, SVG Export Plug-In . SVG Version: 6.00 Build 0)  -->
<svg version="1.1" id="Layer_1" xmlns="http://www.w3.org/2000/svg" xmlns:xlink="http://www.w3.org/1999/xlink" x="0px" y="0px"
	 viewBox="0 0 512 512" style="enable-background:new 0 0 512 512;" xml:space="preserve">
<g>
	<g>
		<path d="M501.551,130.612h-10.449V36.571c0-5.77-4.679-10.449-10.449-10.449H313.469c-5.77,0-10.449,4.679-10.449,10.449v52.245
			H62.694c-5.77,0-10.449,4.679-10.449,10.449v31.347H10.449C4.679,130.612,0,135.291,0,141.061v334.367
			c0,5.77,4.679,10.449,10.449,10.449h491.102c5.77,0,10.449-4.679,10.449-10.449V141.061
			C512,135.291,507.321,130.612,501.551,130.612z M73.143,109.714h240.326c5.77,0,10.449-4.679,10.449-10.449V47.02h146.286v83.592
			H73.143V109.714z M491.102,464.98H20.898V151.51h41.796h417.959h10.449V464.98z"/>
	</g>
</g>
<g>
	<g>
		<path d="M193.306,203.755c-38.084,0-67.918,45.898-67.918,104.49s29.834,104.49,67.918,104.49
			c38.084,0,67.918-45.898,67.918-104.49S231.39,203.755,193.306,203.755z M193.306,391.837c-25.487,0-47.02-38.281-47.02-83.592
			s21.533-83.592,47.02-83.592c25.487,0,47.02,38.281,47.02,83.592S218.793,391.837,193.306,391.837z"/>
	</g>
</g>
<g>
	<g>
		<path d="M349.49,204.859c-3.546-1.773-7.778-1.388-10.944,0.986l-41.796,31.347c-4.615,3.463-5.551,10.013-2.089,14.629
			c3.464,4.617,10.013,5.554,14.63,2.091l25.077-18.809v167.474c0,5.771,4.679,10.449,10.449,10.449s10.449-4.679,10.449-10.449
			V214.204C355.265,210.246,353.028,206.629,349.49,204.859z"/>
	</g>
</g>
<g>
</g>
<g>
</g>
<g>
</g>
<g>
</g>
<g>
</g>
<g>
</g>
<g>
</g>
<g>
</g>
<g>
</g>
<g>
</g>
<g>
</g>
<g>
</g>
<g>
</g>
<g>
</g>
<g>
</g>
</svg>
