<?xml version="1.0" encoding="iso-8859-1"?>
<!-- Generator: Adobe Illustrator 19.0.0, SVG Export Plug-In . SVG Version: 6.00 Build 0)  -->
<svg version="1.1" id="Layer_1" xmlns="http://www.w3.org/2000/svg" xmlns:xlink="http://www.w3.org/1999/xlink" x="0px" y="0px"
	 viewBox="0 0 512 512" style="enable-background:new 0 0 512 512;" xml:space="preserve">
<g>
	<g>
		<path d="M501.551,130.612h-10.449V36.571c0-5.77-4.679-10.449-10.449-10.449H313.469c-5.77,0-10.449,4.679-10.449,10.449v52.245
			H62.694c-5.77,0-10.449,4.679-10.449,10.449v31.347H10.449C4.679,130.612,0,135.291,0,141.061v334.367
			c0,5.77,4.679,10.449,10.449,10.449h491.102c5.77,0,10.449-4.679,10.449-10.449V141.061
			C512,135.291,507.321,130.612,501.551,130.612z M73.143,109.714h240.326c5.77,0,10.449-4.679,10.449-10.449V47.02h146.286v83.592
			H73.143V109.714z M491.102,464.98H20.898V151.51h41.796h417.959h10.449V464.98z"/>
	</g>
</g>
<g>
	<g>
		<path d="M247.716,300.856l-52.245-52.245c-4.082-4.079-10.696-4.079-14.778,0c-4.08,4.082-4.08,10.696,0,14.778l34.408,34.407
			H94.041v20.898H215.1l-34.408,34.407c-4.08,4.082-4.08,10.696,0,14.778c2.041,2.04,4.715,3.06,7.389,3.06s5.348-1.02,7.389-3.06
			l52.245-52.245C251.796,311.552,251.796,304.938,247.716,300.856z"/>
	</g>
</g>
<g>
	<g>
		<path d="M425.348,300.856l-52.245-52.245c-4.082-4.079-10.696-4.079-14.778,0c-4.08,4.082-4.08,10.696,0,14.778l34.408,34.407
			h-121.06v20.898h121.06l-34.408,34.407c-4.08,4.082-4.08,10.696,0,14.778c2.041,2.04,4.715,3.06,7.389,3.06
			c2.675,0,5.348-1.02,7.389-3.06l52.245-52.245C429.428,311.552,429.428,304.938,425.348,300.856z"/>
	</g>
</g>
<g>
</g>
<g>
</g>
<g>
</g>
<g>
</g>
<g>
</g>
<g>
</g>
<g>
</g>
<g>
</g>
<g>
</g>
<g>
</g>
<g>
</g>
<g>
</g>
<g>
</g>
<g>
</g>
<g>
</g>
</svg>
