<?xml version="1.0" encoding="iso-8859-1"?>
<!-- Generator: Adobe Illustrator 19.0.0, SVG Export Plug-In . SVG Version: 6.00 Build 0)  -->
<svg version="1.1" id="Layer_1" xmlns="http://www.w3.org/2000/svg" xmlns:xlink="http://www.w3.org/1999/xlink" x="0px" y="0px"
	 viewBox="0 0 512 512" style="enable-background:new 0 0 512 512;" xml:space="preserve">
<g>
	<g>
		<path d="M479.933,0H32.067C14.357,0,0,14.357,0,32.066v447.867C0,497.643,14.357,512,32.067,512h447.867
			C497.643,512,512,497.643,512,479.934V32.066C512,14.357,497.643,0,479.933,0z M490.667,479.934
			c0,5.928-4.805,10.733-10.733,10.733H32.067c-5.928,0-10.733-4.805-10.733-10.733V32.066c0-5.928,4.805-10.733,10.733-10.733
			h447.867c5.928,0,10.733,4.805,10.733,10.733V479.934z"/>
	</g>
</g>
<g>
	<g>
		<polygon points="427.307,218.24 383.787,358.4 347.307,218.24 325.867,218.24 287.467,359.68 244.587,218.24 225.387,218.24 
			275.947,384 298.987,384 335.787,244.8 336.427,244.8 372.587,384 393.067,384 446.827,218.24 		"/>
	</g>
</g>
<g>
	<g>
		<polygon points="214.827,172.16 214.827,153.6 66.347,153.6 66.347,384 88.107,384 88.107,273.92 203.307,273.92 203.307,255.36 
			88.107,255.36 88.107,172.16 		"/>
	</g>
</g>
<g>
</g>
<g>
</g>
<g>
</g>
<g>
</g>
<g>
</g>
<g>
</g>
<g>
</g>
<g>
</g>
<g>
</g>
<g>
</g>
<g>
</g>
<g>
</g>
<g>
</g>
<g>
</g>
<g>
</g>
</svg>
