<?xml version="1.0" encoding="iso-8859-1"?>
<!-- Generator: Adobe Illustrator 19.0.0, SVG Export Plug-In . SVG Version: 6.00 Build 0)  -->
<svg version="1.1" id="Layer_1" xmlns="http://www.w3.org/2000/svg" xmlns:xlink="http://www.w3.org/1999/xlink" x="0px" y="0px"
	 viewBox="0 0 512 512" style="enable-background:new 0 0 512 512;" xml:space="preserve">
<g>
	<g>
		<path d="M502.539,383.927h-36.55v-36.551c0-5.046-4.091-9.138-9.138-9.138H420.3c-5.046,0-9.138,4.091-9.138,9.138v36.551h-36.55
			c-5.046,0-9.138,4.091-9.138,9.138v36.551c0,5.046,4.091,9.138,9.138,9.138h36.55v36.55c0,5.046,4.091,9.138,9.138,9.138h36.55
			c5.046,0,9.138-4.091,9.138-9.138v-36.55h36.55c5.046,0,9.138-4.091,9.138-9.138v-36.551
			C511.676,388.018,507.585,383.927,502.539,383.927z M493.401,420.477h-36.55c-5.046,0-9.138,4.091-9.138,9.138v36.55h-18.275
			v-36.55c0-5.046-4.091-9.138-9.138-9.138h-36.551v-18.275H420.3c5.046,0,9.138-4.091,9.138-9.138v-36.55h18.275v36.55
			c0,5.046,4.091,9.138,9.138,9.138h36.55V420.477z"/>
	</g>
</g>
<g>
	<g>
		<path d="M496.898,175.89l-49.817-35.399c0.394-1.021,0.632-2.12,0.632-3.279V54.972c0-5.046-4.091-9.138-9.138-9.138h-54.826
			c-5.046,0-9.138,4.091-9.138,9.138v34.022l-96.939-68.884c-1.546-1.098-3.395-1.689-5.293-1.689h-37.569
			c-1.93,0-3.81,0.611-5.371,1.745L15.03,175.946c-16.289,11.835-19.903,34.728-8.057,51.035
			c9.067,12.476,24.599,17.502,38.684,13.889v216.189c0,20.136,16.425,36.519,36.614,36.519h109.588h127.927h54.826
			c5.046,0,9.138-4.091,9.138-9.138s-4.091-9.138-9.137-9.138h-45.688V329.101c0-5.046-4.091-9.138-9.138-9.138H191.859
			c-5.046,0-9.138,4.091-9.138,9.138v146.202H82.271c-10.113,0-18.339-8.185-18.339-18.244V230.805L254.154,93.615l193.559,137.014
			v80.197c0,5.046,4.091,9.138,9.138,9.138s9.138-4.091,9.138-9.138v-70.031c3.047,0.818,6.192,1.26,9.382,1.26
			c1.935,0,3.886-0.154,5.835-0.464c9.636-1.535,18.098-6.724,23.829-14.612C516.878,210.673,513.263,187.78,496.898,175.89z
			 M200.997,338.239h109.651v137.064H200.997V338.239z M392.887,100.66V64.11h36.55v63.843l-36.675-26.061
			C392.818,101.485,392.887,101.083,392.887,100.66z M490.248,216.237c-2.866,3.944-7.099,6.539-11.921,7.306
			c-4.813,0.776-9.642-0.381-13.67-3.308L259.384,74.927c-1.583-1.12-3.431-1.68-5.279-1.68c-1.875,0-3.75,0.576-5.345,1.727
			L47.256,220.3c-8.136,5.912-19.576,4.091-25.498-4.06c-5.923-8.154-4.123-19.596,4.013-25.508L237.781,36.697h31.684
			l216.77,154.035C494.37,196.643,496.17,208.086,490.248,216.237z"/>
	</g>
</g>
<g>
</g>
<g>
</g>
<g>
</g>
<g>
</g>
<g>
</g>
<g>
</g>
<g>
</g>
<g>
</g>
<g>
</g>
<g>
</g>
<g>
</g>
<g>
</g>
<g>
</g>
<g>
</g>
<g>
</g>
</svg>
