<?xml version="1.0" encoding="iso-8859-1"?>
<!-- Generator: Adobe Illustrator 19.0.0, SVG Export Plug-In . SVG Version: 6.00 Build 0)  -->
<svg version="1.1" id="Layer_1" xmlns="http://www.w3.org/2000/svg" xmlns:xlink="http://www.w3.org/1999/xlink" x="0px" y="0px"
	 viewBox="0 0 512 512" style="enable-background:new 0 0 512 512;" xml:space="preserve">
<g>
	<g>
		<path d="M511.557,400.565c-1.064-3.275-3.894-5.66-7.302-6.155l-42.847-6.227l-19.161-38.826
			c-1.524-3.087-4.668-5.042-8.111-5.042s-6.587,1.954-8.111,5.042l-19.162,38.826l-42.846,6.227
			c-3.407,0.495-6.237,2.88-7.302,6.155s-0.177,6.87,2.289,9.273l31.004,30.222l-7.319,42.675c-0.582,3.392,0.813,6.821,3.598,8.846
			c2.785,2.021,6.478,2.292,9.525,0.687l38.324-20.146l38.324,20.146c1.323,0.698,2.768,1.04,4.208,1.04
			c1.876,0,3.742-0.583,5.318-1.727c2.786-2.025,4.18-5.454,3.598-8.846l-7.319-42.675l31.004-30.222
			C511.734,407.435,512.622,403.84,511.557,400.565z M462.232,430.426c-2.132,2.078-3.105,5.072-2.601,8.005l5.025,29.297
			l-26.311-13.83c-1.317-0.693-2.764-1.04-4.209-1.04s-2.892,0.347-4.209,1.04l-26.311,13.83l5.025-29.297
			c0.504-2.933-0.469-5.927-2.601-8.005l-21.286-20.749l29.415-4.275c2.946-0.426,5.493-2.277,6.81-4.947l13.156-26.656
			l13.155,26.656c1.317,2.67,3.865,4.52,6.81,4.947l29.417,4.275L462.232,430.426z"/>
	</g>
</g>
<g>
	<g>
		<path d="M491.868,174.565l-49.313-35.041c0.39-1.01,0.626-2.098,0.626-3.246V54.872c0-4.995-4.05-9.045-9.045-9.045h-54.271
			c-4.995,0-9.045,4.05-9.045,9.045V88.55l-95.958-68.187c-1.53-1.087-3.361-1.672-5.239-1.672h-37.189
			c-1.91,0-3.772,0.605-5.316,1.727L14.878,174.621c-16.124,11.715-19.701,34.376-7.975,50.519
			c8.975,12.35,24.35,17.325,38.293,13.748v214.001c0,19.932,16.258,36.15,36.243,36.15h108.479h126.632h36.181
			c4.995,0,9.045-4.05,9.045-9.045s-4.05-9.045-9.045-9.045h-27.135V326.226c0-4.995-4.05-9.045-9.045-9.045H189.917
			c-4.995,0-9.045,4.05-9.045,9.045v144.722H81.439c-10.01,0-18.153-8.102-18.153-18.059V228.924L251.581,93.124l191.6,135.627
			v79.385c0,4.995,4.05,9.045,9.045,9.045s9.045-4.05,9.045-9.045v-69.322c3.016,0.81,6.129,1.247,9.287,1.247
			c1.916,0,3.847-0.152,5.776-0.459c9.539-1.519,17.915-6.656,23.588-14.464C511.647,208.997,508.069,186.335,491.868,174.565z
			 M198.962,335.271h108.542v135.677H198.962V335.271z M388.91,100.098V63.917h36.181v63.197l-36.304-25.797
			C388.842,100.914,388.91,100.515,388.91,100.098z M485.286,214.504c-2.835,3.904-7.027,6.472-11.8,7.232
			c-4.765,0.768-9.543-0.378-13.531-3.275L256.758,74.625c-1.567-1.108-3.396-1.663-5.226-1.663c-1.856,0-3.712,0.57-5.291,1.709
			L46.777,218.526c-8.054,5.852-19.379,4.05-25.24-4.019c-5.864-8.071-4.081-19.398,3.973-25.25L235.374,36.782h31.363
			l214.576,152.475C489.366,195.109,491.148,206.435,485.286,214.504z"/>
	</g>
</g>
<g>
</g>
<g>
</g>
<g>
</g>
<g>
</g>
<g>
</g>
<g>
</g>
<g>
</g>
<g>
</g>
<g>
</g>
<g>
</g>
<g>
</g>
<g>
</g>
<g>
</g>
<g>
</g>
<g>
</g>
</svg>
