<?xml version="1.0" encoding="iso-8859-1"?>
<!-- Generator: Adobe Illustrator 19.0.0, SVG Export Plug-In . SVG Version: 6.00 Build 0)  -->
<svg version="1.1" id="Layer_1" xmlns="http://www.w3.org/2000/svg" xmlns:xlink="http://www.w3.org/1999/xlink" x="0px" y="0px"
	 viewBox="0 0 512 512" style="enable-background:new 0 0 512 512;" xml:space="preserve">
<g>
	<g>
		<path d="M503.017,381.762H377.255c-4.961,0-8.983,4.022-8.983,8.983v35.932c0,4.961,4.022,8.983,8.983,8.983h125.762
			c4.961,0,8.983-4.022,8.983-8.983v-35.932C512,385.784,507.978,381.762,503.017,381.762z M494.034,417.694H386.238v-17.966
			h107.796V417.694z"/>
	</g>
</g>
<g>
	<g>
		<path d="M488.489,177.245l-48.974-34.8c0.387-1.003,0.621-2.084,0.621-3.224V58.374c0-4.961-4.022-8.983-8.983-8.983h-53.898
			c-4.961,0-8.983,4.022-8.983,8.983v33.446l-95.299-67.718c-1.52-1.079-3.338-1.66-5.203-1.66h-36.933
			c-1.897,0-3.746,0.601-5.28,1.715L14.775,177.3c-16.013,11.635-19.566,34.14-7.921,50.172
			c8.913,12.265,24.184,17.206,38.03,13.654v212.531c0,19.795,16.147,35.901,35.994,35.901h107.733h125.762h53.898
			c4.961,0,8.983-4.022,8.983-8.983s-4.022-8.983-8.983-8.983h-44.915V327.864c0-4.961-4.022-8.983-8.983-8.983H188.613
			c-4.961,0-8.983,4.022-8.983,8.983v143.728h-98.75c-9.941,0-18.028-8.047-18.028-17.935V231.231L249.853,96.363l190.283,134.695
			v78.839c0,4.961,4.022,8.983,8.983,8.983c4.961,0,8.983-4.022,8.983-8.983v-68.846c2.995,0.805,6.087,1.239,9.223,1.239
			c1.903,0,3.82-0.151,5.736-0.456c9.473-1.509,17.792-6.61,23.426-14.365C508.13,211.44,504.577,188.935,488.489,177.245z
			 M197.596,336.847h107.796v134.745H197.596V336.847z M386.238,103.289V67.357h35.932v62.763l-36.054-25.62
			C386.17,104.1,386.238,103.704,386.238,103.289z M481.952,216.91c-2.817,3.878-6.978,6.428-11.719,7.182
			c-4.732,0.763-9.477-0.375-13.438-3.252l-201.8-142.848c-1.556-1.101-3.373-1.652-5.19-1.652c-1.843,0-3.687,0.566-5.255,1.698
			L46.456,220.904c-7.997,5.812-19.246,4.022-25.066-3.992c-5.823-8.016-4.053-19.264,3.945-25.076L233.757,40.408h31.148
			l213.101,151.428C486.004,197.648,487.774,208.896,481.952,216.91z"/>
	</g>
</g>
<g>
</g>
<g>
</g>
<g>
</g>
<g>
</g>
<g>
</g>
<g>
</g>
<g>
</g>
<g>
</g>
<g>
</g>
<g>
</g>
<g>
</g>
<g>
</g>
<g>
</g>
<g>
</g>
<g>
</g>
</svg>
