<?xml version="1.0" encoding="iso-8859-1"?>
<!-- Generator: Adobe Illustrator 19.0.0, SVG Export Plug-In . SVG Version: 6.00 Build 0)  -->
<svg version="1.1" id="Layer_1" xmlns="http://www.w3.org/2000/svg" xmlns:xlink="http://www.w3.org/1999/xlink" x="0px" y="0px"
	 viewBox="0 0 512 512" style="enable-background:new 0 0 512 512;" xml:space="preserve">
<g>
	<g>
		<path d="M436.455,327.348c-41.656,0-75.545,33.889-75.545,75.545s33.889,75.545,75.545,75.545S512,444.55,512,402.893
			S478.111,327.348,436.455,327.348z M436.455,461.651c-32.399,0-58.757-26.358-58.757-58.757s26.358-58.757,58.757-58.757
			s58.757,26.358,58.757,58.757S468.854,461.651,436.455,461.651z"/>
	</g>
</g>
<g>
	<g>
		<path d="M466.292,370.728c-3.853-2.572-9.068-1.529-11.64,2.328l-28.92,43.38l-18.198-12.132c-3.853-2.572-9.07-1.529-11.64,2.328
			c-2.572,3.857-1.529,9.068,2.328,11.64l25.182,16.788c1.43,0.955,3.047,1.41,4.648,1.41c2.713,0,5.375-1.312,6.992-3.738
			l33.576-50.363C471.192,378.511,470.149,373.3,466.292,370.728z"/>
	</g>
</g>
<g>
	<g>
		<path d="M469.955,200.187c-1.389-8.855-6.158-16.64-13.501-21.975l-45.762-32.518c0.363-0.938,0.581-1.947,0.581-3.013V67.137
			c0-4.636-3.758-8.394-8.394-8.394h-50.363c-4.636,0-8.394,3.758-8.394,8.394V98.39l-89.048-63.277
			c-1.422-1.008-3.121-1.551-4.863-1.551H215.7c-1.773,0-3.5,0.562-4.935,1.603l-196.962,143.1
			c-14.96,10.872-18.28,31.901-7.4,46.882c8.329,11.462,22.6,16.078,35.537,12.759v198.593c0,18.497,15.087,33.547,33.633,33.547
			h100.67h117.515h50.363c4.636,0,8.394-3.758,8.394-8.394c0-4.635-3.758-8.394-8.394-8.394h-41.97V318.954
			c0-4.635-3.758-8.394-8.394-8.394H176.243c-4.636,0-8.394,3.758-8.394,8.394v134.303H75.574c-9.29,0-16.845-7.519-16.845-16.759
			v-207.84l174.739-126.023l177.805,125.864v73.668c0,4.636,3.758,8.394,8.394,8.394c4.636,0,8.394-3.758,8.394-8.394v-64.331
			c2.799,0.752,5.688,1.157,8.617,1.157c1.779,0,3.57-0.141,5.361-0.426c8.853-1.41,16.626-6.179,21.889-13.423
			C469.2,217.887,471.34,209.024,469.955,200.187z M184.637,327.348h100.727v125.909H184.637V327.348z M360.909,109.106V75.531
			h33.576v58.647l-33.689-23.94C360.846,109.864,360.909,109.494,360.909,109.106z M450.345,215.278
			c-2.631,3.621-6.519,6.004-10.949,6.709c-4.42,0.713-8.855-0.35-12.556-3.039L238.273,85.468c-1.455-1.029-3.151-1.543-4.85-1.543
			c-1.723,0-3.445,0.529-4.91,1.586L43.41,219.008c-7.478,5.429-17.985,3.758-23.425-3.73c-5.439-7.49-3.785-18.001,3.689-23.432
			L218.428,50.349h29.104l199.126,141.498c3.635,2.642,6.019,6.527,6.711,10.943C454.062,207.204,452.988,211.639,450.345,215.278z"
			/>
	</g>
</g>
<g>
</g>
<g>
</g>
<g>
</g>
<g>
</g>
<g>
</g>
<g>
</g>
<g>
</g>
<g>
</g>
<g>
</g>
<g>
</g>
<g>
</g>
<g>
</g>
<g>
</g>
<g>
</g>
<g>
</g>
</svg>
