<?xml version="1.0" encoding="iso-8859-1"?>
<!-- Generator: Adobe Illustrator 19.0.0, SVG Export Plug-In . SVG Version: 6.00 Build 0)  -->
<svg version="1.1" id="Layer_1" xmlns="http://www.w3.org/2000/svg" xmlns:xlink="http://www.w3.org/1999/xlink" x="0px" y="0px"
	 viewBox="0 0 512 512" style="enable-background:new 0 0 512 512;" xml:space="preserve">
<g>
	<g>
		<path d="M509.335,444.637l-25.741-25.742l25.741-25.74c1.706-1.706,2.665-4.021,2.665-6.434c0-2.413-0.959-4.728-2.665-6.434
			l-25.74-25.74c-3.553-3.553-9.314-3.555-12.871,0l-25.74,25.738l-25.74-25.738c-3.554-3.553-9.316-3.555-12.87,0l-25.741,25.74
			c-1.708,1.706-2.666,4.022-2.666,6.434c0,2.413,0.959,4.728,2.665,6.434l25.741,25.74l-25.741,25.742
			c-1.706,1.706-2.665,4.021-2.665,6.434c0,2.413,0.959,4.728,2.666,6.434l25.741,25.74c3.553,3.555,9.315,3.555,12.87,0
			l25.74-25.738l25.74,25.738c1.777,1.777,4.107,2.666,6.435,2.666s4.658-0.889,6.435-2.666l25.74-25.74
			C512.889,453.953,512.889,448.19,509.335,444.637z M477.159,463.941l-25.74-25.738c-3.555-3.555-9.316-3.555-12.871,0
			l-25.74,25.738l-12.871-12.869l25.741-25.742c1.706-1.706,2.665-4.022,2.665-6.434s-0.959-4.728-2.665-6.434l-25.741-25.74
			l12.871-12.869l25.74,25.738c3.555,3.555,9.316,3.555,12.871,0l25.74-25.738l12.87,12.869l-25.741,25.74
			c-1.706,1.706-2.665,4.022-2.665,6.434s0.959,4.728,2.665,6.434l25.741,25.742L477.159,463.941z"/>
	</g>
</g>
<g>
	<g>
		<path d="M494.884,176.214l-49.615-35.256c0.392-1.017,0.629-2.111,0.629-3.266V55.787c0-5.026-4.075-9.101-9.101-9.101h-54.604
			c-5.026,0-9.101,4.075-9.101,9.101v33.884l-96.546-68.605c-1.54-1.093-3.382-1.682-5.271-1.682H233.86
			c-1.922,0-3.795,0.609-5.349,1.738L14.969,176.27c-16.223,11.787-19.822,34.587-8.024,50.829
			c9.031,12.426,24.499,17.431,38.528,13.832v215.313c0,20.054,16.358,36.371,36.466,36.371h109.144H318.49h54.604
			c5.026,0,9.101-4.075,9.101-9.101s-4.075-9.101-9.1-9.101h-45.503V328.805c0-5.026-4.075-9.101-9.101-9.101H191.082
			c-5.026,0-9.101,4.075-9.101,9.101v145.609H81.938c-10.072,0-18.264-8.152-18.264-18.17V230.907l189.45-136.633l192.774,136.459
			v79.872c0,5.026,4.075,9.101,9.101,9.101s9.101-4.075,9.101-9.101v-69.747c3.034,0.815,6.167,1.255,9.344,1.255
			c1.927,0,3.87-0.153,5.811-0.462c9.597-1.529,18.025-6.697,23.732-14.553C514.783,210.857,511.183,188.057,494.884,176.214z
			 M200.182,337.905H309.39v136.509H200.182V337.905z M391.295,101.29V64.888h36.402v63.584l-36.526-25.955
			C391.226,102.112,391.295,101.71,391.295,101.29z M488.262,216.398c-2.854,3.928-7.07,6.512-11.872,7.276
			c-4.796,0.773-9.603-0.38-13.614-3.295L258.333,75.661c-1.576-1.115-3.417-1.673-5.258-1.673c-1.867,0-3.735,0.573-5.323,1.72
			L47.064,220.444c-8.104,5.888-19.497,4.075-25.394-4.044c-5.899-8.121-4.106-19.516,3.997-25.404l211.15-153.41h31.555
			l215.891,153.41C492.367,196.884,494.16,208.28,488.262,216.398z"/>
	</g>
</g>
<g>
</g>
<g>
</g>
<g>
</g>
<g>
</g>
<g>
</g>
<g>
</g>
<g>
</g>
<g>
</g>
<g>
</g>
<g>
</g>
<g>
</g>
<g>
</g>
<g>
</g>
<g>
</g>
<g>
</g>
</svg>
