<?xml version="1.0" encoding="iso-8859-1"?>
<!-- Generator: Adobe Illustrator 19.0.0, SVG Export Plug-In . SVG Version: 6.00 Build 0)  -->
<svg version="1.1" id="Layer_1" xmlns="http://www.w3.org/2000/svg" xmlns:xlink="http://www.w3.org/1999/xlink" x="0px" y="0px"
	 viewBox="0 0 512 512" style="enable-background:new 0 0 512 512;" xml:space="preserve">
<g>
	<g>
		<path d="M496.897,175.89l-51.223-36.399c0.189-0.733,0.322-1.488,0.322-2.28V54.972c0-5.046-4.091-9.138-9.138-9.138h-54.826
			c-5.046,0-9.138,4.091-9.138,9.138v32.802l-95.221-67.663c-1.546-1.098-3.395-1.689-5.293-1.689h-37.569
			c-1.93,0-3.81,0.611-5.371,1.745L15.03,175.946c-16.288,11.835-19.904,34.728-8.058,51.035c5.73,7.886,14.192,13.075,23.828,14.61
			c1.951,0.31,3.901,0.464,5.837,0.464c2.47,0,4.911-0.276,7.303-0.768v215.773c0,20.136,16.425,36.519,36.614,36.519h109.588
			h127.927h109.588c20.189,0,36.614-16.384,36.614-36.519V240.281c5.396,1.741,11.161,2.226,16.935,1.309
			c9.636-1.535,18.098-6.724,23.828-14.612C516.878,210.673,513.264,187.78,496.897,175.89z M391.17,100.66V64.11h36.55v62.623
			l-36.56-25.98C391.16,100.722,391.17,100.692,391.17,100.66z M308.931,475.303H199.28V338.239h109.651V475.303z M445.995,457.059
			c0,10.059-8.226,18.244-18.339,18.244h-100.45V329.101c0-5.046-4.091-9.138-9.138-9.138H190.142c-5.046,0-9.138,4.091-9.138,9.138
			v146.202H80.554c-10.113,0-18.339-8.185-18.339-18.244V232.043L254.154,93.615l191.841,135.799V457.059z M490.247,216.239
			c-2.863,3.942-7.096,6.536-11.918,7.304c-4.819,0.776-9.642-0.381-13.671-3.308L259.384,74.928
			c-3.19-2.258-7.459-2.242-10.624,0.047L47.255,220.3c-3.936,2.86-8.754,4.016-13.578,3.244c-4.822-0.767-9.055-3.362-11.92-7.304
			c-5.923-8.154-4.122-19.596,4.014-25.508L237.781,36.697h31.684l216.769,154.035C494.369,196.643,496.17,208.086,490.247,216.239z
			"/>
	</g>
</g>
<g>
</g>
<g>
</g>
<g>
</g>
<g>
</g>
<g>
</g>
<g>
</g>
<g>
</g>
<g>
</g>
<g>
</g>
<g>
</g>
<g>
</g>
<g>
</g>
<g>
</g>
<g>
</g>
<g>
</g>
</svg>
