<?xml version="1.0" encoding="iso-8859-1"?>
<!-- Generator: Adobe Illustrator 19.0.0, SVG Export Plug-In . SVG Version: 6.00 Build 0)  -->
<svg version="1.1" id="Layer_1" xmlns="http://www.w3.org/2000/svg" xmlns:xlink="http://www.w3.org/1999/xlink" x="0px" y="0px"
	 viewBox="0 0 512 512" style="enable-background:new 0 0 512 512;" xml:space="preserve">
<g>
	<g>
		<path d="M435.196,332.804c-42.35,0-76.804,34.454-76.804,76.804s34.454,76.804,76.804,76.804c42.35,0,76.804-34.454,76.804-76.804
			S477.546,332.804,435.196,332.804z M435.196,469.345c-32.94,0-59.737-26.797-59.737-59.737s26.797-59.737,59.737-59.737
			c32.939,0,59.737,26.797,59.737,59.737S468.135,469.345,435.196,469.345z"/>
	</g>
</g>
<g>
	<g>
		<path d="M469.331,401.075h-25.601v-25.602c0-4.713-3.821-8.534-8.534-8.534c-4.713,0-8.534,3.821-8.534,8.534v25.602H401.06
			c-4.713,0-8.534,3.821-8.534,8.534c0,4.713,3.821,8.534,8.534,8.534h25.602v25.601c0,4.713,3.821,8.534,8.534,8.534
			c4.713,0,8.534-3.821,8.534-8.534v-25.601h25.601c4.713,0,8.534-3.821,8.534-8.534
			C477.865,404.896,474.044,401.075,469.331,401.075z"/>
	</g>
</g>
<g>
	<g>
		<path d="M464.064,172.649l-46.526-33.061c0.368-0.953,0.59-1.979,0.59-3.062V59.722c0-4.713-3.821-8.534-8.534-8.534h-51.203
			c-4.713,0-8.534,3.821-8.534,8.534v31.773l-90.532-64.331c-1.446-1.025-3.173-1.577-4.944-1.577h-35.085
			c-1.802,0-3.559,0.571-5.017,1.629L14.034,172.702c-15.209,11.055-18.584,32.435-7.523,47.663
			c8.469,11.652,22.974,16.347,36.129,12.972v201.903c0,18.805,15.339,34.106,34.194,34.106h102.348h119.473h51.203
			c4.713,0,8.534-3.821,8.534-8.534c0-4.713-3.821-8.534-8.534-8.534h-42.669V315.737c0-4.713-3.821-8.534-8.534-8.534H179.181
			c-4.713,0-8.534,3.821-8.534,8.534v136.541H76.833c-9.444,0-17.126-7.644-17.126-17.038V223.936L237.359,95.812l180.769,127.961
			v74.896c0,4.713,3.821,8.534,8.534,8.534c4.713,0,8.534-3.821,8.534-8.534v-65.403c2.845,0.764,5.782,1.177,8.761,1.177
			c1.809,0,3.629-0.144,5.45-0.433c9.001-1.433,16.903-6.282,22.253-13.647C482.723,205.135,479.348,183.754,464.064,172.649z
			 M187.715,324.271h102.406v128.007H187.715V324.271z M366.925,102.391V68.256h34.135v59.624l-34.251-24.339
			C366.86,103.161,366.925,102.785,366.925,102.391z M457.851,210.333c-2.675,3.682-6.627,6.104-11.132,6.821
			c-4.49,0.725-9.005-0.356-12.765-3.09L242.245,78.359c-1.479-1.046-3.204-1.569-4.931-1.569c-1.752,0-3.502,0.538-4.992,1.613
			L44.134,214.125c-7.605,5.523-18.282,3.819-23.814-3.792c-5.532-7.615-3.85-18.301,3.748-23.822L222.069,42.654h29.589
			l202.445,143.856C461.701,192.03,463.382,202.718,457.851,210.333z"/>
	</g>
</g>
<g>
</g>
<g>
</g>
<g>
</g>
<g>
</g>
<g>
</g>
<g>
</g>
<g>
</g>
<g>
</g>
<g>
</g>
<g>
</g>
<g>
</g>
<g>
</g>
<g>
</g>
<g>
</g>
<g>
</g>
</svg>
