<?xml version="1.0" encoding="iso-8859-1"?>
<!-- Generator: Adobe Illustrator 19.0.0, SVG Export Plug-In . SVG Version: 6.00 Build 0)  -->
<svg version="1.1" id="Layer_1" xmlns="http://www.w3.org/2000/svg" xmlns:xlink="http://www.w3.org/1999/xlink" x="0px" y="0px"
	 viewBox="0 0 512 512" style="enable-background:new 0 0 512 512;" xml:space="preserve">
<g>
	<g>
		<path d="M510.703,464.822l-85.338-136.541c-1.56-2.494-4.294-4.011-7.237-4.011s-5.677,1.517-7.237,4.011l-85.338,136.541
			c-1.644,2.631-1.731,5.946-0.227,8.661c1.504,2.713,4.362,4.396,7.464,4.396h170.676c3.102,0,5.96-1.683,7.464-4.396
			C512.435,470.768,512.347,467.454,510.703,464.822z M348.187,460.812l69.941-111.906l69.941,111.906H348.187z"/>
	</g>
</g>
<g>
	<g>
		<path d="M418.128,375.473c-4.713,0-8.534,3.821-8.534,8.534v34.135c0,4.713,3.821,8.534,8.534,8.534
			c4.713,0,8.534-3.821,8.534-8.534v-34.135C426.662,379.295,422.841,375.473,418.128,375.473z"/>
	</g>
</g>
<g>
	<g>
		<path d="M426.491,442.079c-0.107-0.554-0.277-1.087-0.491-1.6c-0.214-0.512-0.47-1.002-0.769-1.473
			c-0.32-0.469-0.682-0.896-1.067-1.3c-0.405-0.383-0.831-0.748-1.301-1.067c-0.469-0.3-0.959-0.554-1.472-0.769
			c-0.511-0.212-1.045-0.383-1.6-0.49c-1.088-0.236-2.219-0.236-3.328,0c-0.554,0.106-1.088,0.277-1.6,0.49
			c-0.511,0.215-1.002,0.469-1.472,0.769c-0.469,0.319-0.918,0.683-1.301,1.067c-0.384,0.404-0.747,0.831-1.067,1.3
			c-0.299,0.471-0.555,0.961-0.768,1.473c-0.214,0.512-0.384,1.046-0.492,1.6c-0.106,0.554-0.17,1.11-0.17,1.665
			s0.064,1.108,0.17,1.663c0.107,0.556,0.278,1.09,0.492,1.6c0.212,0.512,0.469,1.004,0.768,1.473
			c0.32,0.469,0.682,0.896,1.067,1.302c0.405,0.383,0.832,0.746,1.301,1.044c0.47,0.321,0.961,0.577,1.472,0.79
			c0.513,0.215,1.046,0.385,1.6,0.492c0.555,0.106,1.109,0.171,1.665,0.171c0.554,0,1.109-0.065,1.664-0.171
			c0.555-0.106,1.089-0.277,1.6-0.492c0.512-0.213,1.003-0.469,1.472-0.79c0.47-0.298,0.896-0.661,1.301-1.044
			c0.384-0.406,0.747-0.833,1.067-1.302c0.299-0.469,0.555-0.96,0.769-1.473c0.214-0.511,0.383-1.044,0.491-1.6
			c0.106-0.554,0.171-1.108,0.171-1.663S426.597,442.634,426.491,442.079z"/>
	</g>
</g>
<g>
	<g>
		<path d="M464.063,181.183l-46.525-33.06c0.368-0.953,0.59-1.98,0.59-3.063V68.256c0-4.713-3.821-8.534-8.534-8.534h-51.203
			c-4.713,0-8.534,3.821-8.534,8.534v31.774l-90.533-64.332c-1.444-1.025-3.171-1.577-4.943-1.577h-35.086
			c-1.802,0-3.559,0.571-5.016,1.629L14.037,181.236c-15.212,11.053-18.588,32.433-7.524,47.663
			c8.468,11.652,22.974,16.345,36.128,12.971v201.904c0,18.805,15.339,34.106,34.195,34.106h102.346h119.473
			c4.713,0,8.534-3.821,8.534-8.534V324.271c0-4.713-3.821-8.534-8.534-8.534H179.181c-4.713,0-8.534,3.821-8.534,8.534v136.541
			H76.835c-9.444,0-17.127-7.644-17.127-17.038V232.47L237.36,104.346l180.769,127.961v74.896c0,4.713,3.821,8.534,8.534,8.534
			c4.713,0,8.534-3.821,8.534-8.534V241.8c2.845,0.764,5.783,1.177,8.762,1.177c1.807,0,3.628-0.144,5.449-0.433
			c9-1.433,16.902-6.28,22.253-13.647C482.723,213.669,479.347,192.288,464.063,181.183z M187.715,332.804h102.406v128.007H187.715
			V332.804z M366.925,110.925V76.79h34.135v59.624l-34.252-24.339C366.861,111.696,366.925,111.32,366.925,110.925z
			 M457.851,218.867c-2.674,3.681-6.627,6.104-11.131,6.821c-4.503,0.725-9.005-0.356-12.767-3.09L242.244,86.893
			c-1.478-1.046-3.204-1.569-4.93-1.569c-1.751,0-3.502,0.538-4.992,1.613L44.133,222.659c-7.599,5.521-18.282,3.821-23.813-3.792
			c-5.532-7.615-3.85-18.301,3.748-23.822l198-143.856h29.59l202.446,143.856C461.702,200.566,463.383,211.252,457.851,218.867z"/>
	</g>
</g>
<g>
</g>
<g>
</g>
<g>
</g>
<g>
</g>
<g>
</g>
<g>
</g>
<g>
</g>
<g>
</g>
<g>
</g>
<g>
</g>
<g>
</g>
<g>
</g>
<g>
</g>
<g>
</g>
<g>
</g>
</svg>
