<?xml version="1.0" encoding="iso-8859-1"?>
<!-- Generator: Adobe Illustrator 19.0.0, SVG Export Plug-In . SVG Version: 6.00 Build 0)  -->
<svg version="1.1" id="Layer_1" xmlns="http://www.w3.org/2000/svg" xmlns:xlink="http://www.w3.org/1999/xlink" x="0px" y="0px"
	 viewBox="0 0 512 512" style="enable-background:new 0 0 512 512;" xml:space="preserve">
<g>
	<g>
		<path d="M436.455,327.348c-41.656,0-75.545,33.889-75.545,75.545s33.889,75.545,75.545,75.545S512,444.55,512,402.893
			S478.111,327.348,436.455,327.348z M436.455,461.651c-32.399,0-58.757-26.358-58.757-58.757s26.358-58.757,58.757-58.757
			s58.757,26.358,58.757,58.757S468.854,461.651,436.455,461.651z"/>
	</g>
</g>
<g>
	<g>
		<path d="M448.324,402.894l17.807-17.807c3.279-3.277,3.279-8.593,0-11.869c-3.275-3.279-8.595-3.279-11.869,0l-17.807,17.807
			l-17.806-17.807c-3.279-3.279-8.595-3.279-11.869,0c-3.279,3.277-3.279,8.593,0,11.869l17.806,17.807l-17.808,17.808
			c-3.279,3.277-3.279,8.593,0,11.869c1.637,1.639,3.787,2.459,5.935,2.459c2.148,0,4.297-0.82,5.935-2.459l17.808-17.808
			l17.807,17.808c1.639,1.639,3.787,2.459,5.935,2.459s4.297-0.82,5.935-2.459c3.279-3.277,3.279-8.593,0-11.869L448.324,402.894z"
			/>
	</g>
</g>
<g>
	<g>
		<path d="M456.456,178.213l-45.763-32.519c0.362-0.938,0.58-1.947,0.58-3.012V67.137c0-4.636-3.758-8.394-8.394-8.394h-50.363
			c-4.636,0-8.394,3.758-8.394,8.394v31.252l-89.048-63.276c-1.422-1.008-3.121-1.551-4.863-1.551H215.7
			c-1.773,0-3.5,0.562-4.935,1.603l-196.962,143.1c-14.96,10.873-18.28,31.903-7.4,46.882c8.33,11.461,22.598,16.079,35.537,12.759
			v198.593c0,18.497,15.087,33.547,33.633,33.547h100.67h117.515h50.363c4.636,0,8.394-3.758,8.394-8.394
			c0-4.635-3.758-8.394-8.394-8.394h-41.97V318.954c0-4.635-3.758-8.394-8.394-8.394H176.243c-4.636,0-8.394,3.758-8.394,8.394
			v134.303H75.574c-9.29,0-16.845-7.519-16.845-16.759v-207.84l174.739-126.023l177.805,125.864v73.668
			c0,4.636,3.758,8.394,8.394,8.394c4.636,0,8.394-3.758,8.394-8.394v-64.331c2.799,0.752,5.687,1.157,8.617,1.157
			c1.779,0,3.57-0.141,5.361-0.426c8.853-1.41,16.626-6.179,21.889-13.423C474.809,210.165,471.489,189.136,456.456,178.213z
			 M184.637,327.348h100.727v125.909H184.637V327.348z M360.909,109.106V75.531h33.576v58.646l-33.69-23.94
			C360.846,109.864,360.909,109.494,360.909,109.106z M450.345,215.278c-2.631,3.621-6.519,6.004-10.949,6.709
			c-4.418,0.713-8.857-0.35-12.556-3.039L238.273,85.468c-1.455-1.029-3.152-1.543-4.85-1.543c-1.723,0-3.445,0.529-4.91,1.586
			L43.41,219.008c-7.48,5.433-17.985,3.756-23.423-3.73c-5.441-7.49-3.787-18.001,3.687-23.432L218.428,50.349h29.104
			l199.126,141.498C454.132,197.275,455.786,207.788,450.345,215.278z"/>
	</g>
</g>
<g>
</g>
<g>
</g>
<g>
</g>
<g>
</g>
<g>
</g>
<g>
</g>
<g>
</g>
<g>
</g>
<g>
</g>
<g>
</g>
<g>
</g>
<g>
</g>
<g>
</g>
<g>
</g>
<g>
</g>
</svg>
