<?xml version="1.0" encoding="iso-8859-1"?>
<!-- Generator: Adobe Illustrator 19.0.0, SVG Export Plug-In . SVG Version: 6.00 Build 0)  -->
<svg version="1.1" id="Layer_1" xmlns="http://www.w3.org/2000/svg" xmlns:xlink="http://www.w3.org/1999/xlink" x="0px" y="0px"
	 viewBox="0 0 512 512" style="enable-background:new 0 0 512 512;" xml:space="preserve">
<g>
	<g>
		<path d="M435.196,328.537c-42.35,0-76.804,34.454-76.804,76.804c0,42.35,34.454,76.804,76.804,76.804
			c42.35,0,76.804-34.454,76.804-76.804C512,362.991,477.546,328.537,435.196,328.537z M435.196,465.079
			c-32.94,0-59.737-26.797-59.737-59.737c0-32.94,26.797-59.737,59.737-59.737c32.939,0,59.737,26.797,59.737,59.737
			C494.932,438.281,468.135,465.079,435.196,465.079z"/>
	</g>
</g>
<g>
	<g>
		<path d="M435.196,354.139c-18.822,0-34.135,15.313-34.135,34.135c0,4.713,3.821,8.534,8.534,8.534
			c4.713,0,8.534-3.821,8.534-8.534c0-9.411,7.657-17.068,17.068-17.068s17.068,7.657,17.068,17.068s-7.657,17.068-17.068,17.068
			c-4.713,0-8.534,3.821-8.534,8.534v8.534c0,4.713,3.821,8.534,8.534,8.534c4.713,0,8.534-3.821,8.534-8.534v-1.079
			c14.707-3.8,25.601-17.18,25.601-33.056C469.331,369.452,454.017,354.139,435.196,354.139z"/>
	</g>
</g>
<g>
	<g>
		<path d="M441.233,441.973c-0.385-0.383-0.833-0.748-1.302-1.067c-0.469-0.3-0.96-0.554-1.471-0.769
			c-0.512-0.212-1.046-0.383-1.6-0.49c-1.09-0.236-2.242-0.236-3.329,0c-0.554,0.106-1.088,0.277-1.6,0.49
			c-0.512,0.215-1.002,0.469-1.471,0.769c-0.471,0.319-0.919,0.683-1.302,1.067c-0.383,0.404-0.748,0.831-1.067,1.3
			c-0.298,0.471-0.554,0.961-0.769,1.473c-0.212,0.512-0.383,1.046-0.49,1.6c-0.106,0.554-0.171,1.11-0.171,1.665
			c0,2.24,0.917,4.438,2.496,6.038c1.6,1.577,3.798,2.496,6.038,2.496c0.554,0,1.108-0.065,1.665-0.171
			c0.554-0.106,1.088-0.277,1.6-0.492c0.511-0.212,1.002-0.469,1.471-0.767c0.469-0.321,0.896-0.683,1.302-1.067
			c0.383-0.406,0.746-0.833,1.067-1.302c0.298-0.469,0.554-0.96,0.767-1.473c0.215-0.511,0.385-1.044,0.492-1.6
			c0.106-0.554,0.171-1.108,0.171-1.663C443.729,445.771,442.81,443.573,441.233,441.973z"/>
	</g>
</g>
<g>
	<g>
		<path d="M464.064,176.916l-46.526-33.061c0.368-0.953,0.59-1.979,0.59-3.062V63.989c0-4.713-3.821-8.534-8.534-8.534h-51.203
			c-4.713,0-8.534,3.821-8.534,8.534v31.773l-90.532-64.331c-1.446-1.025-3.173-1.577-4.944-1.577h-35.085
			c-1.802,0-3.559,0.571-5.017,1.629L14.034,176.968c-15.209,11.055-18.584,32.435-7.523,47.663
			c8.469,11.653,22.974,16.347,36.129,12.972v201.903c0,18.805,15.339,34.106,34.194,34.106h102.348h119.473h51.203
			c4.713,0,8.534-3.821,8.534-8.534c0-4.713-3.821-8.534-8.534-8.534h-42.669V320.004c0-4.713-3.821-8.534-8.534-8.534H179.181
			c-4.713,0-8.534,3.821-8.534,8.534v136.541H76.833c-9.444,0-17.126-7.644-17.126-17.038V228.203l177.652-128.124L418.128,228.04
			v74.896c0,4.713,3.821,8.534,8.534,8.534c4.713,0,8.534-3.821,8.534-8.534v-65.403c2.845,0.764,5.782,1.177,8.761,1.177
			c1.809,0,3.629-0.144,5.45-0.433c9.001-1.433,16.903-6.282,22.253-13.647C482.723,209.401,479.348,188.021,464.064,176.916z
			 M187.715,328.537h102.406v128.007H187.715V328.537z M366.925,106.658V72.523h34.135v59.624l-34.251-24.339
			C366.86,107.428,366.925,107.052,366.925,106.658z M457.851,214.6c-2.675,3.682-6.627,6.104-11.132,6.821
			c-4.494,0.725-9.005-0.356-12.765-3.09L242.245,82.626c-1.479-1.046-3.204-1.569-4.931-1.569c-1.752,0-3.502,0.538-4.992,1.613
			L44.134,218.392c-7.605,5.523-18.284,3.819-23.814-3.792c-5.532-7.615-3.85-18.301,3.748-23.822L222.069,46.921h29.589
			l202.445,143.856C461.701,196.296,463.382,206.985,457.851,214.6z"/>
	</g>
</g>
<g>
</g>
<g>
</g>
<g>
</g>
<g>
</g>
<g>
</g>
<g>
</g>
<g>
</g>
<g>
</g>
<g>
</g>
<g>
</g>
<g>
</g>
<g>
</g>
<g>
</g>
<g>
</g>
<g>
</g>
</svg>
