<?xml version="1.0" encoding="iso-8859-1"?>
<!-- Generator: Adobe Illustrator 19.0.0, SVG Export Plug-In . SVG Version: 6.00 Build 0)  -->
<svg version="1.1" id="Layer_1" xmlns="http://www.w3.org/2000/svg" xmlns:xlink="http://www.w3.org/1999/xlink" x="0px" y="0px"
	 viewBox="0 0 512 512" style="enable-background:new 0 0 512 512;" xml:space="preserve">
<g>
	<g>
		<path d="M479.933,0H32.066C14.357,0,0,14.357,0,32.066v447.867C0,497.643,14.356,512,32.066,512h447.868
			C497.643,512,512,497.643,512,479.934V32.066C512,14.357,497.643,0,479.933,0z M490.667,479.934
			c0,5.928-4.805,10.733-10.733,10.733H32.066c-5.927,0-10.732-4.805-10.732-10.733V32.066c0-5.928,4.805-10.733,10.732-10.733
			h447.868c5.928,0,10.733,4.805,10.733,10.733V479.934z"/>
	</g>
</g>
<g>
	<g>
		<rect x="144.747" y="122.88" width="24.661" height="261.12"/>
	</g>
</g>
<g>
	<g>
		<path d="M378.667,122.88v103.36c-7.011-11.606-16.621-20.371-28.832-26.294c-12.211-5.922-24.963-8.885-38.261-8.885
			c-14.264,0-26.656,2.72-37.173,8.16c-10.517,5.44-19.221,12.693-26.112,21.76c-6.891,9.067-12.029,19.646-15.413,31.734
			c-3.385,12.088-5.077,24.661-5.077,37.717c0,13.781,1.571,26.717,4.715,38.805c3.143,12.088,8.16,22.546,15.051,31.37
			c6.891,8.824,15.655,15.776,26.293,20.854c10.637,5.077,23.573,7.616,38.805,7.616c6.045,0,12.211-0.846,18.496-2.539
			c6.286-1.693,12.392-4.109,18.315-7.253s11.363-7.072,16.32-11.786c4.957-4.715,9.005-10.216,12.149-16.501h0.726V384h21.76
			V122.88H378.667z M374.496,321.078c-2.782,9.792-6.829,18.253-12.149,25.387c-5.32,7.133-11.968,12.755-19.947,16.864
			c-7.979,4.109-17.045,6.165-27.2,6.165c-9.187,0-17.651-1.632-25.387-4.896c-7.736-3.264-14.507-8.04-20.309-14.326
			c-5.803-6.285-10.336-13.963-13.6-23.029c-3.264-9.067-4.896-19.523-4.896-31.371c-0.483-11.848,0.483-22.909,2.901-33.183
			c2.418-10.275,6.286-19.283,11.605-27.019c5.32-7.736,12.088-13.842,20.309-18.314c8.221-4.472,18.013-6.71,29.376-6.71
			c9.912,0,18.797,2.115,26.656,6.347c7.858,4.232,14.506,9.912,19.947,17.045c5.44,7.133,9.611,15.475,12.512,25.024
			c2.901,9.549,4.352,19.645,4.352,30.283C378.667,300.706,377.277,311.285,374.496,321.078z"/>
	</g>
</g>
<g>
</g>
<g>
</g>
<g>
</g>
<g>
</g>
<g>
</g>
<g>
</g>
<g>
</g>
<g>
</g>
<g>
</g>
<g>
</g>
<g>
</g>
<g>
</g>
<g>
</g>
<g>
</g>
<g>
</g>
</svg>
