<?xml version="1.0" encoding="iso-8859-1"?>
<!-- Generator: Adobe Illustrator 19.0.0, SVG Export Plug-In . SVG Version: 6.00 Build 0)  -->
<svg version="1.1" id="Layer_1" xmlns="http://www.w3.org/2000/svg" xmlns:xlink="http://www.w3.org/1999/xlink" x="0px" y="0px"
	 viewBox="0 0 512 512" style="enable-background:new 0 0 512 512;" xml:space="preserve">
<g>
	<g>
		<path d="M494.479,138.557L364.04,3.018C362.183,1.09,359.621,0,356.945,0h-194.41c-21.757,0-39.458,17.694-39.458,39.442v137.789
			H44.29c-16.278,0-29.521,13.239-29.521,29.513v147.744C14.769,370.761,28.012,384,44.29,384h78.787v88.627
			c0,21.71,17.701,39.373,39.458,39.373h295.238c21.757,0,39.458-17.653,39.458-39.351V145.385
			C497.231,142.839,496.244,140.392,494.479,138.557z M359.385,26.581l107.079,111.265H359.385V26.581z M44.29,364.308
			c-5.42,0-9.828-4.405-9.828-9.82V206.744c0-5.415,4.409-9.821,9.828-9.821h265.882c5.42,0,9.828,4.406,9.828,9.821v147.744
			c0,5.415-4.409,9.82-9.828,9.82H44.29z M477.538,472.649c0,10.84-8.867,19.659-19.766,19.659H162.535
			c-10.899,0-19.766-8.828-19.766-19.68V384h167.403c16.278,0,29.521-13.239,29.521-29.512V206.744
			c0-16.274-13.243-29.513-29.521-29.513H142.769V39.442c0-10.891,8.867-19.75,19.766-19.75h177.157v128
			c0,5.438,4.409,9.846,9.846,9.846h128V472.649z"/>
	</g>
</g>
<g>
	<g>
		<path d="M246.615,279.576v14.25h19.558v10.733c-2.577,1.999-5.664,3.699-9.26,5.105c-3.596,1.403-7.183,2.105-10.76,2.105
			c-7.231,0-13.077-2.508-17.538-7.528c-4.462-5.019-6.692-12.549-6.692-22.587c0-9.307,2.202-16.328,6.606-21.059
			c4.404-4.731,10.336-7.097,17.798-7.097c4.923,0,9.029,1.204,12.317,3.606c3.288,2.405,5.528,5.684,6.722,9.837l16.96-3.173
			c-1.691-7.769-5.489-13.856-11.394-18.26c-5.903-4.404-14.105-6.605-24.605-6.605c-8.077,0-14.827,1.403-20.25,4.212
			c-7.115,3.653-12.519,8.903-16.211,15.749c-3.692,6.846-5.538,14.673-5.538,23.48c0,8.116,1.654,15.626,4.961,22.528
			c3.308,6.905,8.25,12.212,14.827,15.924c6.577,3.712,14.288,5.568,23.135,5.568c6.962,0,13.836-1.317,20.625-3.953
			c6.789-2.634,11.97-5.681,15.55-9.142v-33.694H246.615z"/>
	</g>
</g>
<g>
	<g>
		<path d="M188.346,249.895c-3.269-4.251-7.327-7.01-12.173-8.281c-3.154-0.847-9.923-1.267-20.308-1.267h-27.404v84.576h17.077
			v-31.904h11.135c7.731,0,13.635-0.404,17.711-1.211c3-0.655,5.952-1.992,8.856-4.01s5.298-4.798,7.183-8.337
			c1.885-3.537,2.827-7.904,2.827-13.096C193.25,259.636,191.615,254.144,188.346,249.895z M173.721,273.174
			c-1.288,1.883-3.067,3.269-5.337,4.153c-2.269,0.883-6.769,1.326-13.5,1.326h-9.346v-24h8.25c6.154,0,10.25,0.192,12.288,0.576
			c2.769,0.502,5.058,1.75,6.865,3.751c1.808,1.999,2.712,4.539,2.712,7.616C175.654,269.095,175.01,271.288,173.721,273.174z"/>
	</g>
</g>
<g>
	<g>
		<path d="M93.269,240.347v54.633c0,6.846-0.788,11.355-2.365,13.529c-1.577,2.174-4.269,3.259-8.077,3.259
			c-3.769,0-6.577-1.518-8.423-4.557c-1.231-2.001-1.942-5.423-2.135-10.269l-16.096,1.846c0.038,9.039,2.308,15.894,6.808,20.566
			c4.5,4.674,10.923,7.01,19.269,7.01c7.115,0,12.846-1.492,17.192-4.47c4.346-2.981,7.346-6.934,9-11.857
			c1.231-3.768,1.846-9.154,1.846-16.152v-53.538H93.269z"/>
	</g>
</g>
<g>
</g>
<g>
</g>
<g>
</g>
<g>
</g>
<g>
</g>
<g>
</g>
<g>
</g>
<g>
</g>
<g>
</g>
<g>
</g>
<g>
</g>
<g>
</g>
<g>
</g>
<g>
</g>
<g>
</g>
</svg>
