<?xml version="1.0" encoding="iso-8859-1"?>
<!-- Generator: Adobe Illustrator 19.0.0, SVG Export Plug-In . SVG Version: 6.00 Build 0)  -->
<svg version="1.1" id="Layer_1" xmlns="http://www.w3.org/2000/svg" xmlns:xlink="http://www.w3.org/1999/xlink" x="0px" y="0px"
	 viewBox="0 0 512 512" style="enable-background:new 0 0 512 512;" xml:space="preserve">
<g>
	<g>
		<path d="M502.329,126.75H76.79c-5.341,0-9.671,4.33-9.671,9.671v309.483c0,5.341,4.33,9.671,9.671,9.671h425.539
			c5.341,0,9.671-4.33,9.671-9.671V136.421C512,131.08,507.67,126.75,502.329,126.75z M492.657,436.233H86.461v-290.14h406.196
			V436.233z"/>
	</g>
</g>
<g>
	<g>
		<path d="M475.085,92.203l-7.665-28.608c-0.663-2.478-2.284-4.59-4.506-5.873c-2.222-1.283-4.863-1.632-7.339-0.966L307.262,96.496
			c-5.159,1.383-8.222,6.686-6.839,11.845c1.158,4.321,5.066,7.171,9.336,7.171c0.829,0,1.67-0.107,2.509-0.332l138.97-37.238
			l5.163,19.266c1.383,5.158,6.683,8.217,11.845,6.839C473.405,102.665,476.467,97.362,475.085,92.203z"/>
	</g>
</g>
<g>
	<g>
		<path d="M59.266,333.972l-37.75-140.885l18.751-5.024c5.159-1.383,8.222-6.686,6.839-11.845c-1.383-5.16-6.692-8.219-11.845-6.839
			l-28.093,7.527c-2.478,0.663-4.59,2.284-5.872,4.506c-1.283,2.222-1.63,4.862-0.967,7.339l40.253,150.227
			c1.158,4.321,5.066,7.171,9.336,7.171c0.829,0,1.67-0.107,2.509-0.332C57.586,344.434,60.649,339.131,59.266,333.972z"/>
	</g>
</g>
<g>
	<g>
		<path d="M453.972,213.792H347.587c-5.341,0-9.671,4.33-9.671,9.671v96.713c0,5.341,4.33,9.671,9.671,9.671h106.385
			c5.341,0,9.671-4.33,9.671-9.671v-96.713C463.643,218.122,459.313,213.792,453.972,213.792z M444.301,310.505h-87.042v-77.371
			h87.042V310.505z"/>
	</g>
</g>
<g>
	<g>
		<path d="M280.19,213.792H125.147c-5.341,0-9.671,4.33-9.671,9.671s4.33,9.671,9.671,9.671H280.19c5.341,0,9.671-4.33,9.671-9.671
			S285.531,213.792,280.19,213.792z"/>
	</g>
</g>
<g>
	<g>
		<path d="M280.19,262.148H125.147c-5.341,0-9.671,4.33-9.671,9.671s4.33,9.671,9.671,9.671H280.19c5.341,0,9.671-4.33,9.671-9.671
			S285.531,262.148,280.19,262.148z"/>
	</g>
</g>
<g>
	<g>
		<path d="M280.19,310.505H125.147c-5.341,0-9.671,4.33-9.671,9.671s4.33,9.671,9.671,9.671H280.19c5.341,0,9.671-4.33,9.671-9.671
			S285.531,310.505,280.19,310.505z"/>
	</g>
</g>
<g>
	<g>
		<path d="M453.972,358.862H125.147c-5.341,0-9.671,4.33-9.671,9.671c0,5.341,4.33,9.671,9.671,9.671h328.825
			c5.341,0,9.671-4.33,9.671-9.671C463.643,363.192,459.313,358.862,453.972,358.862z"/>
	</g>
</g>
<g>
</g>
<g>
</g>
<g>
</g>
<g>
</g>
<g>
</g>
<g>
</g>
<g>
</g>
<g>
</g>
<g>
</g>
<g>
</g>
<g>
</g>
<g>
</g>
<g>
</g>
<g>
</g>
<g>
</g>
</svg>
