<?xml version="1.0" encoding="iso-8859-1"?>
<!-- Generator: Adobe Illustrator 19.0.0, SVG Export Plug-In . SVG Version: 6.00 Build 0)  -->
<svg version="1.1" id="Layer_1" xmlns="http://www.w3.org/2000/svg" xmlns:xlink="http://www.w3.org/1999/xlink" x="0px" y="0px"
	 viewBox="0 0 512 512" style="enable-background:new 0 0 512 512;" xml:space="preserve">
<g>
	<g>
		<path d="M409.66,409.969l-60.746-60.746c-3.385-3.39-8.886-3.39-12.271,0c-3.39,3.388-3.39,8.883,0,12.271l45.93,45.932h-100.54
			c-4.792,0-8.678,3.885-8.678,8.678c0,4.792,3.886,8.678,8.678,8.678h100.54l-45.93,45.932c-3.39,3.388-3.39,8.883,0,12.271
			c1.693,1.695,3.915,2.542,6.135,2.542s4.443-0.847,6.135-2.542l60.746-60.746C413.05,418.852,413.05,413.356,409.66,409.969z"/>
	</g>
</g>
<g>
	<g>
		<path d="M256,78.101c-43.066,0-78.101,35.036-78.101,78.101c0,43.066,35.036,78.101,78.101,78.101
			c43.065,0,78.101-35.036,78.101-78.101C334.101,113.137,299.065,78.101,256,78.101z M256,216.948
			c-33.496,0-60.745-27.25-60.745-60.746c0-33.496,27.25-60.745,60.745-60.745s60.745,27.25,60.745,60.745
			C316.745,189.698,289.496,216.948,256,216.948z"/>
	</g>
</g>
<g>
	<g>
		<path d="M256,0C169.869,0,99.797,70.072,99.797,156.203c0,133.93,40.915,222.944,75.237,274.035
			c37.485,55.798,74.801,79.464,76.37,80.445c1.43,0.892,3.017,1.318,4.587,1.318c2.894-0.002,5.725-1.449,7.371-4.085
			c2.536-4.066,1.299-9.42-2.767-11.958c-0.354-0.22-35.718-22.648-71.154-75.398c-32.977-49.089-72.288-134.8-72.288-264.357
			c0-76.561,62.286-138.847,138.847-138.847s138.847,62.286,138.847,138.847c0,58.235-7.873,112.605-23.398,161.607
			c-1.447,4.568,1.083,9.445,5.653,10.894c4.559,1.439,9.447-1.083,10.894-5.653c16.063-50.697,24.208-106.834,24.208-166.849
			C412.203,70.072,342.131,0,256,0z"/>
	</g>
</g>
<g>
</g>
<g>
</g>
<g>
</g>
<g>
</g>
<g>
</g>
<g>
</g>
<g>
</g>
<g>
</g>
<g>
</g>
<g>
</g>
<g>
</g>
<g>
</g>
<g>
</g>
<g>
</g>
<g>
</g>
</svg>
