<?xml version="1.0" encoding="iso-8859-1"?>
<!-- Generator: Adobe Illustrator 19.0.0, SVG Export Plug-In . SVG Version: 6.00 Build 0)  -->
<svg version="1.1" id="Layer_1" xmlns="http://www.w3.org/2000/svg" xmlns:xlink="http://www.w3.org/1999/xlink" x="0px" y="0px"
	 viewBox="0 0 512 512" style="enable-background:new 0 0 512 512;" xml:space="preserve">
<g>
	<g>
		<path d="M427.434,409.761c-1.021-3.142-3.736-5.43-7.005-5.905l-41.108-5.975l-18.383-37.25c-1.462-2.962-4.479-4.837-7.782-4.837
			s-6.32,1.875-7.782,4.837l-18.384,37.25l-41.107,5.975c-3.269,0.475-5.984,2.763-7.005,5.905
			c-1.021,3.142-0.169,6.591,2.196,8.896l29.746,28.996l-7.022,40.943c-0.558,3.254,0.78,6.544,3.452,8.487
			c2.671,1.939,6.215,2.199,9.139,0.659l36.768-19.328l36.768,19.328c1.269,0.669,2.656,0.998,4.037,0.998
			c1.8,0,3.59-0.559,5.102-1.657c2.673-1.943,4.01-5.233,3.452-8.487l-7.022-40.943l29.746-28.996
			C427.604,416.352,428.456,412.903,427.434,409.761z M380.112,438.409c-2.046,1.994-2.979,4.867-2.496,7.68l4.821,28.108
			l-25.243-13.269c-1.264-0.665-2.652-0.998-4.038-0.998s-2.774,0.333-4.038,0.998l-25.243,13.269l4.821-28.108
			c0.483-2.814-0.45-5.686-2.496-7.68l-20.422-19.907l28.221-4.102c2.826-0.409,5.27-2.184,6.534-4.746l12.622-25.574l12.621,25.574
			c1.264,2.562,3.708,4.337,6.534,4.746l28.222,4.102L380.112,438.409z"/>
	</g>
</g>
<g>
	<g>
		<path d="M240.343,78.101c-43.066,0-78.101,35.036-78.101,78.101c0,43.066,35.036,78.101,78.101,78.101
			c43.065,0,78.101-35.036,78.101-78.101C318.444,113.137,283.409,78.101,240.343,78.101z M240.343,216.948
			c-33.496,0-60.746-27.25-60.746-60.746c0-33.496,27.25-60.745,60.746-60.745c33.496,0,60.745,27.25,60.745,60.745
			C301.089,189.698,273.839,216.948,240.343,216.948z"/>
	</g>
</g>
<g>
	<g>
		<path d="M240.343,0C154.213,0,84.14,70.072,84.14,156.203c0,133.93,40.914,222.944,75.237,274.035
			c37.485,55.798,74.801,79.464,76.37,80.445c1.43,0.892,3.018,1.318,4.587,1.318c2.895-0.002,5.725-1.449,7.37-4.085
			c2.538-4.066,1.3-9.42-2.766-11.958c-0.354-0.22-35.718-22.648-71.154-75.398c-32.978-49.089-72.288-134.8-72.288-264.357
			c0-76.561,62.287-138.847,138.847-138.847S379.19,79.642,379.19,156.203c0,58.231-7.872,112.603-23.397,161.607
			c-1.448,4.568,1.083,9.445,5.651,10.894c4.567,1.439,9.446-1.083,10.893-5.653c16.063-50.701,24.209-106.839,24.209-166.849
			C396.546,70.072,326.473,0,240.343,0z"/>
	</g>
</g>
<g>
</g>
<g>
</g>
<g>
</g>
<g>
</g>
<g>
</g>
<g>
</g>
<g>
</g>
<g>
</g>
<g>
</g>
<g>
</g>
<g>
</g>
<g>
</g>
<g>
</g>
<g>
</g>
<g>
</g>
</svg>
