<?xml version="1.0" encoding="iso-8859-1"?>
<!-- Generator: Adobe Illustrator 19.0.0, SVG Export Plug-In . SVG Version: 6.00 Build 0)  -->
<svg version="1.1" id="Layer_1" xmlns="http://www.w3.org/2000/svg" xmlns:xlink="http://www.w3.org/1999/xlink" x="0px" y="0px"
	 viewBox="0 0 512 512" style="enable-background:new 0 0 512 512;" xml:space="preserve">
<g>
	<g>
		<path d="M342.779,347.117c-43.066,0-78.101,35.036-78.101,78.101c0,43.066,35.036,78.101,78.101,78.101
			s78.101-35.036,78.101-78.101C420.881,382.153,385.845,347.117,342.779,347.117z M342.779,485.964
			c-33.496,0-60.745-27.25-60.745-60.745s27.25-60.745,60.745-60.745s60.745,27.25,60.745,60.745S376.275,485.964,342.779,485.964z"
			/>
	</g>
</g>
<g>
	<g>
		<path d="M373.459,443.627l-18.409-18.409l18.409-18.409c3.39-3.388,3.39-8.883,0-12.271c-3.39-3.39-8.886-3.39-12.271,0
			l-18.409,18.409l-18.408-18.409c-3.385-3.39-8.886-3.39-12.271,0c-3.39,3.388-3.39,8.883,0,12.271l18.408,18.408l-18.41,18.41
			c-3.39,3.388-3.39,8.883,0,12.271c1.695,1.695,3.915,2.542,6.135,2.542c2.22,0,4.443-0.847,6.135-2.542l18.41-18.41l18.409,18.41
			c1.693,1.695,3.915,2.542,6.136,2.542c2.22,0,4.443-0.847,6.135-2.542C376.849,452.511,376.849,447.015,373.459,443.627z"/>
	</g>
</g>
<g>
	<g>
		<path d="M247.322,78.101c-43.066,0-78.101,35.036-78.101,78.101c0,43.066,35.036,78.101,78.101,78.101
			c43.065,0,78.101-35.036,78.101-78.101C325.423,113.137,290.388,78.101,247.322,78.101z M247.322,216.948
			c-33.496,0-60.745-27.25-60.745-60.746c0-33.496,27.25-60.745,60.745-60.745s60.745,27.25,60.745,60.745
			C308.068,189.698,280.818,216.948,247.322,216.948z"/>
	</g>
</g>
<g>
	<g>
		<path d="M247.322,0C161.191,0,91.119,70.072,91.119,156.203c0,133.93,40.915,222.944,75.237,274.035
			c37.485,55.798,74.801,79.464,76.37,80.445c1.43,0.892,3.017,1.318,4.587,1.318c2.894-0.002,5.725-1.449,7.371-4.085
			c2.536-4.066,1.299-9.42-2.767-11.958c-0.354-0.22-35.718-22.648-71.154-75.398c-32.977-49.089-72.288-134.8-72.288-264.357
			c0-76.561,62.286-138.847,138.847-138.847s138.847,62.286,138.847,138.847c0,58.235-7.873,112.605-23.398,161.607
			c-1.447,4.568,1.083,9.445,5.653,10.894c4.559,1.439,9.447-1.083,10.894-5.653c16.063-50.697,24.208-106.834,24.208-166.849
			C403.525,70.072,333.453,0,247.322,0z"/>
	</g>
</g>
<g>
</g>
<g>
</g>
<g>
</g>
<g>
</g>
<g>
</g>
<g>
</g>
<g>
</g>
<g>
</g>
<g>
</g>
<g>
</g>
<g>
</g>
<g>
</g>
<g>
</g>
<g>
</g>
<g>
</g>
</svg>
