<?xml version="1.0" encoding="iso-8859-1"?>
<!-- Generator: Adobe Illustrator 19.0.0, SVG Export Plug-In . SVG Version: 6.00 Build 0)  -->
<svg version="1.1" id="Layer_1" xmlns="http://www.w3.org/2000/svg" xmlns:xlink="http://www.w3.org/1999/xlink" x="0px" y="0px"
	 viewBox="0 0 512 512" style="enable-background:new 0 0 512 512;" xml:space="preserve">
<g>
	<g>
		<path d="M338.44,347.117c-43.065,0-78.101,35.036-78.101,78.101c0,43.066,35.036,78.101,78.101,78.101
			c43.066,0,78.101-35.036,78.101-78.101C416.542,382.153,381.506,347.117,338.44,347.117z M338.44,485.964
			c-33.496,0-60.745-27.25-60.745-60.745s27.25-60.745,60.745-60.745s60.746,27.25,60.746,60.745S371.936,485.964,338.44,485.964z"
			/>
	</g>
</g>
<g>
	<g>
		<path d="M369.288,391.964c-3.983-2.659-9.375-1.58-12.034,2.407l-29.898,44.847l-18.814-12.542
			c-3.983-2.659-9.375-1.581-12.034,2.407s-1.58,9.375,2.407,12.034l26.034,17.356c1.479,0.987,3.15,1.458,4.805,1.458
			c2.805,0,5.557-1.356,7.229-3.864l34.712-52.068C374.353,400.011,373.275,394.623,369.288,391.964z"/>
	</g>
</g>
<g>
	<g>
		<path d="M251.661,78.101c-43.065,0-78.101,35.036-78.101,78.101c0,43.066,35.036,78.101,78.101,78.101
			c43.066,0,78.101-35.036,78.101-78.101C329.762,113.137,294.727,78.101,251.661,78.101z M251.661,216.948
			c-33.496,0-60.745-27.25-60.745-60.746c0-33.496,27.25-60.745,60.745-60.745c33.496,0,60.746,27.25,60.746,60.745
			C312.407,189.698,285.157,216.948,251.661,216.948z"/>
	</g>
</g>
<g>
	<g>
		<path d="M251.661,0C165.53,0,95.458,70.072,95.458,156.203c0,133.93,40.915,222.944,75.237,274.035
			c37.485,55.798,74.8,79.464,76.37,80.445c1.43,0.892,3.017,1.318,4.587,1.318c2.894-0.002,5.725-1.449,7.371-4.085
			c2.536-4.066,1.299-9.42-2.767-11.958c-0.354-0.22-35.718-22.648-71.154-75.398c-32.977-49.089-72.288-134.8-72.288-264.357
			c0-76.561,62.286-138.847,138.847-138.847s138.847,62.286,138.847,138.847c0,58.237-7.873,112.61-23.4,161.607
			c-1.447,4.568,1.083,9.445,5.653,10.894c4.555,1.439,9.447-1.083,10.894-5.653c16.063-50.695,24.209-106.83,24.209-166.849
			C407.864,70.072,337.792,0,251.661,0z"/>
	</g>
</g>
<g>
</g>
<g>
</g>
<g>
</g>
<g>
</g>
<g>
</g>
<g>
</g>
<g>
</g>
<g>
</g>
<g>
</g>
<g>
</g>
<g>
</g>
<g>
</g>
<g>
</g>
<g>
</g>
<g>
</g>
</svg>
