<?xml version="1.0" encoding="iso-8859-1"?>
<!-- Generator: Adobe Illustrator 19.0.0, SVG Export Plug-In . SVG Version: 6.00 Build 0)  -->
<svg version="1.1" id="Layer_1" xmlns="http://www.w3.org/2000/svg" xmlns:xlink="http://www.w3.org/1999/xlink" x="0px" y="0px"
	 viewBox="0 0 512 512" style="enable-background:new 0 0 512 512;" xml:space="preserve">
<g>
	<g>
		<path d="M342.779,355.795c-43.066,0-78.101,35.036-78.101,78.101c0,43.066,35.036,78.101,78.101,78.101
			s78.101-35.036,78.101-78.101C420.881,390.831,385.845,355.795,342.779,355.795z M342.779,494.642
			c-33.496,0-60.745-27.25-60.745-60.746c0-33.496,27.25-60.745,60.745-60.745s60.745,27.25,60.745,60.745
			C403.525,467.392,376.275,494.642,342.779,494.642z"/>
	</g>
</g>
<g>
	<g>
		<path d="M342.779,381.829c-19.14,0-34.712,15.572-34.712,34.712c0,4.792,3.886,8.678,8.678,8.678c4.792,0,8.678-3.886,8.678-8.678
			c0-9.57,7.786-17.356,17.356-17.356s17.356,7.786,17.356,17.356s-7.786,17.356-17.356,17.356c-4.792,0-8.678,3.886-8.678,8.678
			v8.678c0,4.792,3.885,8.678,8.678,8.678c4.792,0,8.678-3.886,8.678-8.678v-1.098c14.956-3.864,26.034-17.47,26.034-33.614
			C377.491,397.401,361.919,381.829,342.779,381.829z"/>
	</g>
</g>
<g>
	<g>
		<path d="M351.283,475.593c-0.108-0.564-0.282-1.106-0.5-1.627c-0.216-0.521-0.477-1.019-0.78-1.498
			c-0.326-0.477-0.695-0.911-1.085-1.322c-0.392-0.39-0.847-0.761-1.324-1.085c-0.477-0.305-0.977-0.564-1.496-0.782
			c-0.521-0.216-1.063-0.39-1.627-0.498c-2.822-0.566-5.816,0.348-7.833,2.364c-0.39,0.411-0.761,0.845-1.085,1.322
			c-0.303,0.479-0.564,0.977-0.782,1.498c-0.216,0.521-0.39,1.063-0.498,1.627c-0.108,0.564-0.173,1.129-0.173,1.693
			c0,2.278,0.932,4.513,2.538,6.14c1.627,1.604,3.862,2.538,6.14,2.538c0.564,0,1.127-0.066,1.693-0.174
			c0.564-0.108,1.106-0.282,1.627-0.5c0.519-0.216,1.019-0.477,1.496-0.78c0.477-0.326,0.911-0.695,1.324-1.085
			c1.603-1.627,2.538-3.862,2.538-6.14C351.457,476.722,351.391,476.157,351.283,475.593z"/>
	</g>
</g>
<g>
	<g>
		<path d="M247.322,78.101c-43.066,0-78.101,35.036-78.101,78.101c0,43.066,35.036,78.101,78.101,78.101
			c43.065,0,78.101-35.036,78.101-78.101C325.423,113.137,290.388,78.101,247.322,78.101z M247.322,216.948
			c-33.496,0-60.745-27.25-60.745-60.746c0-33.496,27.25-60.745,60.745-60.745s60.745,27.25,60.745,60.745
			C308.068,189.698,280.818,216.948,247.322,216.948z"/>
	</g>
</g>
<g>
	<g>
		<path d="M247.322,0C161.191,0,91.119,70.072,91.119,156.203c0,133.93,40.915,222.944,75.237,274.035
			c37.485,55.798,74.801,79.464,76.37,80.445c1.43,0.892,3.017,1.318,4.587,1.318c2.894-0.002,5.725-1.449,7.371-4.085
			c2.536-4.066,1.299-9.42-2.767-11.958c-0.354-0.22-35.718-22.648-71.154-75.398c-32.977-49.089-72.288-134.8-72.288-264.357
			c0-76.561,62.286-138.847,138.847-138.847s138.847,62.286,138.847,138.847c0,58.235-7.873,112.605-23.398,161.607
			c-1.447,4.568,1.083,9.445,5.653,10.894c4.561,1.439,9.445-1.083,10.894-5.653c16.063-50.697,24.208-106.834,24.208-166.849
			C403.525,70.072,333.453,0,247.322,0z"/>
	</g>
</g>
<g>
</g>
<g>
</g>
<g>
</g>
<g>
</g>
<g>
</g>
<g>
</g>
<g>
</g>
<g>
</g>
<g>
</g>
<g>
</g>
<g>
</g>
<g>
</g>
<g>
</g>
<g>
</g>
<g>
</g>
</svg>
