<?xml version="1.0" encoding="iso-8859-1"?>
<!-- Generator: Adobe Illustrator 19.0.0, SVG Export Plug-In . SVG Version: 6.00 Build 0)  -->
<svg version="1.1" id="Layer_1" xmlns="http://www.w3.org/2000/svg" xmlns:xlink="http://www.w3.org/1999/xlink" x="0px" y="0px"
	 viewBox="0 0 512 512" style="enable-background:new 0 0 512 512;" xml:space="preserve">
<g>
	<g>
		<path d="M445.596,498.72l-86.779-138.847c-1.586-2.536-4.367-4.078-7.359-4.078s-5.773,1.542-7.359,4.078L257.319,498.72
			c-1.672,2.676-1.761,6.047-0.231,8.807c1.529,2.758,4.435,4.47,7.59,4.47h173.559c3.155,0,6.06-1.712,7.59-4.47
			C447.356,504.767,447.267,501.396,445.596,498.72z M280.335,494.642l71.123-113.796l71.123,113.796H280.335z"/>
	</g>
</g>
<g>
	<g>
		<path d="M351.457,407.863c-4.792,0-8.678,3.886-8.678,8.678v34.712c0,4.792,3.886,8.678,8.678,8.678
			c4.792,0,8.678-3.886,8.678-8.678v-34.712C360.135,411.748,356.25,407.863,351.457,407.863z"/>
	</g>
</g>
<g>
	<g>
		<path d="M357.596,471.146c-0.412-0.39-0.845-0.761-1.323-1.085c-0.477-0.305-0.976-0.564-1.497-0.782
			c-0.52-0.216-1.062-0.39-1.627-0.498c-1.106-0.218-2.278-0.218-3.385,0c-0.564,0.108-1.106,0.282-1.627,0.498
			c-0.52,0.218-1.019,0.477-1.497,0.782c-0.477,0.324-0.911,0.695-1.323,1.085c-1.606,1.627-2.538,3.862-2.538,6.14
			s0.932,4.513,2.538,6.14c0.412,0.39,0.846,0.758,1.323,1.085c0.478,0.303,0.977,0.564,1.497,0.78
			c0.521,0.218,1.063,0.392,1.627,0.5c0.565,0.108,1.128,0.174,1.693,0.174c0.564,0,1.128-0.066,1.692-0.174
			c0.565-0.108,1.107-0.282,1.627-0.5c0.521-0.216,1.02-0.477,1.497-0.78c0.478-0.326,0.911-0.695,1.323-1.085
			c1.606-1.627,2.539-3.862,2.539-6.14S359.202,472.773,357.596,471.146z"/>
	</g>
</g>
<g>
	<g>
		<path d="M221.288,78.101c-43.065,0-78.101,35.036-78.101,78.101c0,43.066,35.036,78.101,78.101,78.101
			c43.066,0,78.101-35.036,78.101-78.101C299.39,113.137,264.354,78.101,221.288,78.101z M221.288,216.948
			c-33.496,0-60.745-27.25-60.745-60.746c0-33.496,27.25-60.745,60.745-60.745c33.496,0,60.746,27.25,60.746,60.745
			C282.034,189.698,254.784,216.948,221.288,216.948z"/>
	</g>
</g>
<g>
	<g>
		<path d="M221.288,0C135.158,0,65.086,70.072,65.086,156.203c0,133.93,40.914,222.944,75.237,274.035
			c37.485,55.798,74.8,79.464,76.37,80.445c1.43,0.892,3.018,1.318,4.587,1.318c2.895-0.002,5.725-1.449,7.37-4.085
			c2.538-4.066,1.3-9.42-2.766-11.958c-0.354-0.22-35.718-22.648-71.154-75.398c-32.978-49.089-72.288-134.8-72.288-264.357
			c0-76.561,62.287-138.847,138.847-138.847s138.847,62.286,138.847,138.847c0,58.231-7.872,112.603-23.397,161.607
			c-1.448,4.568,1.083,9.445,5.652,10.894c4.567,1.439,9.446-1.083,10.893-5.653c16.064-50.701,24.209-106.839,24.209-166.849
			C377.491,70.072,307.418,0,221.288,0z"/>
	</g>
</g>
<g>
</g>
<g>
</g>
<g>
</g>
<g>
</g>
<g>
</g>
<g>
</g>
<g>
</g>
<g>
</g>
<g>
</g>
<g>
</g>
<g>
</g>
<g>
</g>
<g>
</g>
<g>
</g>
<g>
</g>
</svg>
