<?xml version="1.0" encoding="iso-8859-1"?>
<!-- Generator: Adobe Illustrator 19.0.0, SVG Export Plug-In . SVG Version: 6.00 Build 0)  -->
<svg version="1.1" id="Layer_1" xmlns="http://www.w3.org/2000/svg" xmlns:xlink="http://www.w3.org/1999/xlink" x="0px" y="0px"
	 viewBox="0 0 512 512" style="enable-background:new 0 0 512 512;" xml:space="preserve">
<g>
	<g>
		<path d="M403.27,440.214l-24.546-24.547l24.546-24.544c1.627-1.627,2.541-3.835,2.541-6.135s-0.914-4.508-2.541-6.135
			l-24.544-24.544c-3.389-3.388-8.882-3.388-12.273,0l-24.544,24.542l-24.544-24.542c-3.388-3.388-8.882-3.388-12.272,0
			l-24.545,24.544c-1.628,1.627-2.542,3.835-2.542,6.135s0.914,4.508,2.541,6.135l24.546,24.544l-24.546,24.547
			c-1.627,1.627-2.541,3.835-2.541,6.135s0.914,4.508,2.542,6.135l24.545,24.544c3.388,3.39,8.882,3.39,12.272,0l24.544-24.542
			l24.544,24.542c1.695,1.695,3.916,2.542,6.137,2.542c2.22,0,4.442-0.847,6.137-2.542l24.544-24.544
			C406.658,449.098,406.658,443.602,403.27,440.214z M372.588,458.621l-24.544-24.542c-3.39-3.39-8.883-3.39-12.273,0
			l-24.544,24.542l-12.273-12.271l24.546-24.547c1.627-1.627,2.541-3.835,2.541-6.135c0-2.301-0.914-4.508-2.541-6.135
			l-24.546-24.544l12.273-12.271l24.544,24.542c3.39,3.39,8.883,3.39,12.273,0l24.544-24.542l12.272,12.271l-24.545,24.544
			c-1.627,1.627-2.541,3.835-2.541,6.135c0,2.301,0.914,4.508,2.541,6.135l24.545,24.547L372.588,458.621z"/>
	</g>
</g>
<g>
	<g>
		<path d="M256,78.101c-43.066,0-78.101,35.036-78.101,78.101c0,43.066,35.036,78.101,78.101,78.101
			c43.065,0,78.101-35.036,78.101-78.101C334.101,113.137,299.065,78.101,256,78.101z M256,216.948
			c-33.496,0-60.745-27.25-60.745-60.746c0-33.496,27.25-60.745,60.745-60.745s60.745,27.25,60.745,60.745
			C316.745,189.698,289.496,216.948,256,216.948z"/>
	</g>
</g>
<g>
	<g>
		<path d="M256,0C169.87,0,99.797,70.072,99.797,156.203c0,133.93,40.914,222.944,75.237,274.035
			c37.485,55.798,74.801,79.464,76.37,80.445c1.43,0.892,3.018,1.318,4.587,1.318c2.895-0.002,5.725-1.449,7.37-4.085
			c2.538-4.066,1.3-9.42-2.766-11.958c-0.354-0.22-35.718-22.648-71.154-75.398c-32.978-49.089-72.288-134.8-72.288-264.357
			c0-76.561,62.287-138.847,138.847-138.847s138.847,62.286,138.847,138.847c0,58.231-7.872,112.603-23.397,161.607
			c-1.448,4.568,1.083,9.445,5.651,10.894c4.565,1.439,9.446-1.083,10.893-5.653c16.063-50.701,24.209-106.839,24.209-166.849
			C412.203,70.072,342.13,0,256,0z"/>
	</g>
</g>
<g>
</g>
<g>
</g>
<g>
</g>
<g>
</g>
<g>
</g>
<g>
</g>
<g>
</g>
<g>
</g>
<g>
</g>
<g>
</g>
<g>
</g>
<g>
</g>
<g>
</g>
<g>
</g>
<g>
</g>
</svg>
