<?xml version="1.0" encoding="iso-8859-1"?>
<!-- Generator: Adobe Illustrator 19.0.0, SVG Export Plug-In . SVG Version: 6.00 Build 0)  -->
<svg version="1.1" id="Layer_1" xmlns="http://www.w3.org/2000/svg" xmlns:xlink="http://www.w3.org/1999/xlink" x="0px" y="0px"
	 viewBox="0 0 512 512" style="enable-background:new 0 0 512 512;" xml:space="preserve">
<g>
	<g>
		<path d="M342.779,347.117c-43.066,0-78.101,35.036-78.101,78.101c0,43.066,35.036,78.101,78.101,78.101
			s78.101-35.036,78.101-78.101C420.881,382.153,385.845,347.117,342.779,347.117z M342.779,485.964
			c-33.496,0-60.745-27.25-60.745-60.745s27.25-60.745,60.745-60.745s60.745,27.25,60.745,60.745S376.275,485.964,342.779,485.964z"
			/>
	</g>
</g>
<g>
	<g>
		<path d="M377.491,416.541h-26.034v-26.034c0-4.792-3.886-8.678-8.678-8.678c-4.792,0-8.678,3.886-8.678,8.678v26.034h-26.034
			c-4.792,0-8.678,3.886-8.678,8.678c0,4.792,3.886,8.678,8.678,8.678h26.034v26.034c0,4.792,3.885,8.678,8.678,8.678
			c4.792,0,8.678-3.886,8.678-8.678v-26.034h26.034c4.792,0,8.678-3.885,8.678-8.678
			C386.169,420.426,382.283,416.541,377.491,416.541z"/>
	</g>
</g>
<g>
	<g>
		<path d="M247.322,78.101c-43.066,0-78.101,35.036-78.101,78.101c0,43.066,35.036,78.101,78.101,78.101
			c43.065,0,78.101-35.036,78.101-78.101C325.423,113.137,290.388,78.101,247.322,78.101z M247.322,216.948
			c-33.496,0-60.745-27.25-60.745-60.746c0-33.496,27.25-60.745,60.745-60.745s60.745,27.25,60.745,60.745
			C308.068,189.698,280.818,216.948,247.322,216.948z"/>
	</g>
</g>
<g>
	<g>
		<path d="M247.322,0C161.191,0,91.119,70.072,91.119,156.203c0,133.93,40.915,222.944,75.237,274.035
			c37.485,55.798,74.801,79.464,76.37,80.445c1.43,0.892,3.017,1.318,4.587,1.318c2.894-0.002,5.725-1.449,7.371-4.085
			c2.536-4.066,1.299-9.42-2.767-11.958c-0.354-0.22-35.718-22.648-71.154-75.398c-32.977-49.089-72.288-134.8-72.288-264.357
			c0-76.561,62.286-138.847,138.847-138.847s138.847,62.286,138.847,138.847c0,58.235-7.873,112.605-23.398,161.607
			c-1.447,4.568,1.083,9.445,5.653,10.894c4.561,1.439,9.445-1.083,10.894-5.653c16.063-50.697,24.208-106.834,24.208-166.849
			C403.525,70.072,333.453,0,247.322,0z"/>
	</g>
</g>
<g>
</g>
<g>
</g>
<g>
</g>
<g>
</g>
<g>
</g>
<g>
</g>
<g>
</g>
<g>
</g>
<g>
</g>
<g>
</g>
<g>
</g>
<g>
</g>
<g>
</g>
<g>
</g>
<g>
</g>
</svg>
