<?xml version="1.0" encoding="iso-8859-1"?>
<!-- Generator: Adobe Illustrator 19.0.0, SVG Export Plug-In . SVG Version: 6.00 Build 0)  -->
<svg version="1.1" id="Layer_1" xmlns="http://www.w3.org/2000/svg" xmlns:xlink="http://www.w3.org/1999/xlink" x="0px" y="0px"
	 viewBox="0 0 512 512" style="enable-background:new 0 0 512 512;" xml:space="preserve">
<g>
	<g>
		<path d="M256,78.102c-43.066,0-78.102,35.036-78.102,78.102c0,43.066,35.036,78.102,78.102,78.102s78.102-35.036,78.102-78.102
			C334.102,113.138,299.066,78.102,256,78.102z M256,216.949c-33.496,0-60.746-27.25-60.746-60.746
			c0-33.496,27.25-60.746,60.746-60.746s60.746,27.25,60.746,60.746C316.746,189.699,289.496,216.949,256,216.949z"/>
	</g>
</g>
<g>
	<g>
		<path d="M256,0C169.87,0,99.797,70.072,99.797,156.203c0,133.93,40.914,222.945,75.237,274.036
			c37.485,55.799,74.801,79.464,76.371,80.445c1.407,0.877,3.001,1.316,4.595,1.316c1.594,0,3.189-0.438,4.595-1.316
			c1.57-0.981,38.886-24.646,76.371-80.445c34.323-51.091,75.237-140.106,75.237-274.036C412.203,70.072,342.13,0,256,0z
			 M323.124,419.72c-27.999,41.93-56.306,65.059-67.136,73.032c-10.734-7.875-38.619-30.614-66.548-72.191
			c-32.978-49.089-72.288-134.801-72.288-264.358c0-76.561,62.287-138.847,138.847-138.847s138.847,62.286,138.847,138.847
			C394.847,285.22,355.843,370.716,323.124,419.72z"/>
	</g>
</g>
<g>
</g>
<g>
</g>
<g>
</g>
<g>
</g>
<g>
</g>
<g>
</g>
<g>
</g>
<g>
</g>
<g>
</g>
<g>
</g>
<g>
</g>
<g>
</g>
<g>
</g>
<g>
</g>
<g>
</g>
</svg>
