<?xml version="1.0" encoding="iso-8859-1"?>
<!-- Generator: Adobe Illustrator 19.0.0, SVG Export Plug-In . SVG Version: 6.00 Build 0)  -->
<svg version="1.1" id="Layer_1" xmlns="http://www.w3.org/2000/svg" xmlns:xlink="http://www.w3.org/1999/xlink" x="0px" y="0px"
	 viewBox="0 0 512 512" style="enable-background:new 0 0 512 512;" xml:space="preserve">
<g>
	<g>
		<path d="M440.324,138.557L309.885,3.018C308.029,1.09,305.469,0,302.791,0H108.38C86.623,0,68.923,17.653,68.923,39.351v433.298
			c0,21.698,17.699,39.351,39.457,39.351h295.24c21.757,0,39.457-17.653,39.457-39.351V145.385
			C443.077,142.839,442.091,140.392,440.324,138.557z M305.231,26.581L412.31,137.846H305.231V26.581z M423.385,472.649
			c0,10.84-8.865,19.659-19.764,19.659H108.38c-10.899,0-19.764-8.818-19.764-19.659V39.351c0-10.84,8.865-19.659,19.764-19.659
			h177.159v128c0,5.438,4.409,9.846,9.846,9.846h128V472.649z"/>
	</g>
</g>
<g>
	<g>
		<path d="M268.207,232.943c-3.138-6.417-7.281-11.407-12.428-14.966c-5.147-3.562-11.527-5.977-19.143-7.247
			c-5.43-0.987-13.293-1.479-23.586-1.479h-58.491v155.057h20.519V301.27h39.769c21.93,0,37.091-4.567,45.482-13.699
			c8.391-9.13,12.586-20.29,12.586-33.474C272.913,246.41,271.345,239.36,268.207,232.943z M243.405,275.567
			c-5.57,4.936-14.984,7.405-28.241,7.405h-40.086v-55.424h39.663c9.31,0,15.69,0.46,19.146,1.376
			c5.359,1.482,9.676,4.529,12.955,9.15c3.279,4.618,4.918,10.171,4.918,16.657C251.759,263.685,248.975,270.632,243.405,275.567z"
			/>
	</g>
</g>
<g>
	<g>
		<path d="M377.73,315.02c-3.033-4.372-7.21-7.705-12.534-9.996c-5.322-2.291-14.718-5.236-28.188-8.832
			c-9.307-2.537-14.912-4.16-16.817-4.864c-3.313-1.342-5.748-3.032-7.298-5.078c-1.551-1.974-2.326-4.195-2.326-6.663
			c0-3.877,1.868-7.262,5.605-10.154c3.739-2.89,9.979-4.337,18.722-4.337c7.405,0,13.132,1.622,17.186,4.867
			c4.054,3.244,6.506,7.756,7.353,13.538l18.614-2.538c-1.199-7.264-3.385-13.064-6.558-17.401
			c-3.173-4.335-8.091-7.773-14.754-10.311c-6.663-2.538-14.403-3.808-23.217-3.808c-5.851,0-11.335,0.758-16.445,2.275
			c-5.113,1.516-9.15,3.367-12.111,5.554c-3.951,2.818-7.07,6.363-9.362,10.629c-2.291,4.266-3.439,8.903-3.439,13.907
			c0,5.502,1.394,10.526,4.18,15.072c2.784,4.549,6.875,8.111,12.269,10.683c5.393,2.575,15.072,5.624,29.034,9.15
			c10.365,2.609,16.851,4.76,19.461,6.451c3.737,2.469,5.608,5.854,5.608,10.154c0,4.795-2.117,8.972-6.349,12.534
			c-4.229,3.562-10.718,5.342-19.461,5.342c-8.672,0-15.424-2.011-20.254-6.029c-4.832-4.019-7.776-9.802-8.832-17.346
			l-18.828,2.961c2.117,11.917,6.998,20.906,14.651,26.971c7.65,6.063,18.772,9.096,33.368,9.096c8.815,0,16.712-1.534,23.692-4.6
			c6.981-3.067,12.323-7.405,16.025-13.01c3.703-5.605,5.554-11.581,5.554-17.927C382.28,324.819,380.763,319.391,377.73,315.02z"/>
	</g>
</g>
<g>
</g>
<g>
</g>
<g>
</g>
<g>
</g>
<g>
</g>
<g>
</g>
<g>
</g>
<g>
</g>
<g>
</g>
<g>
</g>
<g>
</g>
<g>
</g>
<g>
</g>
<g>
</g>
<g>
</g>
</svg>
