<?xml version="1.0" encoding="iso-8859-1"?>
<!-- Generator: Adobe Illustrator 19.0.0, SVG Export Plug-In . SVG Version: 6.00 Build 0)  -->
<svg version="1.1" id="Layer_1" xmlns="http://www.w3.org/2000/svg" xmlns:xlink="http://www.w3.org/1999/xlink" x="0px" y="0px"
	 viewBox="0 0 512 512" style="enable-background:new 0 0 512 512;" xml:space="preserve">
<g>
	<g>
		<path d="M479.934,0H32.066C14.357,0,0,14.357,0,32.066v447.867C0,497.643,14.356,512,32.066,512h447.869
			C497.643,512,512,497.643,512,479.934V32.066C512,14.357,497.644,0,479.934,0z M490.667,479.934
			c0,5.928-4.805,10.733-10.732,10.733H32.066c-5.927,0-10.732-4.805-10.732-10.733V32.066c0-5.928,4.805-10.733,10.732-10.733
			h447.869c5.927,0,10.732,4.805,10.732,10.733V479.934z"/>
	</g>
</g>
<g>
	<g>
		<path d="M258.421,168.032c-2.539-8.824-7.011-16.621-13.419-23.392c-6.407-6.771-15.111-12.088-26.112-15.957
			c-11.001-3.87-24.964-5.803-41.888-5.803H81.621V384h24.661V268.672h55.851c12.089,0,24.117-1.088,36.085-3.264
			c11.968-2.177,22.667-5.984,32.096-11.425c9.429-5.439,17.106-12.874,23.029-22.304c5.923-9.429,8.885-21.397,8.885-35.904
			C262.229,186.104,260.96,176.856,258.421,168.032z M232.309,220.981c-3.506,6.891-8.462,12.331-14.869,16.32
			c-6.407,3.989-14.204,6.709-23.392,8.16c-9.188,1.45-19.584,2.176-31.189,2.176h-56.576V143.915h63.829
			c23.453,0,40.558,4.232,51.317,12.693c10.759,8.461,16.139,20.915,16.139,37.355C237.568,205.085,235.815,214.09,232.309,220.981z
			"/>
	</g>
</g>
<g>
	<g>
		<path d="M430.688,306.026c-5.923-6.771-13.358-12.148-22.304-16.138c-8.946-3.99-18.617-7.072-29.013-9.248
			c-10.397-2.176-20.067-4.653-29.013-7.435c-8.946-2.781-16.381-6.407-22.304-10.88c-5.923-4.472-8.885-10.941-8.885-19.403
			c0-9.672,3.627-17.469,10.88-23.392c7.253-5.922,17.771-8.885,31.552-8.885c13.781,0,25.205,2.963,34.272,8.885
			c9.067,5.922,14.567,16.139,16.501,30.645h22.123c-2.659-21.277-10.336-36.448-23.029-45.514
			c-12.693-9.067-29.195-13.6-49.504-13.6c-21.035,0-37.294,5.016-48.779,15.051c-11.484,10.034-17.227,22.91-17.227,38.624
			c0,12.331,2.962,21.88,8.885,28.651c5.923,6.771,13.358,11.968,22.304,15.594c8.946,3.627,18.617,6.347,29.013,8.16
			c10.396,1.813,20.067,3.99,29.013,6.528c8.946,2.538,16.381,6.046,22.304,10.518c5.923,4.472,8.885,11.304,8.885,20.49
			c0,4.595-0.967,8.947-2.901,13.056c-1.934,4.109-4.775,7.798-8.523,11.062c-3.747,3.264-8.523,5.864-14.325,7.797
			c-5.803,1.934-12.693,2.902-20.672,2.902c-16.441,0-29.074-3.326-37.899-9.973c-8.825-6.648-14.93-18.072-18.315-34.272h-22.123
			c0.483,8.947,2.418,17.288,5.803,25.024c3.385,7.736,8.099,14.506,14.144,20.309c6.044,5.803,13.358,10.336,21.941,13.6
			c8.583,3.264,18.435,4.896,29.557,4.896s21.337-1.15,30.645-3.445c9.309-2.296,17.347-5.742,24.117-10.336
			c6.77-4.595,12.089-10.336,15.957-17.227c3.869-6.891,5.803-14.808,5.803-23.755C439.573,322.226,436.612,312.797,430.688,306.026
			z"/>
	</g>
</g>
<g>
</g>
<g>
</g>
<g>
</g>
<g>
</g>
<g>
</g>
<g>
</g>
<g>
</g>
<g>
</g>
<g>
</g>
<g>
</g>
<g>
</g>
<g>
</g>
<g>
</g>
<g>
</g>
<g>
</g>
</svg>
