<?xml version="1.0" encoding="iso-8859-1"?>
<!-- Generator: Adobe Illustrator 19.0.0, SVG Export Plug-In . SVG Version: 6.00 Build 0)  -->
<svg version="1.1" id="Layer_1" xmlns="http://www.w3.org/2000/svg" xmlns:xlink="http://www.w3.org/1999/xlink" x="0px" y="0px"
	 viewBox="0 0 512 512" style="enable-background:new 0 0 512 512;" xml:space="preserve">
<g>
	<g>
		<path d="M412.444,341.333c-47.053,0-85.333,38.28-85.333,85.333S365.391,512,412.444,512s85.333-38.28,85.333-85.333
			S459.498,341.333,412.444,341.333z M412.444,493.037c-36.597,0-66.37-29.773-66.37-66.37c0-36.597,29.773-66.37,66.37-66.37
			c36.597,0,66.37,29.773,66.37,66.37C478.815,463.264,449.042,493.037,412.444,493.037z"/>
	</g>
</g>
<g>
	<g>
		<path d="M412.444,369.778c-20.912,0-37.926,17.014-37.926,37.926c0,5.236,4.245,9.481,9.482,9.481s9.482-4.245,9.482-9.481
			c0-10.456,8.507-18.963,18.963-18.963c10.456,0,18.963,8.507,18.963,18.963c0,10.456-8.507,18.963-18.963,18.963
			c-5.236,0-9.482,4.245-9.482,9.481v9.482c0,5.236,4.245,9.481,9.482,9.481s9.481-4.245,9.481-9.481v-1.199
			c16.34-4.222,28.444-19.088,28.444-36.727C450.37,386.792,433.357,369.778,412.444,369.778z"/>
	</g>
</g>
<g>
	<g>
		<path d="M419.153,467.366c-0.452-0.426-0.926-0.831-1.447-1.185c-0.521-0.331-1.067-0.616-1.634-0.854
			c-0.569-0.236-1.162-0.426-1.778-0.544c-3.083-0.641-6.354,0.38-8.558,2.583c-1.754,1.755-2.773,4.195-2.773,6.709
			c0,0.616,0.046,1.231,0.19,1.85c0.118,0.616,0.308,1.208,0.544,1.778c0.238,0.567,0.523,1.113,0.854,1.634
			c0.354,0.521,0.759,0.995,1.185,1.447c1.778,1.752,4.22,2.773,6.708,2.773c2.488,0,4.931-1.021,6.708-2.773
			c0.426-0.451,0.829-0.926,1.185-1.447c0.331-0.521,0.616-1.067,0.852-1.634c0.238-0.569,0.428-1.162,0.546-1.778
			c0.118-0.618,0.19-1.234,0.19-1.849C421.926,471.586,420.905,469.143,419.153,467.366z"/>
	</g>
</g>
<g>
	<g>
		<path d="M409.514,128.81L277.516,2.627C275.752,0.942,273.405,0,270.965,0H23.704c-5.236,0-9.481,4.245-9.481,9.482v493.037
			c0,5.236,4.245,9.482,9.481,9.482h284.444c5.236,0,9.482-4.245,9.482-9.482c0-5.236-4.245-9.481-9.482-9.481H33.185V18.963
			h227.556v123.259c0,5.236,4.245,9.481,9.482,9.481h123.259v161.185c0,5.236,4.245,9.481,9.481,9.481s9.482-4.245,9.482-9.481
			V135.664C412.444,133.076,411.387,130.6,409.514,128.81z M279.704,132.741V30.952l106.479,101.789H279.704z"/>
	</g>
</g>
<g>
	<g>
		<path d="M147.498,269.944l49.65,49.648c2.359,2.361,5.789,3.296,9.021,2.491c3.236-0.817,5.806-3.273,6.764-6.47l23.375-77.914
			l36.111,43.333c2.051,2.456,5.176,3.708,8.377,3.35c3.178-0.37,5.956-2.317,7.389-5.178l47.407-94.815
			c2.34-4.685,0.442-10.38-4.241-12.722c-4.681-2.338-10.38-0.442-12.722,4.241l-40.924,81.85l-38.125-45.752
			c-2.234-2.683-5.757-3.924-9.183-3.22c-3.421,0.699-6.18,3.222-7.183,6.565l-23.884,79.611l-45.664-45.664
			c-1.866-1.868-4.449-2.857-7.067-2.771c-2.639,0.102-5.116,1.299-6.836,3.303l-40.209,46.91V113.778
			c0-5.236-4.245-9.481-9.481-9.481c-5.236,0-9.482,4.245-9.482,9.481v237.037H61.63c-5.236,0-9.482,4.245-9.482,9.482
			s4.245,9.481,9.482,9.481h18.963v18.963c0,5.236,4.245,9.482,9.482,9.482c5.236,0,9.481-4.245,9.481-9.482v-18.963h199.111
			c5.236,0,9.481-4.245,9.481-9.481s-4.245-9.482-9.481-9.482H99.556v-24.936L147.498,269.944z"/>
	</g>
</g>
<g>
</g>
<g>
</g>
<g>
</g>
<g>
</g>
<g>
</g>
<g>
</g>
<g>
</g>
<g>
</g>
<g>
</g>
<g>
</g>
<g>
</g>
<g>
</g>
<g>
</g>
<g>
</g>
<g>
</g>
</svg>
