<?xml version="1.0" encoding="iso-8859-1"?>
<!-- Generator: Adobe Illustrator 19.0.0, SVG Export Plug-In . SVG Version: 6.00 Build 0)  -->
<svg version="1.1" id="Layer_1" xmlns="http://www.w3.org/2000/svg" xmlns:xlink="http://www.w3.org/1999/xlink" x="0px" y="0px"
	 viewBox="0 0 512 512" style="enable-background:new 0 0 512 512;" xml:space="preserve">
<g>
	<g>
		<path d="M461.714,411.429h-36.571v-36.571c0-5.049-4.094-9.143-9.143-9.143h-36.571c-5.049,0-9.143,4.094-9.143,9.143v36.571
			h-36.571c-5.049,0-9.143,4.094-9.143,9.143v36.571c0,5.049,4.094,9.143,9.143,9.143h36.571v36.571
			c0,5.049,4.094,9.143,9.143,9.143H416c5.049,0,9.143-4.094,9.143-9.143v-36.571h36.571c5.049,0,9.143-4.094,9.143-9.143v-36.571
			C470.857,415.522,466.763,411.429,461.714,411.429z M452.571,448H416c-5.049,0-9.143,4.094-9.143,9.143v36.571h-18.286v-36.571
			c0-5.049-4.094-9.143-9.143-9.143h-36.571v-18.286h36.571c5.049,0,9.143-4.094,9.143-9.143V384h18.286v36.571
			c0,5.049,4.094,9.143,9.143,9.143h36.571V448z"/>
	</g>
</g>
<g>
	<g>
		<path d="M422.318,124.21L295.035,2.534C293.333,0.909,291.07,0,288.717,0H50.286c-5.049,0-9.143,4.094-9.143,9.143v475.429
			c0,5.049,4.094,9.143,9.143,9.143h246.857c5.049,0,9.143-4.094,9.143-9.143c0-5.049-4.094-9.143-9.143-9.143H59.429V18.286
			h219.429v118.857c0,5.049,4.094,9.143,9.143,9.143h118.857v155.429c0,5.049,4.094,9.143,9.143,9.143s9.143-4.094,9.143-9.143
			V130.819C425.143,128.324,424.122,125.935,422.318,124.21z M297.143,128V29.847L399.819,128H297.143z"/>
	</g>
</g>
<g>
	<g>
		<path d="M342.857,338.286H114.286V314.24l46.231-53.937l47.875,47.875c2.277,2.277,5.581,3.183,8.701,2.402
			c3.12-0.788,5.597-3.156,6.522-6.239l22.539-75.132l34.823,41.786c1.976,2.371,5.023,3.576,8.077,3.23
			c3.066-0.357,5.744-2.234,7.124-4.993l45.714-91.429c2.259-4.518,0.427-10.009-4.088-12.268
			c-4.517-2.257-10.009-0.426-12.267,4.089l-39.462,78.926l-36.766-44.118c-2.155-2.589-5.554-3.784-8.855-3.105
			c-3.298,0.674-5.959,3.107-6.926,6.33l-23.029,76.768l-44.033-44.033c-1.801-1.801-4.268-2.755-6.816-2.672
			c-2.546,0.098-4.934,1.252-6.592,3.185l-38.772,45.234V109.714c0-5.049-4.094-9.143-9.143-9.143c-5.049,0-9.143,4.094-9.143,9.143
			v228.571H77.714c-5.049,0-9.143,4.094-9.143,9.143s4.094,9.143,9.143,9.143H96v18.286c0,5.049,4.094,9.143,9.143,9.143
			c5.049,0,9.143-4.094,9.143-9.143v-18.286h228.571c5.049,0,9.143-4.094,9.143-9.143S347.906,338.286,342.857,338.286z"/>
	</g>
</g>
<g>
</g>
<g>
</g>
<g>
</g>
<g>
</g>
<g>
</g>
<g>
</g>
<g>
</g>
<g>
</g>
<g>
</g>
<g>
</g>
<g>
</g>
<g>
</g>
<g>
</g>
<g>
</g>
<g>
</g>
</svg>
