<?xml version="1.0" encoding="iso-8859-1"?>
<!-- Generator: Adobe Illustrator 19.0.0, SVG Export Plug-In . SVG Version: 6.00 Build 0)  -->
<svg version="1.1" id="Layer_1" xmlns="http://www.w3.org/2000/svg" xmlns:xlink="http://www.w3.org/1999/xlink" x="0px" y="0px"
	 viewBox="0 0 512 512" style="enable-background:new 0 0 512 512;" xml:space="preserve">
<g>
	<g>
		<path d="M501.078,497.493l-94.815-151.704c-1.733-2.771-4.771-4.456-8.041-4.456c-3.27,0-6.308,1.685-8.041,4.456l-94.815,151.704
			c-1.826,2.924-1.924,6.606-0.252,9.623c1.671,3.014,4.846,4.884,8.293,4.884h189.63c3.447,0,6.622-1.87,8.293-4.884
			C503.001,504.1,502.904,500.417,501.078,497.493z M320.514,493.037l77.708-124.333l77.708,124.333H320.514z"/>
	</g>
</g>
<g>
	<g>
		<path d="M398.222,398.222c-5.236,0-9.482,4.245-9.482,9.482v37.926c0,5.236,4.245,9.481,9.482,9.481s9.481-4.245,9.481-9.481
			v-37.926C407.704,402.468,403.458,398.222,398.222,398.222z"/>
	</g>
</g>
<g>
	<g>
		<path d="M407.514,472.224c-0.119-0.616-0.308-1.208-0.545-1.778c-0.237-0.569-0.522-1.113-0.854-1.634
			c-0.355-0.523-0.758-0.998-1.185-1.447c-2.204-2.204-5.475-3.225-8.557-2.583c-0.616,0.118-1.208,0.308-1.778,0.544
			c-0.568,0.238-1.113,0.523-1.635,0.854c-0.521,0.354-1.02,0.759-1.446,1.185c-1.754,1.778-2.773,4.22-2.773,6.708
			c0,0.616,0.071,1.231,0.189,1.85c0.119,0.616,0.309,1.208,0.546,1.778c0.236,0.567,0.521,1.113,0.853,1.634
			c0.355,0.521,0.758,0.995,1.185,1.447c0.426,0.426,0.925,0.829,1.446,1.185c0.522,0.331,1.067,0.616,1.635,0.852
			c0.569,0.238,1.162,0.428,1.778,0.546c0.617,0.118,1.232,0.189,1.849,0.189c2.488,0,4.929-1.021,6.707-2.773
			c0.427-0.451,0.83-0.926,1.185-1.447c0.332-0.521,0.617-1.067,0.854-1.634c0.237-0.569,0.426-1.162,0.545-1.778
			c0.118-0.618,0.19-1.234,0.19-1.849C407.704,473.458,407.632,472.84,407.514,472.224z"/>
	</g>
</g>
<g>
	<g>
		<path d="M404.774,128.81L272.777,2.627C271.012,0.942,268.666,0,266.225,0H18.963c-5.236,0-9.481,4.245-9.481,9.482v493.037
			c0,5.236,4.245,9.482,9.481,9.482h227.556c5.236,0,9.482-4.245,9.482-9.482c0-5.236-4.245-9.481-9.482-9.481H28.444V18.963H256
			v123.259c0,5.236,4.245,9.481,9.482,9.481h123.259v161.185c0,5.236,4.245,9.481,9.482,9.481s9.481-4.245,9.481-9.481V135.664
			C407.704,133.076,406.645,130.6,404.774,128.81z M274.963,132.741V30.952l106.479,101.789H274.963z"/>
	</g>
</g>
<g>
	<g>
		<path d="M331.852,350.815H94.815v-24.936l47.943-55.934l49.648,49.648c2.361,2.361,5.788,3.301,9.023,2.491
			c3.236-0.817,5.804-3.273,6.764-6.47l23.374-77.914l36.112,43.333c2.047,2.458,5.212,3.708,8.376,3.35
			c3.179-0.37,5.957-2.317,7.388-5.178l47.407-94.815c2.343-4.685,0.443-10.38-4.24-12.722c-4.686-2.34-10.38-0.442-12.721,4.241
			l-40.924,81.85l-38.127-45.752c-2.235-2.685-5.762-3.924-9.183-3.22c-3.42,0.699-6.179,3.222-7.183,6.565l-23.882,79.611
			l-45.664-45.664c-1.868-1.868-4.407-2.857-7.068-2.771c-2.64,0.102-5.117,1.299-6.836,3.303l-40.208,46.91V113.778
			c0-5.236-4.245-9.481-9.482-9.481s-9.481,4.245-9.481,9.481v237.037H56.889c-5.236,0-9.481,4.245-9.481,9.482
			s4.245,9.481,9.481,9.481h18.963v18.963c0,5.236,4.245,9.482,9.481,9.482s9.482-4.245,9.482-9.482v-18.963h237.037
			c5.236,0,9.481-4.245,9.481-9.481S337.088,350.815,331.852,350.815z"/>
	</g>
</g>
<g>
</g>
<g>
</g>
<g>
</g>
<g>
</g>
<g>
</g>
<g>
</g>
<g>
</g>
<g>
</g>
<g>
</g>
<g>
</g>
<g>
</g>
<g>
</g>
<g>
</g>
<g>
</g>
<g>
</g>
</svg>
