<?xml version="1.0" encoding="iso-8859-1"?>
<!-- Generator: Adobe Illustrator 19.0.0, SVG Export Plug-In . SVG Version: 6.00 Build 0)  -->
<svg version="1.1" id="Layer_1" xmlns="http://www.w3.org/2000/svg" xmlns:xlink="http://www.w3.org/1999/xlink" x="0px" y="0px"
	 viewBox="0 0 512 512" style="enable-background:new 0 0 512 512;" xml:space="preserve">
<g>
	<g>
		<path d="M474.074,417.185h-109.85L414.407,367c3.704-3.701,3.704-9.706,0-13.407c-3.699-3.704-9.708-3.704-13.407,0l-66.37,66.37
			c-3.704,3.701-3.704,9.706,0,13.407l66.37,66.37c1.849,1.852,4.278,2.778,6.704,2.778c2.426,0,4.854-0.926,6.704-2.778
			c3.704-3.701,3.704-9.706,0-13.407l-50.183-50.185h109.85c5.236,0,9.481-4.245,9.481-9.481S479.31,417.185,474.074,417.185z"/>
	</g>
</g>
<g>
	<g>
		<path d="M423.736,128.81L291.738,2.627C289.975,0.942,287.627,0,285.188,0H37.926c-5.236,0-9.481,4.245-9.481,9.482v493.037
			c0,5.236,4.245,9.482,9.481,9.482h256c5.236,0,9.482-4.245,9.482-9.482c0-5.236-4.245-9.481-9.482-9.481H47.407V18.963h227.556
			v123.259c0,5.236,4.245,9.481,9.482,9.481h123.259v161.185c0,5.236,4.245,9.481,9.481,9.481s9.482-4.245,9.482-9.481V135.664
			C426.667,133.076,425.609,130.6,423.736,128.81z M293.926,132.741V30.952l106.479,101.789H293.926z"/>
	</g>
</g>
<g>
	<g>
		<path d="M161.72,269.944l49.65,49.648c2.359,2.361,5.792,3.296,9.021,2.491c3.236-0.817,5.806-3.273,6.764-6.47l23.375-77.914
			l36.111,43.333c2.049,2.456,5.18,3.708,8.377,3.35c3.178-0.37,5.956-2.317,7.389-5.178l47.407-94.815
			c2.34-4.685,0.442-10.38-4.241-12.722c-4.678-2.338-10.38-0.442-12.722,4.241l-40.924,81.85l-38.125-45.752
			c-2.234-2.683-5.759-3.924-9.183-3.22c-3.421,0.699-6.18,3.222-7.183,6.565l-23.884,79.611l-45.664-45.664
			c-1.866-1.868-4.435-2.857-7.067-2.771c-2.639,0.102-5.116,1.299-6.836,3.303l-40.209,46.91V113.778
			c0-5.236-4.245-9.481-9.481-9.481c-5.236,0-9.482,4.245-9.482,9.481v237.037H75.852c-5.236,0-9.482,4.245-9.482,9.482
			s4.245,9.481,9.482,9.481h18.963v18.963c0,5.236,4.245,9.482,9.482,9.482c5.236,0,9.481-4.245,9.481-9.482v-18.963h218.074
			c5.236,0,9.481-4.245,9.481-9.481s-4.245-9.482-9.481-9.482H113.778v-24.936L161.72,269.944z"/>
	</g>
</g>
<g>
</g>
<g>
</g>
<g>
</g>
<g>
</g>
<g>
</g>
<g>
</g>
<g>
</g>
<g>
</g>
<g>
</g>
<g>
</g>
<g>
</g>
<g>
</g>
<g>
</g>
<g>
</g>
<g>
</g>
</svg>
