<?xml version="1.0" encoding="iso-8859-1"?>
<!-- Generator: Adobe Illustrator 19.0.0, SVG Export Plug-In . SVG Version: 6.00 Build 0)  -->
<svg version="1.1" id="Layer_1" xmlns="http://www.w3.org/2000/svg" xmlns:xlink="http://www.w3.org/1999/xlink" x="0px" y="0px"
	 viewBox="0 0 512 512" style="enable-background:new 0 0 512 512;" xml:space="preserve">
<g>
	<g>
		<path d="M474.074,426.667H341.333c-5.236,0-9.481,4.245-9.481,9.481v37.926c0,5.236,4.245,9.481,9.481,9.481h132.741
			c5.236,0,9.481-4.245,9.481-9.481v-37.926C483.556,430.912,479.31,426.667,474.074,426.667z M464.593,464.593H350.815V445.63
			h113.778V464.593z"/>
	</g>
</g>
<g>
	<g>
		<path d="M423.737,128.81L291.74,2.627C289.975,0.942,287.629,0,285.188,0H37.926c-5.236,0-9.481,4.245-9.481,9.482v493.037
			c0,5.236,4.245,9.482,9.481,9.482h256c5.236,0,9.482-4.245,9.482-9.482c0-5.236-4.245-9.481-9.482-9.481H47.407V18.963h227.556
			v123.259c0,5.236,4.245,9.481,9.482,9.481h123.259v161.185c0,5.236,4.245,9.481,9.481,9.481s9.482-4.245,9.482-9.481V135.664
			C426.667,133.076,425.608,130.6,423.737,128.81z M293.926,132.741V30.952l106.479,101.789H293.926z"/>
	</g>
</g>
<g>
	<g>
		<path d="M350.815,350.815H113.778v-24.936l47.943-55.934l49.648,49.648c2.36,2.361,5.787,3.301,9.023,2.491
			c3.236-0.817,5.804-3.273,6.764-6.47l23.374-77.914l36.112,43.333c2.048,2.458,5.212,3.708,8.376,3.35
			c3.179-0.37,5.957-2.317,7.388-5.178l47.407-94.815c2.343-4.685,0.443-10.38-4.24-12.722c-4.685-2.34-10.38-0.442-12.721,4.241
			l-40.923,81.85l-38.127-45.752c-2.235-2.685-5.76-3.924-9.183-3.22c-3.42,0.699-6.179,3.222-7.183,6.565l-23.882,79.611
			l-45.664-45.664c-1.868-1.868-4.419-2.857-7.068-2.771c-2.64,0.102-5.117,1.299-6.836,3.303l-40.208,46.91V113.778
			c0-5.236-4.245-9.481-9.481-9.481c-5.236,0-9.482,4.245-9.482,9.481v237.037H75.852c-5.236,0-9.482,4.245-9.482,9.482
			s4.245,9.481,9.482,9.481h18.963v18.963c0,5.236,4.245,9.482,9.482,9.482c5.236,0,9.481-4.245,9.481-9.482v-18.963h237.037
			c5.236,0,9.482-4.245,9.482-9.481S356.051,350.815,350.815,350.815z"/>
	</g>
</g>
<g>
</g>
<g>
</g>
<g>
</g>
<g>
</g>
<g>
</g>
<g>
</g>
<g>
</g>
<g>
</g>
<g>
</g>
<g>
</g>
<g>
</g>
<g>
</g>
<g>
</g>
<g>
</g>
<g>
</g>
</svg>
