<?xml version="1.0" encoding="iso-8859-1"?>
<!-- Generator: Adobe Illustrator 19.0.0, SVG Export Plug-In . SVG Version: 6.00 Build 0)  -->
<svg version="1.1" id="Layer_1" xmlns="http://www.w3.org/2000/svg" xmlns:xlink="http://www.w3.org/1999/xlink" x="0px" y="0px"
	 viewBox="0 0 512 512" style="enable-background:new 0 0 512 512;" xml:space="preserve">
<g>
	<g>
		<path d="M476.494,400.296c-1.116-3.433-4.082-5.933-7.654-6.451l-44.914-6.528l-20.086-40.699
			c-1.597-3.236-4.894-5.285-8.503-5.285s-6.905,2.049-8.502,5.285l-20.087,40.699l-44.913,6.528
			c-3.572,0.519-6.538,3.018-7.654,6.451c-1.116,3.433-0.185,7.201,2.399,9.72l32.5,31.68l-7.672,44.734
			c-0.61,3.556,0.852,7.151,3.772,9.273c2.918,2.118,6.79,2.403,9.985,0.72l40.173-21.118l40.173,21.118
			c1.387,0.732,2.902,1.09,4.411,1.09c1.966,0,3.922-0.611,5.574-1.81c2.92-2.123,4.382-5.718,3.772-9.273l-7.672-44.734l32.5-31.68
			C476.679,407.498,477.61,403.729,476.494,400.296z M424.789,431.597c-2.235,2.178-3.255,5.317-2.727,8.391l5.267,30.711
			l-27.58-14.498c-1.381-0.727-2.897-1.09-4.412-1.09s-3.031,0.363-4.412,1.09l-27.58,14.498l5.267-30.711
			c0.528-3.074-0.492-6.213-2.727-8.391l-22.313-21.75l30.834-4.481c3.088-0.447,5.758-2.387,7.139-5.185l13.791-27.942
			l13.789,27.942c1.381,2.799,4.051,4.738,7.139,5.185l30.836,4.481L424.789,431.597z"/>
	</g>
</g>
<g>
	<g>
		<path d="M430.334,128.81L298.337,2.627C296.572,0.942,294.226,0,291.785,0H44.523c-5.236,0-9.481,4.245-9.481,9.482v493.037
			c0,5.236,4.245,9.482,9.481,9.482h256c5.236,0,9.482-4.245,9.482-9.482c0-5.236-4.245-9.481-9.482-9.481H54.004V18.963H281.56
			v123.259c0,5.236,4.245,9.481,9.482,9.481h123.259v161.185c0,5.236,4.245,9.481,9.482,9.481s9.481-4.245,9.481-9.481V135.664
			C433.264,133.076,432.205,130.6,430.334,128.81z M300.523,132.741V30.952l106.479,101.789H300.523z"/>
	</g>
</g>
<g>
	<g>
		<path d="M168.318,269.944l49.648,49.648c2.36,2.361,5.786,3.301,9.023,2.491c3.236-0.817,5.804-3.273,6.764-6.47l23.374-77.914
			l36.112,43.333c2.049,2.458,5.21,3.708,8.376,3.35c3.179-0.37,5.957-2.317,7.388-5.178l47.407-94.815
			c2.343-4.685,0.443-10.38-4.24-12.722c-4.683-2.34-10.38-0.442-12.721,4.241l-40.924,81.85l-38.127-45.752
			c-2.235-2.685-5.757-3.924-9.183-3.22c-3.42,0.699-6.179,3.222-7.183,6.565l-23.882,79.611l-45.664-45.664
			c-1.868-1.868-4.407-2.857-7.068-2.771c-2.64,0.102-5.117,1.299-6.836,3.303l-40.208,46.91V113.778
			c0-5.236-4.245-9.481-9.482-9.481s-9.481,4.245-9.481,9.481v237.037H82.449c-5.236,0-9.481,4.245-9.481,9.482
			s4.245,9.481,9.481,9.481h18.963v18.963c0,5.236,4.245,9.482,9.481,9.482s9.482-4.245,9.482-9.482v-18.963h208.593
			c5.236,0,9.482-4.245,9.482-9.481s-4.245-9.482-9.482-9.482H120.375v-24.936L168.318,269.944z"/>
	</g>
</g>
<g>
</g>
<g>
</g>
<g>
</g>
<g>
</g>
<g>
</g>
<g>
</g>
<g>
</g>
<g>
</g>
<g>
</g>
<g>
</g>
<g>
</g>
<g>
</g>
<g>
</g>
<g>
</g>
<g>
</g>
</svg>
