<?xml version="1.0" encoding="iso-8859-1"?>
<!-- Generator: Adobe Illustrator 19.0.0, SVG Export Plug-In . SVG Version: 6.00 Build 0)  -->
<svg version="1.1" id="Layer_1" xmlns="http://www.w3.org/2000/svg" xmlns:xlink="http://www.w3.org/1999/xlink" x="0px" y="0px"
	 viewBox="0 0 512 512" style="enable-background:new 0 0 512 512;" xml:space="preserve">
<g>
	<g>
		<path d="M452.182,128.81L320.185,2.627C318.42,0.942,316.074,0,313.633,0H66.37c-5.236,0-9.481,4.245-9.481,9.482v493.037
			c0,5.236,4.245,9.482,9.481,9.482H445.63c5.236,0,9.481-4.245,9.481-9.482V135.664C455.111,133.076,454.052,130.6,452.182,128.81z
			 M322.37,30.951l106.479,101.79H322.37V30.951z M436.148,493.037H75.852V18.963h227.556v123.259c0,5.236,4.245,9.481,9.482,9.481
			h123.259V493.037z"/>
	</g>
</g>
<g>
	<g>
		<path d="M379.259,360.296H142.222V335.36l47.943-55.934l49.648,49.648c2.361,2.361,5.786,3.305,9.023,2.491
			c3.236-0.817,5.804-3.273,6.764-6.47l23.374-77.914l36.112,43.333c2.049,2.458,5.207,3.72,8.376,3.35
			c3.179-0.37,5.957-2.317,7.388-5.178l47.407-94.815c2.343-4.685,0.443-10.38-4.24-12.722c-4.686-2.34-10.378-0.442-12.721,4.241
			l-40.924,81.85l-38.127-45.752c-2.235-2.683-5.759-3.921-9.183-3.22c-3.42,0.699-6.179,3.222-7.183,6.565l-23.882,79.611
			l-45.664-45.664c-1.868-1.868-4.414-2.88-7.068-2.771c-2.64,0.102-5.117,1.299-6.836,3.303l-40.208,46.91V113.778
			c0-5.236-4.245-9.481-9.482-9.481s-9.481,4.245-9.481,9.481v246.519h-18.963c-5.236,0-9.481,4.245-9.481,9.481
			s4.245,9.482,9.481,9.482h18.963v9.481c0,5.236,4.245,9.482,9.481,9.482s9.482-4.245,9.482-9.482v-9.481h237.037
			c5.236,0,9.481-4.245,9.481-9.482S384.495,360.296,379.259,360.296z"/>
	</g>
</g>
<g>
</g>
<g>
</g>
<g>
</g>
<g>
</g>
<g>
</g>
<g>
</g>
<g>
</g>
<g>
</g>
<g>
</g>
<g>
</g>
<g>
</g>
<g>
</g>
<g>
</g>
<g>
</g>
<g>
</g>
</svg>
