<?xml version="1.0" encoding="iso-8859-1"?>
<!-- Generator: Adobe Illustrator 19.0.0, SVG Export Plug-In . SVG Version: 6.00 Build 0)  -->
<svg version="1.1" id="Layer_1" xmlns="http://www.w3.org/2000/svg" xmlns:xlink="http://www.w3.org/1999/xlink" x="0px" y="0px"
	 viewBox="0 0 512 512" style="enable-background:new 0 0 512 512;" xml:space="preserve">
<g>
	<g>
		<path d="M476.86,469.981l-26.205-26.206l26.205-26.204c1.737-1.737,2.713-4.094,2.713-6.55s-0.976-4.813-2.713-6.55
			l-26.204-26.204c-3.617-3.617-9.482-3.619-13.103,0l-26.204,26.202l-26.204-26.202c-3.617-3.617-9.483-3.619-13.102,0
			l-26.205,26.204c-1.738,1.737-2.714,4.094-2.714,6.55s0.976,4.813,2.713,6.55l26.205,26.204l-26.205,26.206
			c-1.737,1.737-2.713,4.094-2.713,6.55c0,2.456,0.976,4.813,2.714,6.55l26.205,26.204c3.617,3.619,9.483,3.619,13.102,0
			l26.204-26.202l26.204,26.202c1.809,1.809,4.181,2.714,6.552,2.714s4.742-0.905,6.552-2.714l26.204-26.204
			C480.478,479.465,480.478,473.598,476.86,469.981z M444.105,489.632L417.9,463.43c-3.619-3.619-9.484-3.619-13.103,0
			l-26.204,26.202l-13.103-13.101l26.205-26.206c1.737-1.737,2.713-4.094,2.713-6.55c0-2.456-0.976-4.813-2.713-6.55L365.49,411.02
			l13.103-13.101l26.204,26.202c3.619,3.619,9.484,3.619,13.103,0l26.204-26.202l13.102,13.101l-26.205,26.204
			c-1.737,1.737-2.713,4.094-2.713,6.55c0,2.456,0.976,4.813,2.713,6.55l26.205,26.206L444.105,489.632z"/>
	</g>
</g>
<g>
	<g>
		<path d="M418.682,125.865L289.702,2.567C287.977,0.921,285.685,0,283.3,0H41.691c-5.116,0-9.265,4.148-9.265,9.265V491.03
			c0,5.116,4.148,9.265,9.265,9.265h250.147c5.116,0,9.265-4.148,9.265-9.265c0-5.116-4.148-9.265-9.265-9.265H50.956V18.529
			h222.353v120.441c0,5.116,4.148,9.265,9.265,9.265h120.441v157.5c0,5.116,4.148,9.265,9.265,9.265s9.265-4.148,9.265-9.265
			V132.563C421.544,130.034,420.51,127.614,418.682,125.865z M291.839,129.706V30.244l104.045,99.462H291.839z"/>
	</g>
</g>
<g>
	<g>
		<path d="M347.427,342.795H115.809v-24.366l46.847-54.656l48.513,48.513c2.308,2.307,5.655,3.226,8.817,2.434
			c3.162-0.798,5.672-3.198,6.609-6.322l22.839-76.133l35.287,42.343c2.002,2.402,5.094,3.624,8.185,3.273
			c3.107-0.362,5.821-2.264,7.219-5.06l46.324-92.647c2.289-4.578,0.433-10.142-4.143-12.431c-4.578-2.287-10.143-0.432-12.43,4.144
			l-39.988,79.978l-37.256-44.706c-2.184-2.624-5.628-3.834-8.973-3.146c-3.342,0.683-6.038,3.149-7.019,6.415l-23.336,77.791
			l-44.62-44.62c-1.825-1.825-4.311-2.791-6.907-2.707c-2.58,0.1-5,1.269-6.679,3.228l-39.289,45.837V111.177
			c0-5.116-4.148-9.265-9.265-9.265s-9.265,4.148-9.265,9.265v231.618H78.75c-5.116,0-9.265,4.148-9.265,9.265
			c0,5.116,4.148,9.265,9.265,9.265h18.529v18.529c0,5.116,4.148,9.265,9.265,9.265s9.265-4.148,9.265-9.265v-18.529h231.618
			c5.116,0,9.265-4.148,9.265-9.265C356.691,346.943,352.543,342.795,347.427,342.795z"/>
	</g>
</g>
<g>
</g>
<g>
</g>
<g>
</g>
<g>
</g>
<g>
</g>
<g>
</g>
<g>
</g>
<g>
</g>
<g>
</g>
<g>
</g>
<g>
</g>
<g>
</g>
<g>
</g>
<g>
</g>
<g>
</g>
</svg>
