<?xml version="1.0" encoding="iso-8859-1"?>
<!-- Generator: Adobe Illustrator 19.0.0, SVG Export Plug-In . SVG Version: 6.00 Build 0)  -->
<svg version="1.1" id="Layer_1" xmlns="http://www.w3.org/2000/svg" xmlns:xlink="http://www.w3.org/1999/xlink" x="0px" y="0px"
	 viewBox="0 0 512 512" style="enable-background:new 0 0 512 512;" xml:space="preserve">
<g>
	<g>
		<path d="M479.146,67.057C465.68,23.425,357.851,0,256,0S46.32,23.425,32.854,67.057c-0.885,1.392-1.415,3.032-1.415,4.803V440.14
			c0,1.82,0.542,3.513,1.473,4.93C46.761,489.024,154.412,512,256,512c55.912,0,109.237-6.618,150.148-18.636
			c29.384-8.629,65.251-23.917,72.94-48.292c0.932-1.417,1.474-3.112,1.474-4.932V71.86
			C480.561,70.089,480.031,68.449,479.146,67.057z M462.596,437.268c-0.112,0.331-0.205,0.673-0.278,1.022
			c-5.67,26.921-89.928,55.746-206.318,55.746S55.352,465.211,49.682,438.289c-0.073-0.349-0.167-0.691-0.278-1.022v-60.014
			C86.048,406.62,173.006,422.175,256,422.175s169.952-15.556,206.596-44.922V437.268z M462.596,345.825
			c0,13.138-21.78,28.107-56.838,39.064C365.885,397.349,312.7,404.211,256,404.211s-109.885-6.862-149.759-19.322
			c-35.058-10.956-56.838-25.925-56.838-39.064v-58.395C86.048,316.795,173.006,332.351,256,332.351s169.952-15.556,206.596-44.922
			V345.825z M462.596,256c0,13.138-21.78,28.107-56.838,39.064C365.885,307.524,312.7,314.386,256,314.386
			s-109.885-6.862-149.759-19.322C71.183,284.107,49.404,269.138,49.404,256v-58.395C86.048,226.971,173.006,242.526,256,242.526
			s169.952-15.556,206.596-44.922V256z M462.596,166.175c0,13.138-21.78,28.107-56.838,39.064
			C365.885,217.699,312.7,224.561,256,224.561s-109.885-6.862-149.759-19.322c-35.058-10.956-56.838-25.925-56.838-39.064V107.78
			C86.048,137.146,173.006,152.702,256,152.702s169.952-15.556,206.596-44.922V166.175z M405.759,115.414
			C365.885,127.875,312.7,134.737,256,134.737s-109.885-6.862-149.759-19.322c-35.058-10.956-56.838-25.925-56.838-39.064
			s21.78-28.107,56.838-39.064C146.115,24.827,199.3,17.965,256,17.965s109.885,6.862,149.759,19.322
			c35.058,10.956,56.838,25.925,56.838,39.064S440.817,104.458,405.759,115.414z"/>
	</g>
</g>
<g>
</g>
<g>
</g>
<g>
</g>
<g>
</g>
<g>
</g>
<g>
</g>
<g>
</g>
<g>
</g>
<g>
</g>
<g>
</g>
<g>
</g>
<g>
</g>
<g>
</g>
<g>
</g>
<g>
</g>
</svg>
