<?xml version="1.0" encoding="iso-8859-1"?>
<!-- Generator: Adobe Illustrator 19.0.0, SVG Export Plug-In . SVG Version: 6.00 Build 0)  -->
<svg version="1.1" id="Layer_1" xmlns="http://www.w3.org/2000/svg" xmlns:xlink="http://www.w3.org/1999/xlink" x="0px" y="0px"
	 viewBox="0 0 512 512" style="enable-background:new 0 0 512 512;" xml:space="preserve">
<g>
	<g>
		<path d="M479.146,67.057C465.68,23.425,357.851,0,256,0S46.32,23.425,32.854,67.057c-0.885,1.392-1.416,3.032-1.416,4.803V440.14
			c0,1.818,0.539,3.509,1.467,4.923C46.748,489.024,154.406,512,256,512c4.961,0,8.982-4.022,8.982-8.982
			c0-4.961-4.022-8.982-8.982-8.982c-116.39,0-200.649-28.825-206.32-55.746c-0.072-0.349-0.167-0.686-0.276-1.015v-55.529
			C86.048,411.111,173.007,426.667,256,426.667c4.961,0,8.982-4.022,8.982-8.982s-4.022-8.982-8.982-8.982
			c-56.7,0-109.884-6.862-149.759-19.322c-35.059-10.956-56.838-25.925-56.838-39.064V291.92
			C86.048,321.286,173.007,336.842,256,336.842c108.862,0,224.561-26.759,224.561-76.351V71.86
			C480.561,70.089,480.031,68.449,479.146,67.057z M462.596,260.491c0,13.138-21.778,28.107-56.838,39.064
			C365.884,312.015,312.7,318.877,256,318.877s-109.884-6.862-149.759-19.322c-35.059-10.956-56.838-25.925-56.838-39.064v-58.395
			C86.048,231.462,173.007,247.018,256,247.018s169.952-15.556,206.596-44.922V260.491z M462.596,170.667
			c0,13.138-21.778,28.107-56.838,39.064C365.884,222.191,312.7,229.053,256,229.053s-109.884-6.862-149.759-19.322
			c-35.059-10.956-56.838-25.925-56.838-39.064V107.78C86.048,137.146,173.007,152.702,256,152.702s169.952-15.556,206.596-44.922
			V170.667z M405.759,115.414C365.884,127.875,312.7,134.737,256,134.737s-109.884-6.862-149.759-19.322
			c-35.059-10.956-56.838-25.925-56.838-39.064s21.778-28.107,56.838-39.064C146.116,24.827,199.3,17.965,256,17.965
			s109.884,6.862,149.759,19.322c35.059,10.956,56.838,25.925,56.838,39.064S440.818,104.458,405.759,115.414z"/>
	</g>
</g>
<g>
	<g>
		<path d="M381.754,350.316c-44.577,0-80.842,36.265-80.842,80.842S337.178,512,381.754,512s80.842-36.265,80.842-80.842
			S426.331,350.316,381.754,350.316z M381.754,494.035c-34.671,0-62.877-28.206-62.877-62.877s28.206-62.877,62.877-62.877
			s62.877,28.206,62.877,62.877S416.426,494.035,381.754,494.035z"/>
	</g>
</g>
<g>
	<g>
		<path d="M413.684,396.737c-4.125-2.752-9.704-1.638-12.456,2.491l-30.947,46.421l-19.474-12.982
			c-4.125-2.752-9.704-1.636-12.456,2.491c-2.752,4.127-1.636,9.704,2.491,12.456l26.947,17.965
			c1.531,1.022,3.261,1.509,4.974,1.509c2.904,0,5.752-1.404,7.482-4l35.93-53.895C418.928,405.066,417.811,399.489,413.684,396.737
			z"/>
	</g>
</g>
<g>
</g>
<g>
</g>
<g>
</g>
<g>
</g>
<g>
</g>
<g>
</g>
<g>
</g>
<g>
</g>
<g>
</g>
<g>
</g>
<g>
</g>
<g>
</g>
<g>
</g>
<g>
</g>
<g>
</g>
</svg>
