<?xml version="1.0" encoding="iso-8859-1"?>
<!-- Generator: Adobe Illustrator 19.0.0, SVG Export Plug-In . SVG Version: 6.00 Build 0)  -->
<svg version="1.1" id="Layer_1" xmlns="http://www.w3.org/2000/svg" xmlns:xlink="http://www.w3.org/1999/xlink" x="0px" y="0px"
	 viewBox="0 0 512 512" style="enable-background:new 0 0 512 512;" xml:space="preserve">
<g>
	<g>
		<path d="M470.164,67.057C456.697,23.425,348.869,0,247.018,0S37.338,23.425,23.871,67.057c-0.885,1.392-1.415,3.032-1.415,4.803
			V440.14c0,1.82,0.542,3.513,1.473,4.93C37.778,489.024,145.43,512,247.018,512c4.961,0,8.982-4.022,8.982-8.982
			c0-4.961-4.022-8.982-8.982-8.982c-116.39,0-200.648-28.825-206.318-55.746c-0.073-0.349-0.167-0.691-0.278-1.022v-55.523
			c36.645,29.366,123.602,44.922,206.596,44.922c4.961,0,8.982-4.022,8.982-8.982s-4.022-8.982-8.982-8.982
			c-56.7,0-109.885-6.862-149.759-19.322c-35.058-10.956-56.838-25.925-56.838-39.064V291.92
			c36.645,29.366,123.602,44.922,206.596,44.922c108.862,0,224.561-26.759,224.561-76.351V71.86
			C471.579,70.089,471.049,68.449,470.164,67.057z M453.614,260.491c0,13.138-21.78,28.107-56.838,39.064
			c-39.874,12.46-93.059,19.322-149.759,19.322c-56.7,0-109.885-6.862-149.759-19.322c-35.058-10.956-56.838-25.925-56.838-39.064
			v-58.395c36.645,29.366,123.602,44.922,206.596,44.922s169.952-15.556,206.596-44.922V260.491z M453.614,170.667
			c0,13.138-21.78,28.107-56.838,39.064c-39.874,12.461-93.059,19.322-149.759,19.322c-56.7,0-109.885-6.862-149.759-19.322
			c-35.058-10.956-56.838-25.925-56.838-39.064V107.78c36.645,29.366,123.602,44.922,206.596,44.922s169.952-15.556,206.596-44.922
			V170.667z M396.776,115.414c-39.874,12.461-93.059,19.322-149.759,19.322c-56.7,0-109.885-6.862-149.759-19.322
			c-35.058-10.956-56.838-25.925-56.838-39.064s21.78-28.107,56.838-39.064c39.874-12.46,93.059-19.322,149.759-19.322
			c56.699,0,109.885,6.862,149.759,19.322c35.058,10.956,56.838,25.925,56.838,39.064S431.835,104.458,396.776,115.414z"/>
	</g>
</g>
<g>
	<g>
		<path d="M488.179,498.257l-89.825-143.719c-1.642-2.625-4.52-4.221-7.617-4.221c-3.098,0-5.976,1.596-7.617,4.221l-89.825,143.719
			c-1.73,2.77-1.822,6.259-0.239,9.116c1.583,2.855,4.591,4.627,7.856,4.627h179.649c3.265,0,6.273-1.772,7.856-4.627
			C490.001,504.515,489.909,501.026,488.179,498.257z M317.118,494.035l73.618-117.789l73.618,117.789H317.118z"/>
	</g>
</g>
<g>
	<g>
		<path d="M390.737,404.211c-4.961,0-8.982,4.022-8.982,8.982v35.93c0,4.961,4.022,8.982,8.982,8.982
			c4.961,0,8.982-4.022,8.982-8.982v-35.93C399.719,408.232,395.697,404.211,390.737,404.211z"/>
	</g>
</g>
<g>
	<g>
		<path d="M397.091,469.715c-0.427-0.404-0.875-0.787-1.37-1.123c-0.493-0.314-1.01-0.583-1.549-0.809
			c-0.538-0.224-1.1-0.404-1.684-0.515c-2.919-0.585-6.019,0.36-8.106,2.447c-1.662,1.663-2.627,3.998-2.627,6.356
			c0,0.583,0.067,1.167,0.179,1.752c0.113,0.583,0.293,1.145,0.518,1.684c0.224,0.537,0.493,1.055,0.808,1.548
			c0.337,0.493,0.718,0.965,1.123,1.371c1.684,1.66,3.997,2.627,6.355,2.627c2.357,0,4.67-0.967,6.354-2.627
			c1.662-1.662,2.628-3.998,2.628-6.355C399.719,473.713,398.753,471.377,397.091,469.715z"/>
	</g>
</g>
<g>
</g>
<g>
</g>
<g>
</g>
<g>
</g>
<g>
</g>
<g>
</g>
<g>
</g>
<g>
</g>
<g>
</g>
<g>
</g>
<g>
</g>
<g>
</g>
<g>
</g>
<g>
</g>
<g>
</g>
</svg>
