<?xml version="1.0" encoding="iso-8859-1"?>
<!-- Generator: Adobe Illustrator 19.0.0, SVG Export Plug-In . SVG Version: 6.00 Build 0)  -->
<svg version="1.1" id="Layer_1" xmlns="http://www.w3.org/2000/svg" xmlns:xlink="http://www.w3.org/1999/xlink" x="0px" y="0px"
	 viewBox="0 0 512 512" style="enable-background:new 0 0 512 512;" xml:space="preserve">
<g>
	<g>
		<path d="M471.922,67.057C458.456,23.425,350.628,0,248.776,0S39.096,23.425,25.63,67.057c-0.885,1.392-1.415,3.032-1.415,4.803
			V440.14c0,1.82,0.542,3.513,1.473,4.93C39.537,489.024,147.188,512,248.776,512c4.961,0,8.982-4.022,8.982-8.982
			c0-4.961-4.022-8.982-8.982-8.982c-116.39,0-200.648-28.825-206.318-55.746c-0.073-0.349-0.167-0.691-0.279-1.022v-55.523
			c36.645,29.366,123.603,44.922,206.596,44.922c4.961,0,8.982-4.022,8.982-8.982s-4.022-8.982-8.982-8.982
			c-56.699,0-109.885-6.862-149.759-19.322c-35.058-10.956-56.838-25.925-56.838-39.064V291.92
			c36.645,29.366,123.603,44.922,206.596,44.922c108.862,0,224.561-26.759,224.561-76.351V71.86
			C473.337,70.089,472.807,68.449,471.922,67.057z M455.373,260.491c0,13.138-21.78,28.107-56.838,39.064
			c-39.874,12.46-93.059,19.322-149.759,19.322c-56.699,0-109.885-6.862-149.759-19.322c-35.058-10.956-56.838-25.925-56.838-39.064
			v-58.395c36.645,29.366,123.603,44.922,206.596,44.922s169.952-15.556,206.596-44.922V260.491z M455.373,170.667
			c0,13.138-21.78,28.107-56.838,39.064c-39.874,12.461-93.059,19.322-149.759,19.322c-56.699,0-109.885-6.862-149.759-19.322
			c-35.058-10.956-56.838-25.925-56.838-39.064V107.78c36.645,29.366,123.603,44.922,206.596,44.922s169.952-15.556,206.596-44.922
			V170.667z M398.535,115.414c-39.874,12.461-93.059,19.322-149.759,19.322c-56.699,0-109.885-6.862-149.759-19.322
			C63.959,104.458,42.18,89.489,42.18,76.351s21.78-28.107,56.838-39.064c39.874-12.46,93.059-19.322,149.759-19.322
			c56.7,0,109.885,6.862,149.759,19.322c35.058,10.956,56.838,25.925,56.838,39.064S433.593,104.458,398.535,115.414z"/>
	</g>
</g>
<g>
	<g>
		<path d="M487.345,406.175c-1.057-3.252-3.867-5.621-7.251-6.112l-42.55-6.184l-19.028-38.557
			c-1.513-3.066-4.636-5.007-8.055-5.007c-3.419,0-6.542,1.941-8.055,5.007l-19.03,38.557l-42.549,6.184
			c-3.384,0.491-6.194,2.86-7.251,6.112s-0.175,6.822,2.273,9.208l30.789,30.013l-7.269,42.379
			c-0.578,3.368,0.807,6.774,3.573,8.785c2.765,2.007,6.433,2.276,9.459,0.682l38.058-20.007l38.058,20.007
			c1.314,0.693,2.749,1.033,4.179,1.033c1.863,0,3.716-0.579,5.281-1.715c2.766-2.011,4.151-5.417,3.573-8.785l-7.269-42.379
			l30.789-30.013C487.521,412.998,488.402,409.428,487.345,406.175z M438.362,435.829c-2.117,2.063-3.083,5.037-2.583,7.949
			l4.99,29.094l-26.128-13.735c-1.308-0.689-2.745-1.033-4.18-1.033c-1.435,0-2.872,0.344-4.18,1.033l-26.128,13.735l4.99-29.094
			c0.5-2.912-0.466-5.886-2.583-7.949l-21.138-20.605l29.212-4.246c2.925-0.423,5.455-2.261,6.763-4.912l13.065-26.471
			l13.064,26.471c1.308,2.651,3.838,4.489,6.763,4.912l29.213,4.246L438.362,435.829z"/>
	</g>
</g>
<g>
</g>
<g>
</g>
<g>
</g>
<g>
</g>
<g>
</g>
<g>
</g>
<g>
</g>
<g>
</g>
<g>
</g>
<g>
</g>
<g>
</g>
<g>
</g>
<g>
</g>
<g>
</g>
<g>
</g>
</svg>
