<?xml version="1.0" encoding="iso-8859-1"?>
<!-- Generator: Adobe Illustrator 19.0.0, SVG Export Plug-In . SVG Version: 6.00 Build 0)  -->
<svg version="1.1" id="Layer_1" xmlns="http://www.w3.org/2000/svg" xmlns:xlink="http://www.w3.org/1999/xlink" x="0px" y="0px"
	 viewBox="0 0 512 512" style="enable-background:new 0 0 512 512;" xml:space="preserve">
<g>
	<g>
		<path d="M479.934,0H32.066C14.357,0,0,14.357,0,32.066v447.867C0,497.643,14.357,512,32.066,512h447.867
			C497.643,512,512,497.643,512,479.934V32.066C512,14.357,497.643,0,479.934,0z M490.667,479.934
			c0,5.928-4.805,10.733-10.733,10.733H32.066c-5.928,0-10.733-4.805-10.733-10.733V32.066c0-5.928,4.805-10.733,10.733-10.733
			h447.867c5.928,0,10.733,4.805,10.733,10.733V479.934z"/>
	</g>
</g>
<g>
	<g>
		<path d="M435.435,196.139v33.003h-0.725c-3.145-6.046-7.192-11.485-12.15-16.32c-4.957-4.835-10.397-8.824-16.32-11.968
			c-5.923-3.144-12.029-5.56-18.315-7.253c-6.285-1.693-12.45-2.539-18.496-2.539c-15.232,0-28.168,2.539-38.805,7.616
			c-10.637,5.078-19.402,12.029-26.293,20.854c-6.891,8.824-11.907,19.283-15.051,31.37c-3.144,12.089-4.715,25.024-4.715,38.805
			c0,13.056,1.693,25.63,5.078,37.717c3.384,12.088,8.523,22.667,15.413,31.734c6.891,9.066,15.594,16.32,26.112,21.76
			c10.518,5.44,22.91,8.16,37.173,8.16c13.299,0,26.051-2.963,38.262-8.885c12.21-5.922,21.821-14.688,28.832-26.294
			c0.242,10.88-0.301,21.518-1.632,31.915c-1.331,10.398-4.291,19.705-8.885,27.926c-4.594,8.221-11.363,14.869-20.309,19.947
			c-8.947,5.077-20.792,7.616-35.542,7.616c-6.528,0-12.813-0.483-18.859-1.45c-6.045-0.968-11.544-2.72-16.501-5.259
			c-4.957-2.538-9.247-6.045-12.874-10.517s-6.285-10.216-7.978-17.227h-23.211c0.243,5.56,1.995,11.544,5.258,17.952
			c3.264,6.407,8.04,12.269,14.326,17.589c6.285,5.32,14.387,9.73,24.299,13.238c9.912,3.506,21.76,5.258,35.541,5.258
			c17.891,0,32.52-2.6,43.883-7.798c11.363-5.197,20.309-12.149,26.837-20.854c6.528-8.704,11.062-18.797,13.6-30.283
			c2.538-11.485,3.808-23.512,3.808-36.085V196.139H435.435z M431.083,321.078c-2.901,9.55-7.072,17.891-12.512,25.024
			c-5.44,7.133-12.089,12.813-19.947,17.045c-7.858,4.233-16.743,6.347-26.655,6.347c-11.363,0-21.155-2.238-29.376-6.71
			s-14.989-10.579-20.309-18.314c-5.32-7.736-9.187-16.744-11.606-27.019s-3.383-21.336-2.901-33.183
			c0-11.848,1.632-22.304,4.896-31.371c3.264-9.066,7.798-16.744,13.6-23.029c5.803-6.285,12.573-11.061,20.309-14.326
			c7.736-3.264,16.2-4.896,25.387-4.896c10.154,0,19.221,2.056,27.2,6.165c7.979,4.109,14.627,9.73,19.947,16.864
			c5.32,7.133,9.368,15.595,12.15,25.387c2.781,9.792,4.171,20.371,4.171,31.734C435.435,301.432,433.984,311.528,431.083,321.078z"
			/>
	</g>
</g>
<g>
	<g>
		<path d="M241.952,283.36c-4.232-8.341-9.853-15.17-16.864-20.491c-7.01-5.32-15.051-9.549-24.117-12.693
			c-9.066-3.144-18.435-5.864-28.107-8.159c-9.672-2.296-19.16-4.472-28.469-6.528c-9.309-2.056-17.832-4.715-25.568-7.979
			c-7.736-3.264-14.264-7.434-19.584-12.512c-5.32-5.078-8.705-11.848-10.155-20.309c-1.208-6.771-0.845-13.539,1.088-20.309
			c1.934-6.771,5.44-12.936,10.518-18.496c5.078-5.56,11.907-10.094,20.491-13.6c8.584-3.506,19.159-5.258,31.733-5.258
			c8.221,0,16.2,1.088,23.936,3.264c7.736,2.177,14.626,5.561,20.672,10.155c6.046,4.594,10.818,10.518,14.326,17.771
			c3.506,7.253,5.258,15.837,5.258,25.749h23.574c0-10.637-1.814-20.673-5.44-30.102c-3.627-9.429-9.067-17.71-16.32-24.842
			c-7.253-7.133-16.382-12.755-27.382-16.864c-11-4.109-23.874-6.165-38.624-6.165c-14.506,0-27.32,1.933-38.443,5.803
			c-11.122,3.869-20.37,9.066-27.744,15.594c-7.373,6.528-12.935,14.024-16.682,22.485c-3.747,8.462-5.622,17.165-5.622,26.112
			c0,12.814,2.296,23.393,6.891,31.734c4.595,8.341,10.579,15.171,17.953,20.49c7.373,5.32,15.837,9.55,25.387,12.693
			c9.549,3.145,19.341,5.865,29.376,8.16c10.034,2.296,19.827,4.654,29.376,7.072c9.549,2.419,18.013,5.621,25.387,9.611
			c7.373,3.989,13.357,9.128,17.952,15.413c4.594,6.285,6.891,14.506,6.891,24.661c0,7.254-1.27,14.145-3.808,20.673
			c-2.539,6.528-6.467,12.269-11.786,17.227c-5.32,4.957-12.211,8.885-20.673,11.786c-8.461,2.902-18.496,4.352-30.101,4.352
			c-9.912,0-19.221-1.15-27.926-3.445c-8.704-2.296-16.381-5.984-23.029-11.061c-6.648-5.078-12.088-11.667-16.32-19.766
			c-4.233-8.099-6.829-17.952-7.798-29.557H58.261c0,14.264,2.357,26.656,7.072,37.173c4.715,10.518,11.304,19.341,19.766,26.475
			c8.461,7.133,18.495,12.451,30.101,15.958c11.605,3.506,24.179,5.258,37.717,5.258c30.221,0,53.674-6.648,70.357-19.947
			c16.682-13.299,25.024-32.034,25.024-56.214C248.299,302.157,246.184,291.701,241.952,283.36z"/>
	</g>
</g>
<g>
</g>
<g>
</g>
<g>
</g>
<g>
</g>
<g>
</g>
<g>
</g>
<g>
</g>
<g>
</g>
<g>
</g>
<g>
</g>
<g>
</g>
<g>
</g>
<g>
</g>
<g>
</g>
<g>
</g>
</svg>
