<?xml version="1.0" encoding="iso-8859-1"?>
<!-- Generator: Adobe Illustrator 19.0.0, SVG Export Plug-In . SVG Version: 6.00 Build 0)  -->
<svg version="1.1" id="Layer_1" xmlns="http://www.w3.org/2000/svg" xmlns:xlink="http://www.w3.org/1999/xlink" x="0px" y="0px"
	 viewBox="0 0 512 512" style="enable-background:new 0 0 512 512;" xml:space="preserve">
<g>
	<g>
		<path d="M479.146,67.057C465.68,23.425,357.851,0,256,0S46.32,23.425,32.854,67.057c-0.885,1.392-1.415,3.032-1.415,4.803V440.14
			c0,1.82,0.542,3.513,1.473,4.93C46.761,489.024,154.412,512,256,512c4.961,0,8.982-4.022,8.982-8.982
			c0-4.961-4.022-8.982-8.982-8.982c-116.39,0-200.648-28.825-206.318-55.746c-0.073-0.349-0.167-0.691-0.278-1.022v-55.523
			C86.048,411.111,173.006,426.667,256,426.667c4.961,0,8.982-4.022,8.982-8.982s-4.022-8.982-8.982-8.982
			c-56.7,0-109.885-6.862-149.759-19.322c-35.058-10.956-56.838-25.925-56.838-39.064V291.92
			C86.048,321.286,173.006,336.842,256,336.842c108.862,0,224.561-26.759,224.561-76.351V71.86
			C480.561,70.089,480.031,68.449,479.146,67.057z M462.596,260.491c0,13.138-21.78,28.107-56.838,39.064
			C365.885,312.015,312.7,318.877,256,318.877s-109.885-6.862-149.759-19.322c-35.058-10.956-56.838-25.925-56.838-39.064v-58.395
			C86.048,231.462,173.006,247.018,256,247.018c82.994,0,169.952-15.556,206.596-44.922V260.491z M462.596,170.667
			c0,13.138-21.78,28.107-56.838,39.064C365.885,222.191,312.7,229.053,256,229.053s-109.885-6.862-149.759-19.322
			c-35.058-10.956-56.838-25.925-56.838-39.064V107.78C86.048,137.146,173.006,152.702,256,152.702
			c82.994,0,169.952-15.556,206.596-44.922V170.667z M405.759,115.414C365.885,127.875,312.7,134.737,256,134.737
			s-109.885-6.862-149.759-19.322c-35.058-10.956-56.838-25.925-56.838-39.064s21.78-28.107,56.838-39.064
			C146.115,24.827,199.3,17.965,256,17.965s109.885,6.862,149.759,19.322c35.058,10.956,56.838,25.925,56.838,39.064
			S440.817,104.458,405.759,115.414z"/>
	</g>
</g>
<g>
	<g>
		<path d="M471.579,404.211h-35.93v-35.93c0-4.961-4.022-8.982-8.982-8.982h-35.93c-4.961,0-8.982,4.022-8.982,8.982v35.93h-35.93
			c-4.961,0-8.982,4.022-8.982,8.982v35.93c0,4.961,4.022,8.982,8.982,8.982h35.93v35.93c0,4.961,4.022,8.982,8.982,8.982h35.93
			c4.961,0,8.982-4.022,8.982-8.982v-35.93h35.93c4.961,0,8.982-4.022,8.982-8.982v-35.93
			C480.561,408.232,476.539,404.211,471.579,404.211z M462.596,440.14h-35.93c-4.961,0-8.982,4.022-8.982,8.982v35.93h-17.965
			v-35.93c0-4.961-4.022-8.982-8.982-8.982h-35.93v-17.965h35.93c4.961,0,8.982-4.022,8.982-8.982v-35.93h17.965v35.93
			c0,4.961,4.022,8.982,8.982,8.982h35.93V440.14z"/>
	</g>
</g>
<g>
</g>
<g>
</g>
<g>
</g>
<g>
</g>
<g>
</g>
<g>
</g>
<g>
</g>
<g>
</g>
<g>
</g>
<g>
</g>
<g>
</g>
<g>
</g>
<g>
</g>
<g>
</g>
<g>
</g>
</svg>
