<?xml version="1.0" encoding="iso-8859-1"?>
<!-- Generator: Adobe Illustrator 19.0.0, SVG Export Plug-In . SVG Version: 6.00 Build 0)  -->
<svg version="1.1" id="Layer_1" xmlns="http://www.w3.org/2000/svg" xmlns:xlink="http://www.w3.org/1999/xlink" x="0px" y="0px"
	 viewBox="0 0 512 512" style="enable-background:new 0 0 512 512;" xml:space="preserve">
<g>
	<g>
		<path d="M469.333,417.185h-109.85L409.667,367c3.704-3.701,3.704-9.706,0-13.407c-3.699-3.704-9.708-3.704-13.407,0l-66.37,66.37
			c-3.704,3.701-3.704,9.706,0,13.407l66.37,66.37c1.849,1.852,4.278,2.778,6.704,2.778s4.854-0.926,6.704-2.778
			c3.704-3.701,3.704-9.706,0-13.407l-50.183-50.185h109.85c5.236,0,9.482-4.245,9.482-9.481S474.569,417.185,469.333,417.185z"/>
	</g>
</g>
<g>
	<g>
		<path d="M428.477,128.81L296.479,2.627C294.715,0.942,292.368,0,289.928,0H42.667c-5.236,0-9.482,4.245-9.482,9.482v493.037
			c0,5.236,4.245,9.482,9.482,9.482h256c5.236,0,9.481-4.245,9.481-9.482c0-5.236-4.245-9.481-9.481-9.481H52.148V18.963h227.556
			v123.259c0,5.236,4.245,9.481,9.482,9.481h123.259v161.185c0,5.236,4.245,9.481,9.481,9.481s9.482-4.245,9.482-9.481V135.664
			C431.407,133.076,430.349,130.6,428.477,128.81z M298.667,132.741V30.952l106.479,101.789H298.667z"/>
	</g>
</g>
<g>
	<g>
		<path d="M313.544,267.167l-123.259-85.333c-2.903-2.007-6.674-2.236-9.796-0.602c-3.123,1.637-5.081,4.873-5.081,8.398v170.667
			c0,3.525,1.958,6.761,5.081,8.398c1.384,0.724,2.893,1.083,4.4,1.083c1.893,0,3.782-0.567,5.396-1.685l123.259-85.333
			c2.56-1.771,4.086-4.685,4.086-7.796C317.63,271.852,316.104,268.938,313.544,267.167z M194.37,342.201V207.725l97.12,67.238
			L194.37,342.201z"/>
	</g>
</g>
<g>
</g>
<g>
</g>
<g>
</g>
<g>
</g>
<g>
</g>
<g>
</g>
<g>
</g>
<g>
</g>
<g>
</g>
<g>
</g>
<g>
</g>
<g>
</g>
<g>
</g>
<g>
</g>
<g>
</g>
</svg>
