<?xml version="1.0" encoding="iso-8859-1"?>
<!-- Generator: Adobe Illustrator 19.0.0, SVG Export Plug-In . SVG Version: 6.00 Build 0)  -->
<svg version="1.1" id="Layer_1" xmlns="http://www.w3.org/2000/svg" xmlns:xlink="http://www.w3.org/1999/xlink" x="0px" y="0px"
	 viewBox="0 0 512 512" style="enable-background:new 0 0 512 512;" xml:space="preserve">
<g>
	<g>
		<path d="M464.593,398.222h-37.926v-37.926c0-5.236-4.245-9.482-9.482-9.482h-37.926c-5.236,0-9.482,4.245-9.482,9.482v37.926
			h-37.926c-5.236,0-9.482,4.245-9.482,9.482v37.926c0,5.236,4.245,9.481,9.482,9.481h37.926v37.926
			c0,5.236,4.245,9.481,9.482,9.481h37.926c5.236,0,9.482-4.245,9.482-9.481v-37.926h37.926c5.236,0,9.482-4.245,9.482-9.481
			v-37.926C474.074,402.468,469.829,398.222,464.593,398.222z M455.111,436.148h-37.926c-5.236,0-9.482,4.245-9.482,9.482v37.926
			h-18.963V445.63c0-5.236-4.245-9.482-9.481-9.482h-37.926v-18.963h37.926c5.236,0,9.481-4.245,9.481-9.481v-37.926h18.963v37.926
			c0,5.236,4.245,9.481,9.482,9.481h37.926V436.148z"/>
	</g>
</g>
<g>
	<g>
		<path d="M433.219,128.81L301.221,2.627C299.456,0.942,297.11,0,294.669,0H47.407c-5.236,0-9.482,4.245-9.482,9.482v493.037
			c0,5.236,4.245,9.482,9.482,9.482h256c5.236,0,9.481-4.245,9.481-9.482c0-5.236-4.245-9.481-9.481-9.481H56.889V18.963h227.556
			v123.259c0,5.236,4.245,9.481,9.481,9.481h123.259v161.185c0,5.236,4.245,9.481,9.482,9.481s9.481-4.245,9.481-9.481V135.664
			C436.148,133.076,435.089,130.6,433.219,128.81z M303.407,132.741V30.952l106.479,101.789H303.407z"/>
	</g>
</g>
<g>
	<g>
		<path d="M318.286,267.167l-123.259-85.333c-2.9-2.007-6.675-2.241-9.797-0.602c-3.124,1.637-5.081,4.873-5.081,8.398v170.667
			c0,3.525,1.957,6.761,5.081,8.398c1.383,0.725,2.894,1.083,4.399,1.083c1.895,0,3.782-0.567,5.398-1.685l123.259-85.333
			c2.558-1.771,4.084-4.685,4.084-7.796C322.37,271.852,320.844,268.938,318.286,267.167z M199.111,342.201V207.725l97.12,67.238
			L199.111,342.201z"/>
	</g>
</g>
<g>
</g>
<g>
</g>
<g>
</g>
<g>
</g>
<g>
</g>
<g>
</g>
<g>
</g>
<g>
</g>
<g>
</g>
<g>
</g>
<g>
</g>
<g>
</g>
<g>
</g>
<g>
</g>
<g>
</g>
</svg>
