<?xml version="1.0" encoding="iso-8859-1"?>
<!-- Generator: Adobe Illustrator 19.0.0, SVG Export Plug-In . SVG Version: 6.00 Build 0)  -->
<svg version="1.1" id="Layer_1" xmlns="http://www.w3.org/2000/svg" xmlns:xlink="http://www.w3.org/1999/xlink" x="0px" y="0px"
	 viewBox="0 0 512 512" style="enable-background:new 0 0 512 512;" xml:space="preserve">
<g>
	<g>
		<path d="M407.518,0H104.482C81.44,0,62.694,18.719,62.694,41.73v428.542c0,23.009,18.746,41.728,41.788,41.728h303.036
			c23.042,0,41.788-18.719,41.788-41.728V41.73C449.306,18.719,430.56,0,407.518,0z M428.408,470.272
			c0,11.486-9.371,20.83-20.89,20.83H104.482c-11.519,0-20.89-9.344-20.89-20.83V41.73c0-11.486,9.371-20.832,20.89-20.832h303.036
			c11.519,0,20.89,9.346,20.89,20.832V470.272z"/>
	</g>
</g>
<g>
	<g>
		<path d="M345.014,252.293l-146.286-88.816c-3.225-1.961-7.256-2.027-10.547-0.175c-3.288,1.851-5.324,5.332-5.324,9.106v177.633
			c0,3.774,2.036,7.255,5.324,9.106c1.593,0.897,3.36,1.343,5.125,1.343c1.88,0,3.759-0.506,5.422-1.518l146.286-88.816
			c3.121-1.894,5.027-5.28,5.027-8.931S348.135,254.188,345.014,252.293z M203.755,331.473V190.976l115.703,70.249L203.755,331.473z
			"/>
	</g>
</g>
<g>
</g>
<g>
</g>
<g>
</g>
<g>
</g>
<g>
</g>
<g>
</g>
<g>
</g>
<g>
</g>
<g>
</g>
<g>
</g>
<g>
</g>
<g>
</g>
<g>
</g>
<g>
</g>
<g>
</g>
</svg>
