<?xml version="1.0" encoding="iso-8859-1"?>
<!-- Generator: Adobe Illustrator 19.0.0, SVG Export Plug-In . SVG Version: 6.00 Build 0)  -->
<svg version="1.1" id="Layer_1" xmlns="http://www.w3.org/2000/svg" xmlns:xlink="http://www.w3.org/1999/xlink" x="0px" y="0px"
	 viewBox="0 0 512 512" style="enable-background:new 0 0 512 512;" xml:space="preserve">
<g>
	<g>
		<path d="M407.517,0H104.483C81.44,0,62.695,18.719,62.695,41.729v428.54c0,23.009,18.745,41.728,41.788,41.728h62.672
			c0.01,0,0.02,0.003,0.029,0.003c0.011,0,0.022-0.003,0.033-0.003h240.3c23.043,0,41.788-18.719,41.788-41.728V41.729
			C449.305,18.719,430.56,0,407.517,0z M182.168,491.1l57.398-155.791L288.763,491.1H182.168z M329.092,232.365
			c3.204,1.876,7.163,1.91,10.398,0.088l47.122-26.506v58.308l-47.122-26.506c-3.237-1.82-7.194-1.787-10.398,0.088
			c-3.204,1.873-5.173,5.307-5.173,9.019v45.714H156.735V177.632h167.183v45.714C323.918,227.057,325.887,230.491,329.092,232.365z
			 M428.407,470.269c0,11.486-9.372,20.83-20.89,20.83h-96.839l-56.094-177.632h79.783c5.77,0,10.449-4.679,10.449-10.449v-38.297
			l47.122,26.506c3.237,1.822,7.196,1.787,10.398-0.088c3.204-1.874,5.173-5.308,5.173-9.019v-94.04
			c0-3.712-1.969-7.146-5.174-9.019c-3.202-1.874-7.158-1.908-10.398-0.088l-47.122,26.506v-38.297
			c0-5.77-4.678-10.449-10.449-10.449H146.286c-5.77,0-10.449,4.679-10.449,10.449v135.836c0,5.77,4.679,10.449,10.449,10.449
			h79.056L159.9,491.1h-55.417c-11.518,0-20.89-9.344-20.89-20.83V41.729c0-11.486,9.372-20.832,20.89-20.832h303.034
			c11.518,0,20.89,9.346,20.89,20.832V470.269z"/>
	</g>
</g>
<g>
</g>
<g>
</g>
<g>
</g>
<g>
</g>
<g>
</g>
<g>
</g>
<g>
</g>
<g>
</g>
<g>
</g>
<g>
</g>
<g>
</g>
<g>
</g>
<g>
</g>
<g>
</g>
<g>
</g>
</svg>
