<?xml version="1.0" encoding="iso-8859-1"?>
<!-- Generator: Adobe Illustrator 19.0.0, SVG Export Plug-In . SVG Version: 6.00 Build 0)  -->
<svg version="1.1" id="Layer_1" xmlns="http://www.w3.org/2000/svg" xmlns:xlink="http://www.w3.org/1999/xlink" x="0px" y="0px"
	 viewBox="0 0 512 512" style="enable-background:new 0 0 512 512;" xml:space="preserve">
<g>
	<g>
		<path d="M398.222,341.333c-47.053,0-85.333,38.28-85.333,85.333S351.169,512,398.222,512s85.333-38.28,85.333-85.333
			S445.276,341.333,398.222,341.333z M398.222,493.037c-36.597,0-66.37-29.773-66.37-66.37c0-36.597,29.773-66.37,66.37-66.37
			s66.37,29.773,66.37,66.37C464.593,463.264,434.82,493.037,398.222,493.037z"/>
	</g>
</g>
<g>
	<g>
		<path d="M436.148,417.185h-28.444v-28.444c0-5.236-4.245-9.481-9.482-9.481s-9.482,4.245-9.482,9.481v28.444h-28.444
			c-5.236,0-9.482,4.245-9.482,9.482s4.245,9.481,9.482,9.481h28.444v28.444c0,5.236,4.245,9.482,9.482,9.482
			s9.482-4.245,9.482-9.482v-28.444h28.444c5.236,0,9.482-4.245,9.482-9.481S441.384,417.185,436.148,417.185z"/>
	</g>
</g>
<g>
	<g>
		<path d="M423.736,128.81L291.738,2.627C289.975,0.942,287.627,0,285.188,0H37.926c-5.236,0-9.481,4.245-9.481,9.482v493.037
			c0,5.236,4.245,9.482,9.481,9.482h256c5.236,0,9.482-4.245,9.482-9.482c0-5.236-4.245-9.481-9.482-9.481H47.407V18.963h227.556
			v123.259c0,5.236,4.245,9.481,9.482,9.481h123.259v161.185c0,5.236,4.245,9.481,9.481,9.481s9.482-4.245,9.482-9.481V135.664
			C426.667,133.076,425.609,130.6,423.736,128.81z M293.926,132.741V30.952l106.479,101.789H293.926z"/>
	</g>
</g>
<g>
	<g>
		<path d="M308.803,267.167l-123.259-85.333c-2.903-2.007-6.671-2.236-9.796-0.602c-3.123,1.637-5.081,4.873-5.081,8.398v170.667
			c0,3.525,1.958,6.761,5.081,8.398c1.384,0.724,2.893,1.083,4.4,1.083c1.893,0,3.782-0.567,5.396-1.685l123.259-85.333
			c2.56-1.771,4.086-4.685,4.086-7.796C312.889,271.852,311.363,268.938,308.803,267.167z M189.63,342.201V207.725l97.12,67.238
			L189.63,342.201z"/>
	</g>
</g>
<g>
</g>
<g>
</g>
<g>
</g>
<g>
</g>
<g>
</g>
<g>
</g>
<g>
</g>
<g>
</g>
<g>
</g>
<g>
</g>
<g>
</g>
<g>
</g>
<g>
</g>
<g>
</g>
<g>
</g>
</svg>
