<?xml version="1.0" encoding="iso-8859-1"?>
<!-- Generator: Adobe Illustrator 19.0.0, SVG Export Plug-In . SVG Version: 6.00 Build 0)  -->
<svg version="1.1" id="Layer_1" xmlns="http://www.w3.org/2000/svg" xmlns:xlink="http://www.w3.org/1999/xlink" x="0px" y="0px"
	 viewBox="0 0 512 512" style="enable-background:new 0 0 512 512;" xml:space="preserve">
<g>
	<g>
		<path d="M476.494,400.296c-1.116-3.433-4.082-5.933-7.654-6.451l-44.914-6.528l-20.086-40.699
			c-1.597-3.236-4.894-5.285-8.503-5.285s-6.905,2.049-8.502,5.285l-20.087,40.699l-44.913,6.528
			c-3.572,0.519-6.538,3.018-7.654,6.451c-1.116,3.433-0.185,7.201,2.399,9.72l32.5,31.68l-7.672,44.734
			c-0.61,3.556,0.852,7.151,3.772,9.273c2.919,2.118,6.79,2.403,9.985,0.72l40.173-21.118l40.173,21.118
			c1.387,0.732,2.902,1.09,4.411,1.09c1.966,0,3.922-0.611,5.574-1.81c2.92-2.123,4.382-5.718,3.772-9.273l-7.672-44.734l32.5-31.68
			C476.679,407.498,477.61,403.729,476.494,400.296z M424.789,431.597c-2.235,2.178-3.255,5.317-2.727,8.391l5.267,30.711
			l-27.58-14.498c-1.381-0.727-2.897-1.09-4.412-1.09s-3.031,0.363-4.412,1.09l-27.58,14.498l5.267-30.711
			c0.528-3.074-0.492-6.213-2.727-8.391l-22.313-21.75l30.834-4.481c3.088-0.447,5.758-2.387,7.139-5.185l13.791-27.942
			l13.789,27.942c1.381,2.799,4.051,4.738,7.139,5.185l30.836,4.481L424.789,431.597z"/>
	</g>
</g>
<g>
	<g>
		<path d="M430.334,128.81L298.337,2.627C296.572,0.942,294.226,0,291.785,0H44.523c-5.236,0-9.481,4.245-9.481,9.482v493.037
			c0,5.236,4.245,9.482,9.481,9.482h256c5.236,0,9.482-4.245,9.482-9.482c0-5.236-4.245-9.481-9.482-9.481H54.004V18.963H281.56
			v123.259c0,5.236,4.245,9.481,9.482,9.481h123.259v161.185c0,5.236,4.245,9.481,9.482,9.481s9.481-4.245,9.481-9.481V135.664
			C433.264,133.076,432.205,130.6,430.334,128.81z M300.523,132.741V30.952l106.479,101.789H300.523z"/>
	</g>
</g>
<g>
	<g>
		<path d="M315.402,267.167l-123.259-85.333c-2.9-2.007-6.674-2.241-9.797-0.602c-3.124,1.637-5.081,4.873-5.081,8.398v170.667
			c0,3.525,1.957,6.761,5.081,8.398c1.383,0.725,2.893,1.083,4.399,1.083c1.895,0,3.782-0.567,5.398-1.685l123.259-85.333
			c2.558-1.771,4.084-4.685,4.084-7.796C319.486,271.852,317.959,268.938,315.402,267.167z M196.227,342.201V207.725l97.12,67.238
			L196.227,342.201z"/>
	</g>
</g>
<g>
</g>
<g>
</g>
<g>
</g>
<g>
</g>
<g>
</g>
<g>
</g>
<g>
</g>
<g>
</g>
<g>
</g>
<g>
</g>
<g>
</g>
<g>
</g>
<g>
</g>
<g>
</g>
<g>
</g>
</svg>
