<?xml version="1.0" encoding="iso-8859-1"?>
<!-- Generator: Adobe Illustrator 19.0.0, SVG Export Plug-In . SVG Version: 6.00 Build 0)  -->
<svg version="1.1" id="Layer_1" xmlns="http://www.w3.org/2000/svg" xmlns:xlink="http://www.w3.org/1999/xlink" x="0px" y="0px"
	 viewBox="0 0 512 512" style="enable-background:new 0 0 512 512;" xml:space="preserve">
<g>
	<g>
		<path d="M431.981,426.667l26.82-26.82c1.778-1.778,2.777-4.19,2.777-6.704s-0.999-4.926-2.778-6.704l-26.818-26.817
			c-3.7-3.704-9.704-3.704-13.408,0l-26.817,26.817l-26.817-26.817c-3.701-3.704-9.705-3.704-13.409,0l-26.818,26.817
			c-1.779,1.778-2.778,4.19-2.778,6.704s0.999,4.926,2.777,6.704l26.82,26.82l-26.82,26.82c-1.778,1.778-2.777,4.19-2.777,6.704
			c0,2.514,0.999,4.926,2.778,6.704l26.818,26.817c3.701,3.704,9.705,3.706,13.408,0l26.817-26.817l26.817,26.817
			c1.852,1.852,4.278,2.778,6.705,2.778c2.426,0,4.853-0.926,6.704-2.778l26.818-26.817c1.779-1.778,2.778-4.19,2.778-6.704
			s-0.999-4.926-2.777-6.704L431.981,426.667z M425.278,473.597l-26.817-26.817c-1.779-1.778-4.19-2.778-6.705-2.778
			s-4.926,1-6.705,2.778l-26.817,26.817l-13.41-13.407l26.82-26.82c3.703-3.701,3.703-9.706,0-13.407l-26.82-26.82l13.41-13.407
			l26.817,26.817c1.779,1.778,4.19,2.778,6.705,2.778s4.926-1,6.705-2.778l26.817-26.817l13.41,13.407l-26.82,26.82
			c-3.703,3.701-3.703,9.706,0,13.407l26.82,26.82L425.278,473.597z"/>
	</g>
</g>
<g>
	<g>
		<path d="M445.715,128.81L313.717,2.627C311.952,0.942,309.607,0,307.166,0H59.904c-5.236,0-9.481,4.245-9.481,9.482v493.037
			c0,5.236,4.245,9.482,9.481,9.482h256c5.236,0,9.482-4.245,9.482-9.482c0-5.236-4.245-9.481-9.482-9.481H69.385V18.963h227.556
			v123.259c0,5.236,4.245,9.481,9.482,9.481h123.259v161.185c0,5.236,4.245,9.481,9.482,9.481s9.481-4.245,9.481-9.481V135.664
			C448.645,133.076,447.586,130.6,445.715,128.81z M315.904,132.741V30.952l106.479,101.789H315.904z"/>
	</g>
</g>
<g>
	<g>
		<path d="M330.783,267.167l-123.259-85.333c-2.9-2.007-6.675-2.241-9.797-0.602c-3.124,1.637-5.081,4.873-5.081,8.398v170.667
			c0,3.525,1.957,6.761,5.081,8.398c1.383,0.725,2.893,1.083,4.399,1.083c1.895,0,3.782-0.567,5.398-1.685l123.259-85.333
			c2.558-1.771,4.084-4.685,4.084-7.796C334.867,271.852,333.34,268.938,330.783,267.167z M211.608,342.201V207.725l97.12,67.238
			L211.608,342.201z"/>
	</g>
</g>
<g>
</g>
<g>
</g>
<g>
</g>
<g>
</g>
<g>
</g>
<g>
</g>
<g>
</g>
<g>
</g>
<g>
</g>
<g>
</g>
<g>
</g>
<g>
</g>
<g>
</g>
<g>
</g>
<g>
</g>
</svg>
