<?xml version="1.0" encoding="iso-8859-1"?>
<!-- Generator: Adobe Illustrator 19.0.0, SVG Export Plug-In . SVG Version: 6.00 Build 0)  -->
<svg version="1.1" id="Layer_1" xmlns="http://www.w3.org/2000/svg" xmlns:xlink="http://www.w3.org/1999/xlink" x="0px" y="0px"
	 viewBox="0 0 512 512" style="enable-background:new 0 0 512 512;" xml:space="preserve">
<g>
	<g>
		<path d="M440.324,138.557L309.882,3.018C308.026,1.09,305.466,0,302.788,0H108.38C86.623,0,68.923,17.653,68.923,39.351v433.298
			c0,21.698,17.699,39.351,39.457,39.351h295.24c21.757,0,39.457-17.653,39.457-39.351V145.385
			C443.077,142.839,442.091,140.392,440.324,138.557z M305.231,26.584L412.31,137.846H305.231V26.584z M423.385,472.649
			c0,10.84-8.865,19.659-19.764,19.659H108.38c-10.899,0-19.764-8.818-19.764-19.659V39.351c0-10.84,8.865-19.659,19.764-19.659
			h177.159v128c0,5.438,4.409,9.846,9.846,9.846h128V472.649z"/>
	</g>
</g>
<g>
	<g>
		<path d="M383.507,324.642c-10.026-9.507-27.861-14.383-50.188-13.743c-7.413,0.214-15.252,1.052-23.44,2.49
			c-18.555-22.272-36.57-53.198-48.675-81.667c12.404-40.029,16.935-66.185,5.627-78.47c-3.769-4.093-10.836-8.327-23.065-5.266
			c-7.714,1.928-20.125,9.462-16.582,38.25c1.567,12.719,6.224,28.924,13.127,46.367c-3.711,11.627-7.844,23.786-11.909,35.739
			c-3.829,11.26-7.789,22.901-11.315,33.875h-0.002c-2.827,8.803-5.418,17.127-7.865,24.995c-3.43,11.028-6.538,21.021-9.589,30.07
			c-52.644,29.892-73.673,55.779-74.961,71.704c-0.524,6.472,2.005,12.096,6.938,15.427c2.474,1.672,6.024,3.084,10.957,3.084
			c4.959,0,11.315-1.43,19.377-5.46c28.416-14.208,41.829-37.702,53.796-71.179c10.108-5.53,21.565-11.314,34.541-17.303
			c20.464-9.443,37.894-15.277,52.536-18.704c16.933,17.783,34.841,29.457,51.646,29.457c18.281,0,31.175-6.04,35.375-16.571
			C392.933,339.971,390.567,331.338,383.507,324.642z M153.135,424.424c-3.512,1.757-6.111,2.609-7.916,3.016
			c3.019-6.626,14.06-20.844,42.341-39.665C179.216,404.69,169.113,416.435,153.135,424.424z M248.541,167.09
			c1.673-0.417,2.74-0.477,3.31-0.477c0.332,0.003,0.505,0.024,0.512,0c0.353,0.433,3.947,5.685-2.519,32.781
			c-1.469-5.582-2.529-10.816-3.113-15.564C245.277,172.008,247.365,167.385,248.541,167.09z M242.029,335.676
			c-6.079,2.805-11.887,5.591-17.425,8.351c1.12-3.567,2.257-7.224,3.423-10.965c2.428-7.811,5-16.078,7.81-24.817h-0.002
			c3.478-10.816,7.411-22.379,11.212-33.561c1.793-5.269,3.522-10.376,5.18-15.325c10.178,20.621,22.716,41.364,36.38,58.909
			C273.774,322.411,258.12,328.248,242.029,335.676z M354.462,344.615c-8.375,0-17.875-5.111-27.685-13.646
			c22.856-1.87,34.961,3.049,38.358,4.744c4.195,2.094,5.8,4.123,6.228,4.952C370.308,341.816,365.731,344.615,354.462,344.615z"/>
	</g>
</g>
<g>
</g>
<g>
</g>
<g>
</g>
<g>
</g>
<g>
</g>
<g>
</g>
<g>
</g>
<g>
</g>
<g>
</g>
<g>
</g>
<g>
</g>
<g>
</g>
<g>
</g>
<g>
</g>
<g>
</g>
</svg>
